<?xml version="1.0" encoding="UTF-8" standalone="no"?>
<svg
   xmlns:dc="http://purl.org/dc/elements/1.1/"
   xmlns:cc="http://creativecommons.org/ns#"
   xmlns:rdf="http://www.w3.org/1999/02/22-rdf-syntax-ns#"
   xmlns:svg="http://www.w3.org/2000/svg"
   xmlns="http://www.w3.org/2000/svg"
   xmlns:sodipodi="http://sodipodi.sourceforge.net/DTD/sodipodi-0.dtd"
   xmlns:inkscape="http://www.inkscape.org/namespaces/inkscape"
   viewBox="0 0 2159.0001 2794"
   width="8.5in"
   version="1.2"
   height="11in"
   id="svg8428"
   sodipodi:docname="copper.svg"
   inkscape:version="1.0.2 (e86c870879, 2021-01-15)">
  <metadata
     id="metadata8432">
    <rdf:RDF>
      <cc:Work
         rdf:about="">
        <dc:title>FreeCAD SVG Export</dc:title>
        <dc:format>image/svg+xml</dc:format>
        <dc:type
           rdf:resource="http://purl.org/dc/dcmitype/StillImage" />
      </cc:Work>
    </rdf:RDF>
  </metadata>
  <sodipodi:namedview
     pagecolor="#ffffff"
     bordercolor="#666666"
     borderopacity="1"
     objecttolerance="10"
     gridtolerance="10"
     guidetolerance="10"
     inkscape:pageopacity="0"
     inkscape:pageshadow="2"
     inkscape:window-width="1600"
     inkscape:window-height="825"
     id="namedview8430"
     showgrid="false"
     inkscape:zoom="0.70710678"
     inkscape:cx="407.99999"
     inkscape:cy="485.33332"
     inkscape:window-x="0"
     inkscape:window-y="0"
     inkscape:window-maximized="1"
     inkscape:current-layer="layer2"
     inkscape:document-rotation="0"
     units="in"
     inkscape:document-units="mm" />
  <title
     id="title2">FreeCAD SVG Export</title>
  <desc
     id="desc4">Drawing page: Page exported from FreeCAD document: Unnamed</desc>
  <defs
     id="defs6" />
  <g
     inkscape:groupmode="layer"
     id="layer2"
     inkscape:label="Cut lines"
     style="display:inline">
    <g
       font-weight="400"
       fill="none"
       font-style="normal"
       stroke="#000000"
       font-size="28.2222px"
       font-family="Cantarell"
       stroke-width="2.5"
       stroke-linecap="round"
       transform="translate(1382.5068,1024.4724)"
       stroke-opacity="1"
       stroke-linejoin="bevel"
       id="g7724"
       style="display:inline;fill-rule:evenodd" />
    <g
       font-weight="400"
       fill="none"
       font-style="normal"
       stroke="#000000"
       font-size="28.2222px"
       font-family="Cantarell"
       stroke-width="2.5"
       stroke-linecap="round"
       transform="translate(1382.5068,1024.4724)"
       stroke-opacity="1"
       stroke-linejoin="bevel"
       id="g7732"
       style="display:inline;fill-rule:evenodd" />
    <g
       font-weight="400"
       fill="none"
       font-style="normal"
       stroke="#000000"
       font-size="28.2222px"
       font-family="Cantarell"
       stroke-width="2.5"
       stroke-linecap="round"
       transform="translate(1382.5068,1024.4724)"
       stroke-opacity="1"
       stroke-linejoin="bevel"
       id="g7736"
       style="display:inline;fill-rule:evenodd" />
    <g
       font-weight="400"
       fill="none"
       font-style="normal"
       stroke="#000000"
       font-size="28.2222px"
       font-family="Cantarell"
       stroke-width="2.5"
       stroke-linecap="round"
       transform="translate(1382.5068,1024.4724)"
       stroke-opacity="1"
       stroke-linejoin="bevel"
       id="g7740"
       style="display:inline;fill-rule:evenodd" />
    <g
       font-weight="400"
       fill="none"
       font-style="normal"
       stroke="#000000"
       font-size="28.2222px"
       font-family="Cantarell"
       stroke-width="2.5"
       stroke-linecap="round"
       transform="translate(1382.5068,1024.4724)"
       stroke-opacity="1"
       stroke-linejoin="bevel"
       id="g7712"
       style="display:inline;fill-rule:evenodd" />
    <g
       font-weight="400"
       fill="none"
       font-style="normal"
       stroke="#000000"
       font-size="28.2222px"
       font-family="Cantarell"
       stroke-width="2.5"
       stroke-linecap="round"
       transform="translate(1382.5068,1024.4724)"
       stroke-opacity="1"
       stroke-linejoin="bevel"
       id="g7744"
       style="display:inline;fill-rule:evenodd" />
    <g
       font-weight="400"
       fill="none"
       font-style="normal"
       stroke="#000000"
       font-size="28.2222px"
       font-family="Cantarell"
       stroke-width="2.5"
       stroke-linecap="round"
       transform="translate(1382.5068,1024.4724)"
       stroke-opacity="1"
       stroke-linejoin="bevel"
       id="g7748"
       style="display:inline;fill-rule:evenodd" />
    <g
       font-weight="400"
       fill="none"
       font-style="normal"
       stroke="#000000"
       font-size="28.2222px"
       font-family="Cantarell"
       stroke-width="2.5"
       stroke-linecap="round"
       transform="translate(1382.5068,1024.4724)"
       stroke-opacity="1"
       stroke-linejoin="bevel"
       id="g7752"
       style="display:inline;fill-rule:evenodd" />
    <g
       font-weight="400"
       fill="none"
       font-style="normal"
       stroke="#000000"
       font-size="28.2222px"
       font-family="Cantarell"
       stroke-width="2.5"
       stroke-linecap="round"
       transform="translate(1382.5068,1024.4724)"
       stroke-opacity="1"
       stroke-linejoin="bevel"
       id="g7756"
       style="display:inline;fill-rule:evenodd" />
    <g
       font-weight="400"
       fill="none"
       font-style="normal"
       stroke="#000000"
       font-size="28.2222px"
       font-family="Cantarell"
       stroke-width="2.5"
       stroke-linecap="round"
       transform="translate(1382.5068,1024.4724)"
       stroke-opacity="1"
       stroke-linejoin="bevel"
       id="g7760"
       style="display:inline;fill-rule:evenodd" />
    <g
       font-weight="400"
       fill="none"
       font-style="normal"
       stroke="#000000"
       font-size="28.2222px"
       font-family="Cantarell"
       stroke-width="2.5"
       stroke-linecap="round"
       transform="translate(1382.5068,1024.4724)"
       stroke-opacity="1"
       stroke-linejoin="bevel"
       id="g7764"
       style="display:inline;fill-rule:evenodd" />
    <g
       font-weight="400"
       fill="none"
       font-style="normal"
       stroke="#000000"
       font-size="28.2222px"
       font-family="Cantarell"
       stroke-width="2.5"
       stroke-linecap="round"
       transform="translate(1382.5068,1024.4724)"
       stroke-opacity="1"
       stroke-linejoin="bevel"
       id="g7768"
       style="display:inline;fill-rule:evenodd" />
    <g
       font-weight="400"
       fill="none"
       font-style="normal"
       stroke="#000000"
       font-size="28.2222px"
       font-family="Cantarell"
       stroke-width="2.5"
       stroke-linecap="round"
       transform="translate(1382.5068,1024.4724)"
       stroke-opacity="1"
       stroke-linejoin="bevel"
       id="g7772"
       style="display:inline;fill-rule:evenodd" />
    <g
       font-weight="400"
       fill="none"
       font-style="normal"
       stroke="#000000"
       font-size="28.2222px"
       font-family="Cantarell"
       stroke-width="2.5"
       stroke-linecap="round"
       transform="translate(1382.5068,1024.4724)"
       stroke-opacity="1"
       stroke-linejoin="bevel"
       id="g7716"
       style="display:inline;fill-rule:evenodd" />
    <g
       font-weight="400"
       fill="none"
       font-style="normal"
       stroke="#000000"
       font-size="28.2222px"
       font-family="Cantarell"
       stroke-width="2.5"
       stroke-linecap="round"
       transform="rotate(90,-158.75001,1238.25)"
       stroke-opacity="1"
       stroke-linejoin="bevel"
       id="g7720"
       style="display:inline;fill-rule:evenodd">
      <path
         id="path7718"
         d="m 958.025,-446.255 c -33.431,-1.966 -62.668,-23.188 -74.898,-54.364 m 77.232,72.629 c 0,-6.163 -0.784,-12.3 -2.334,-18.265 m 2.334,874.245 v -855.98 m -2.334,874.245 c 1.55,-5.965 2.334,-12.102 2.334,-18.265 m -77.232,72.629 c 12.23,-31.176 41.467,-52.398 74.898,-54.364 M 53.4934,500.619 H 883.127 m -936.6204,0 c 30.9543,-25.915 76.0325,-25.915 106.9868,0 m -936.6204,0 H -53.4934 M -958.025,446.255 c 33.431,1.966 62.668,23.188 74.898,54.364 m -77.232,-72.629 c 0,6.163 0.784,12.3 2.334,18.265 m 0,-892.51 c -1.55,5.965 -2.334,12.102 -2.334,18.265 m 0,0 v 855.98 m 77.232,-928.609 c -12.23,31.176 -41.467,52.398 -74.898,54.364 m 904.5316,-54.364 H -883.127 m 1766.254,0 H 53.4934 m 0,0 c -30.9543,25.915 -76.0325,25.915 -106.9868,0" />
    </g>
    <rect
       style="display:inline;fill:none;stroke:#000000;stroke-width:2.5;stroke-miterlimit:4;stroke-dasharray:none"
       id="rect9958-3-3-5-2"
       width="660"
       height="160"
       x="749.5"
       y="640.00092"
       rx="10"
       ry="10" />
  </g>
  <g
     inkscape:groupmode="layer"
     id="layer7"
     inkscape:label="Copper"
     style="display:inline"
     sodipodi:insensitive="true">
    <path
       id="rect5235"
       style="fill:#ff0000;stroke:none;stroke-width:0.944882"
       d="m 285.16406,395.65234 v 56.69336 h 56.69141 v -56.69336 z m 33.03516,8.76563 c 0.576,0 1.08789,0.2559 1.08789,1.08789 0,0 -0.51172,3.64705 -0.51172,7.03906 v 23.10547 c 0,5.31198 3.0718,5.56777 6.5918,5.75977 0.64,0.384 0.64,1.79178 0,2.17578 -5.24799,-0.064 -8.12751,-0.12891 -10.6875,-0.12891 -2.56,0 -10.81641,0.12891 -10.81641,0.12891 -0.64,-0.384 -0.64,-1.79178 0,-2.17578 3.52,-0.192 6.5918,-0.44779 6.5918,-5.75977 v -20.0332 c 0,-3.19998 -0.38285,-3.45508 -1.21485,-3.45508 -0.89599,0 -3.20025,0.1276 -6.65625,1.59961 -0.89599,-0.63999 -1.4082,-1.66398 -1.4082,-2.75195 5.56799,-2.304 9.92023,-3.84083 13.82422,-5.63282 1.472,-0.70401 2.55922,-0.95898 3.19922,-0.95898 z"
       transform="scale(2.6458334)" />
    <path
       id="use5388"
       style="fill:#ff0000;stroke:none;stroke-width:0.944882"
       d="m 379.6543,395.65234 v 56.69336 h 56.6914 v -56.69336 z m 29.14648,8.83008 c 3.77601,0 7.1667,1.27909 9.4707,3.45508 1.79199,1.728 2.75196,4.09567 2.75196,6.84766 0,6.01598 -2.55981,7.55331 -10.17578,14.52929 l -3.77539,3.45508 c -2.112,1.98399 -2.75136,3.64734 -2.94336,5.69531 h 8.31836 c 2.88,0 4.7365,-1.7281 6.14453,-6.08007 1.47197,0 2.04887,0.25662 2.88086,0.64062 -0.44799,3.648 -1.21638,8.06412 -1.98438,10.49609 H 394.7832 l -0.25586,-2.04882 c 0.192,-1.728 1.28081,-3.45434 9.2168,-11.07032 l 5.43945,-5.18554 c 3.32799,-3.20002 3.64844,-5.9503 3.64844,-10.23828 0,-2.23998 -0.76851,-4.3528 -1.72851,-5.63282 -1.152,-1.47197 -2.43143,-2.24023 -3.7754,-2.24023 -3.13602,0 -5.3125,2.94404 -5.3125,4.41601 10e-6,0.70402 0.19277,1.21608 0.38477,1.66407 0.192,0.576 0.32031,1.02373 0.32031,1.34375 0,1.98398 -1.85691,3.39258 -3.71289,3.39258 -2.304,0 -3.77539,-1.85705 -3.77539,-3.45704 0,-3.96801 4.41639,-9.98242 13.56836,-9.98242 z"
       transform="scale(2.6458334)" />
    <path
       id="use5390"
       style="fill:#ff0000;stroke:none;stroke-width:0.944882"
       d="m 474.14453,395.65234 v 56.69336 h 56.69141 v -56.69336 z m 29.01563,8.50977 c 8.832,0 10.36718,4.2875 10.36718,7.10351 0,2.496 -1.21595,4.47904 -2.75195,6.20704 -0.96,1.08797 -2.23922,1.98408 -3.19922,2.49609 5.376,0.384 8.38477,4.41743 8.38477,9.02539 0,3.648 -1.34563,6.59053 -3.26563,8.89453 -3.20001,3.84 -8.31837,5.95313 -12.73437,5.95313 -3.13599,0 -6.52803,-0.83238 -8.83203,-1.98438 -1.40799,-0.70401 -2.11329,-1.66381 -2.11329,-3.00781 0,-1.08801 1.15274,-2.75195 3.13672,-2.75195 2.36799,0 3.45619,1.40718 4.16016,2.36718 0.83199,1.08802 2.17588,2.68946 4.67188,2.68946 2.36798,0 6.7207,-1.60095 6.7207,-8.96094 0,-7.68 -4.67201,-8.64063 -8,-8.64063 -0.96,0 -1.72827,0.12968 -3.07227,0.51368 -0.384,-0.44799 -0.51172,-1.2174 -0.51172,-1.85743 0,-0.25598 -0.002,-0.44713 0.0625,-0.70312 5.88798,-1.28001 9.72852,-5.24734 9.72852,-10.11133 0,-2.94402 -1.28075,-4.54492 -3.96875,-4.54492 -2.17599,0 -4.86243,0.2557 -5.56641,4.0957 -0.384,2.04802 -1.15273,3.51953 -3.96875,3.51953 -2.112,0 -2.43164,-1.47117 -2.43164,-2.36718 0,-0.83199 0.38303,-2.55983 1.79102,-3.83985 1.98399,-1.85597 4.67261,-4.0957 11.39258,-4.0957 z"
       transform="scale(2.6458334)" />
    <path
       id="use5392"
       style="fill:#ff0000;stroke:none;stroke-width:0.944882"
       d="m 285.16406,490.14258 v 56.69336 h 56.69141 v -56.69336 z m 30.58789,8.76367 h 5.75977 v 25.66406 h 6.27148 c 0.704,0 0.96094,0.38341 0.96094,1.02344 0,0.76796 -0.95947,1.98437 -1.85547,1.98437 h -5.37695 v 2.56055 c 0,5.31198 2.43118,5.56777 5.95117,5.75977 0.64,0.384 0.64,1.79178 0,2.17578 -5.24799,-0.064 -7.29547,-0.12891 -9.85547,-0.12891 -2.55999,0 -9.98437,0.12891 -9.98437,0.12891 -0.64,-0.384 -0.64,-1.79178 0,-2.17578 3.51999,-0.192 5.95312,-0.44779 5.95312,-5.75977 v -2.56055 h -11.32812 c -1.536,10e-6 -1.79133,-0.1292 -2.11133,-0.44921 l -0.96094,-1.15039 c -0.384,-0.70398 -0.89648,-1.21667 -0.89648,-1.47266 0,-0.192 0.25722,-0.57604 0.44922,-0.83203 5.24798,-7.872 12.09544,-18.94359 17.02343,-24.76758 z m -2.17578,6.97461 c -3.39199,4.608 -8.5754,13.37748 -11.77539,18.68945 h 11.77539 z"
       transform="scale(2.6458334)" />
    <path
       id="use5394"
       style="fill:#ff0000;stroke:none;stroke-width:0.944882"
       d="m 379.6543,490.14258 v 56.69336 h 56.6914 v -56.69336 z m 39.25781,8.41211 1.47266,0.83203 -1.2168,5.5039 c -3.90403,0.25603 -5.05538,0.38282 -7.35938,0.38282 -2.688,0 -7.23327,-0.12832 -9.28125,-0.32032 -0.384,2.04798 -0.76685,5.12124 -1.21484,8.44922 1.53596,-0.384 5.56679,-0.83203 7.55078,-0.83203 7.55199,0 12.16016,4.79923 12.16016,11.19922 0,7.67996 -5.56813,14.65625 -14.08008,14.65625 -3.072,0 -6.97619,-0.44701 -9.4082,-1.79101 -1.66398,-0.83199 -2.5586,-2.24058 -2.5586,-3.39258 0,-1.40803 0.95967,-3.00781 3.26367,-3.00781 2.36799,0 3.96685,1.21608 4.79883,2.49609 1.02403,1.59999 2.24147,2.87891 3.52149,2.87891 3.51998,0 5.75976,-3.5835 5.75976,-9.85547 0,-6.39999 -2.30452,-9.59961 -5.3125,-9.59961 -3.20001,0 -4.35145,0.44778 -9.02343,2.17578 l -0.83204,-0.51172 2.56055,-19.07227 c 3.648,0.25599 5.69439,0.64063 8.31836,0.64063 3.84,0 6.20887,-0.38405 10.88086,-0.83203 z"
       transform="scale(2.6458334)" />
    <path
       id="use5396"
       style="fill:#ff0000;stroke:none;stroke-width:0.944882"
       d="m 474.14453,490.14258 v 56.69336 h 56.69141 v -56.69336 z m 40.08789,8.50781 c 0.44803,0.64003 0.57481,1.85505 0.38281,2.62305 -3.64796,0.192 -8.06383,0.76784 -11.83984,3.83984 -3.07196,2.496 -5.1833,6.84903 -5.69531,11.45703 2.304,-1.21598 5.0558,-2.04823 6.5918,-2.24023 10.43198,0.25602 12.67187,7.1687 12.67187,10.30469 0,5.69601 -3.71135,13.69531 -13.69531,13.69531 -6.46401,0 -14.01563,-2.68882 -14.01563,-16.38477 0,-6.144 1.98414,-12.86389 6.91211,-17.08789 4.86399,-4.15997 9.66354,-5.88702 18.6875,-6.20703 z m -12.73633,18.87891 c -1.152,0 -2.30431,0.19208 -4.73632,1.66406 -0.064,0.70401 -0.0645,2.3038 -0.0645,3.00781 0,11.13596 3.52069,13.63281 6.72071,13.63281 2.304,0 4.35156,-3.13682 4.35156,-10.04882 0,-3.77598 -2.5595,-8.25586 -6.27149,-8.25586 z"
       transform="scale(2.6458334)" />
    <path
       id="use5398"
       style="fill:#ff0000;stroke:none;stroke-width:0.944882"
       d="m 285.16406,584.63281 v 56.69336 h 56.69141 v -56.69336 z m 16.47656,8.3125 c 1.152,0.25603 1.27909,0.89649 3.45508,0.89649 h 21.43946 l 0.38476,0.57617 c -8.25598,17.40797 -11.71201,27.00717 -16,37.95117 l -6.52734,0.64063 -0.38477,-0.76758 c 4.99199,-9.15198 12.22328,-23.10507 16.44727,-31.87305 h -12.41602 c -2.11199,0 -4.28731,0.44839 -5.69531,5.56836 l -2.24023,-0.19141 c 0.51199,-3.32798 1.21724,-9.53542 1.28125,-12.60742 0,-0.192 0.0639,-0.19336 0.25585,-0.19336 z"
       transform="scale(2.6458334)" />
    <path
       id="use5400"
       style="fill:#ff0000;stroke:none;stroke-width:0.944882"
       d="m 379.6543,584.63281 v 56.69336 h 56.6914 v -56.69336 z m 28.98632,8.50586 c 8.38398,0 11.7754,3.83973 11.7754,8.51172 0,4.09599 -3.39196,7.2323 -7.16797,8.32031 l 3.58398,2.11133 c 3.71199,2.23998 5.43945,5.88805 5.43945,9.66406 0,4.92798 -4.73478,11.07227 -14.71875,11.07227 -8.12798,0 -13.82421,-3.39285 -13.82421,-10.04883 0,-4.92797 3.39072,-7.9998 9.4707,-11.00781 l -1.34375,-0.70313 c -4.73601,-2.43201 -6.14258,-4.67231 -6.14258,-8.32031 0,-4.992 3.83975,-9.59961 12.92773,-9.59961 z m -0.44921,2.24024 c -4.09599,0 -4.60743,2.49593 -4.60743,5.5039 0,1.98399 0.51288,4.2867 3.7129,5.88672 l 3.19921,1.66406 c 2.04802,-1.27997 2.4961,-4.16008 2.4961,-6.91211 0,-2.62397 -0.3208,-6.14257 -4.80078,-6.14257 z m -2.36719,17.85547 c -4.416,3.07199 -4.22461,7.61515 -4.22461,9.53515 0,5.69598 2.68806,7.48828 6.08008,7.48828 2.75198,0 6.65625,-1.08842 6.65625,-7.23242 0,-3.072 -0.44864,-5.50353 -5.05664,-7.93555 z"
       transform="scale(2.6458334)" />
    <path
       id="use5402"
       style="fill:#ff0000;stroke:none;stroke-width:0.944882"
       d="m 474.14453,584.63281 v 56.69336 h 56.69141 v -56.69336 z m 28.18359,8.50586 c 6.46402,0 14.01563,2.68683 14.01563,16.38281 0,6.14397 -2.04812,12.92788 -6.91211,17.0879 -4.86399,4.22399 -9.66354,5.95295 -18.6875,6.20898 -0.51201,-0.576 -0.64079,-1.79298 -0.38476,-2.625 3.64796,-0.192 8.06578,-0.76784 11.84179,-3.83984 3.00798,-2.43198 5.18284,-6.78263 5.63086,-11.39063 -2.304,1.21599 -4.99134,1.98378 -6.52734,2.17578 -10.49598,-0.192 -12.67188,-7.1687 -12.67188,-10.30469 0,-5.63198 3.71135,-13.69531 13.69531,-13.69531 z m -0.76757,2.4961 c -2.304,0 -4.35157,3.13487 -4.35157,10.04687 0,3.84 2.5595,8.25586 6.27149,8.25586 1.152,0 2.24033,-0.12806 4.73633,-1.66406 0.064,-0.70402 0.0625,-2.3038 0.0625,-3.00782 0,-11.13596 -3.51874,-13.63085 -6.71875,-13.63085 z"
       transform="scale(2.6458334)" />
    <path
       id="use5404"
       style="fill:#ff0000;stroke:none;stroke-width:0.944882"
       d="m 285.16406,679.12305 v 56.69336 h 56.69141 v -56.69336 z m 17.66016,14.58398 h 35.39062 v 27.51953 h -35.39062 c -4.92799,-5.24798 -9.98363,-9.72894 -14.01563,-12.54492 V 706.25 c 4.544,-3.19997 9.21564,-7.42299 14.01563,-12.54297 z m 2.04687,3.00781 c -3.71199,4.224 -6.71881,6.27197 -11.96679,10.75196 5.11999,4.35197 8.1283,6.52646 11.90429,10.81445 h 3.77539 l 9.02344,-10.75195 -9.08789,-10.81446 z m 7.29688,0 7.23242,8.63868 7.29492,-8.63868 z m 18.17578,0 -9.08789,10.81446 9.02344,10.75195 h 4.54492 v -21.56641 z m -10.94336,13.05469 -7.10547,8.51172 h 14.27344 z"
       transform="scale(2.6458334)" />
    <path
       id="use5406"
       style="fill:#ff0000;stroke:none;stroke-width:0.944882"
       d="m 379.6543,679.12305 v 56.69336 h 56.6914 v -56.69336 z m 28.53711,8.5039 c 6.39998,0 14.33593,4.35068 14.33593,19.39063 0,15.23199 -8.32028,20.28906 -14.65625,20.28906 -9.34401,0 -14.39843,-9.21688 -14.39843,-19.71289 0,-12.79997 6.46278,-19.9668 14.71875,-19.9668 z m 0,2.6875 c -2.55999,0 -5.56641,2.43242 -5.56641,17.98438 0,5.43999 -10e-4,16.31836 5.31055,16.31836 2.55998,0 5.5039,-3.45496 5.5039,-18.87891 0,-11.26397 -2.81603,-15.42383 -5.24804,-15.42383 z"
       transform="scale(2.6458334)" />
    <path
       id="use5408"
       style="fill:#ff0000;stroke:none;stroke-width:0.944882"
       d="m 474.14453,679.12305 v 56.69336 h 56.69141 v -56.69336 z m 43.21875,11.28125 c 0.66666,0 1.11459,0.0625 1.34375,0.1875 0.22917,0.125 0.34375,0.28126 0.34375,0.46875 0,0.29168 -0.34375,0.8646 -1.03125,1.71875 -8.04165,9.66667 -15.50001,19.87504 -22.375,30.625 -0.47917,0.75001 -1.45834,1.125 -2.9375,1.125 -1.49999,0 -2.38541,-0.0625 -2.65625,-0.1875 -0.70833,-0.31249 -1.54166,-1.90624 -2.5,-4.78125 -1.08331,-3.18748 -1.625,-5.18751 -1.625,-6 0,-0.87501 0.72918,-1.71876 2.1875,-2.53125 0.89585,-0.50001 1.68751,-0.75 2.375,-0.75 0.8125,0 1.4271,0.66666 1.84375,2 0.83334,2.5 1.42708,3.75 1.78125,3.75 0.27084,0 0.5521,-0.20832 0.84375,-0.625 5.85416,-9.37497 11.27085,-16.95833 16.25,-22.75 1.29167,-1.5 3.34375,-2.25 6.15625,-2.25 z"
       transform="scale(2.6458334)" />
  </g>
</svg>
