<?xml version="1.0" encoding="UTF-8" standalone="no"?>
<svg
   xmlns:dc="http://purl.org/dc/elements/1.1/"
   xmlns:cc="http://creativecommons.org/ns#"
   xmlns:rdf="http://www.w3.org/1999/02/22-rdf-syntax-ns#"
   xmlns:svg="http://www.w3.org/2000/svg"
   xmlns="http://www.w3.org/2000/svg"
   xmlns:sodipodi="http://sodipodi.sourceforge.net/DTD/sodipodi-0.dtd"
   xmlns:inkscape="http://www.inkscape.org/namespaces/inkscape"
   viewBox="0 0 2159.0001 2794"
   width="8.5in"
   version="1.2"
   height="11in"
   id="svg8428"
   sodipodi:docname="silkscreen.svg"
   inkscape:version="1.0.2 (e86c870879, 2021-01-15)">
  <metadata
     id="metadata8432">
    <rdf:RDF>
      <cc:Work
         rdf:about="">
        <dc:title>FreeCAD SVG Export</dc:title>
        <dc:format>image/svg+xml</dc:format>
        <dc:type
           rdf:resource="http://purl.org/dc/dcmitype/StillImage" />
      </cc:Work>
    </rdf:RDF>
  </metadata>
  <sodipodi:namedview
     pagecolor="#ffffff"
     bordercolor="#666666"
     borderopacity="1"
     objecttolerance="10"
     gridtolerance="10"
     guidetolerance="10"
     inkscape:pageopacity="0"
     inkscape:pageshadow="2"
     inkscape:window-width="1600"
     inkscape:window-height="825"
     id="namedview8430"
     showgrid="false"
     inkscape:zoom="0.70710678"
     inkscape:cx="407.99999"
     inkscape:cy="594.69917"
     inkscape:window-x="0"
     inkscape:window-y="0"
     inkscape:window-maximized="1"
     inkscape:current-layer="layer3"
     inkscape:document-rotation="0"
     units="in"
     inkscape:document-units="mm" />
  <title
     id="title2">FreeCAD SVG Export</title>
  <desc
     id="desc4">Drawing page: Page exported from FreeCAD document: Unnamed</desc>
  <defs
     id="defs6" />
  <g
     inkscape:groupmode="layer"
     id="layer2"
     inkscape:label="Cut lines"
     style="display:inline">
    <g
       font-weight="400"
       fill="none"
       font-style="normal"
       stroke="#000000"
       font-size="28.2222px"
       font-family="Cantarell"
       stroke-width="2.5"
       stroke-linecap="round"
       transform="translate(1382.5068,1024.4724)"
       stroke-opacity="1"
       stroke-linejoin="bevel"
       id="g7724"
       style="display:inline;fill-rule:evenodd" />
    <g
       font-weight="400"
       fill="none"
       font-style="normal"
       stroke="#000000"
       font-size="28.2222px"
       font-family="Cantarell"
       stroke-width="2.5"
       stroke-linecap="round"
       transform="translate(1382.5068,1024.4724)"
       stroke-opacity="1"
       stroke-linejoin="bevel"
       id="g7732"
       style="display:inline;fill-rule:evenodd" />
    <g
       font-weight="400"
       fill="none"
       font-style="normal"
       stroke="#000000"
       font-size="28.2222px"
       font-family="Cantarell"
       stroke-width="2.5"
       stroke-linecap="round"
       transform="translate(1382.5068,1024.4724)"
       stroke-opacity="1"
       stroke-linejoin="bevel"
       id="g7736"
       style="display:inline;fill-rule:evenodd" />
    <g
       font-weight="400"
       fill="none"
       font-style="normal"
       stroke="#000000"
       font-size="28.2222px"
       font-family="Cantarell"
       stroke-width="2.5"
       stroke-linecap="round"
       transform="translate(1382.5068,1024.4724)"
       stroke-opacity="1"
       stroke-linejoin="bevel"
       id="g7740"
       style="display:inline;fill-rule:evenodd" />
    <g
       font-weight="400"
       fill="none"
       font-style="normal"
       stroke="#000000"
       font-size="28.2222px"
       font-family="Cantarell"
       stroke-width="2.5"
       stroke-linecap="round"
       transform="translate(1382.5068,1024.4724)"
       stroke-opacity="1"
       stroke-linejoin="bevel"
       id="g7712"
       style="display:inline;fill-rule:evenodd" />
    <g
       font-weight="400"
       fill="none"
       font-style="normal"
       stroke="#000000"
       font-size="28.2222px"
       font-family="Cantarell"
       stroke-width="2.5"
       stroke-linecap="round"
       transform="translate(1382.5068,1024.4724)"
       stroke-opacity="1"
       stroke-linejoin="bevel"
       id="g7744"
       style="display:inline;fill-rule:evenodd" />
    <g
       font-weight="400"
       fill="none"
       font-style="normal"
       stroke="#000000"
       font-size="28.2222px"
       font-family="Cantarell"
       stroke-width="2.5"
       stroke-linecap="round"
       transform="translate(1382.5068,1024.4724)"
       stroke-opacity="1"
       stroke-linejoin="bevel"
       id="g7748"
       style="display:inline;fill-rule:evenodd" />
    <g
       font-weight="400"
       fill="none"
       font-style="normal"
       stroke="#000000"
       font-size="28.2222px"
       font-family="Cantarell"
       stroke-width="2.5"
       stroke-linecap="round"
       transform="translate(1382.5068,1024.4724)"
       stroke-opacity="1"
       stroke-linejoin="bevel"
       id="g7752"
       style="display:inline;fill-rule:evenodd" />
    <g
       font-weight="400"
       fill="none"
       font-style="normal"
       stroke="#000000"
       font-size="28.2222px"
       font-family="Cantarell"
       stroke-width="2.5"
       stroke-linecap="round"
       transform="translate(1382.5068,1024.4724)"
       stroke-opacity="1"
       stroke-linejoin="bevel"
       id="g7756"
       style="display:inline;fill-rule:evenodd" />
    <g
       font-weight="400"
       fill="none"
       font-style="normal"
       stroke="#000000"
       font-size="28.2222px"
       font-family="Cantarell"
       stroke-width="2.5"
       stroke-linecap="round"
       transform="translate(1382.5068,1024.4724)"
       stroke-opacity="1"
       stroke-linejoin="bevel"
       id="g7760"
       style="display:inline;fill-rule:evenodd" />
    <g
       font-weight="400"
       fill="none"
       font-style="normal"
       stroke="#000000"
       font-size="28.2222px"
       font-family="Cantarell"
       stroke-width="2.5"
       stroke-linecap="round"
       transform="translate(1382.5068,1024.4724)"
       stroke-opacity="1"
       stroke-linejoin="bevel"
       id="g7764"
       style="display:inline;fill-rule:evenodd" />
    <g
       font-weight="400"
       fill="none"
       font-style="normal"
       stroke="#000000"
       font-size="28.2222px"
       font-family="Cantarell"
       stroke-width="2.5"
       stroke-linecap="round"
       transform="translate(1382.5068,1024.4724)"
       stroke-opacity="1"
       stroke-linejoin="bevel"
       id="g7768"
       style="display:inline;fill-rule:evenodd" />
    <g
       font-weight="400"
       fill="none"
       font-style="normal"
       stroke="#000000"
       font-size="28.2222px"
       font-family="Cantarell"
       stroke-width="2.5"
       stroke-linecap="round"
       transform="translate(1382.5068,1024.4724)"
       stroke-opacity="1"
       stroke-linejoin="bevel"
       id="g7772"
       style="display:inline;fill-rule:evenodd" />
    <g
       font-weight="400"
       fill="none"
       font-style="normal"
       stroke="#000000"
       font-size="28.2222px"
       font-family="Cantarell"
       stroke-width="2.5"
       stroke-linecap="round"
       transform="translate(1382.5068,1024.4724)"
       stroke-opacity="1"
       stroke-linejoin="bevel"
       id="g7716"
       style="display:inline;fill-rule:evenodd" />
    <g
       font-weight="400"
       fill="none"
       font-style="normal"
       stroke="#000000"
       font-size="28.2222px"
       font-family="Cantarell"
       stroke-width="2.5"
       stroke-linecap="round"
       transform="rotate(90,-158.75001,1238.25)"
       stroke-opacity="1"
       stroke-linejoin="bevel"
       id="g7720"
       style="display:inline;fill-rule:evenodd">
      <path
         id="path7718"
         d="m 958.025,-446.255 c -33.431,-1.966 -62.668,-23.188 -74.898,-54.364 m 77.232,72.629 c 0,-6.163 -0.784,-12.3 -2.334,-18.265 m 2.334,874.245 v -855.98 m -2.334,874.245 c 1.55,-5.965 2.334,-12.102 2.334,-18.265 m -77.232,72.629 c 12.23,-31.176 41.467,-52.398 74.898,-54.364 M 53.4934,500.619 H 883.127 m -936.6204,0 c 30.9543,-25.915 76.0325,-25.915 106.9868,0 m -936.6204,0 H -53.4934 M -958.025,446.255 c 33.431,1.966 62.668,23.188 74.898,54.364 m -77.232,-72.629 c 0,6.163 0.784,12.3 2.334,18.265 m 0,-892.51 c -1.55,5.965 -2.334,12.102 -2.334,18.265 m 0,0 v 855.98 m 77.232,-928.609 c -12.23,31.176 -41.467,52.398 -74.898,54.364 m 904.5316,-54.364 H -883.127 m 1766.254,0 H 53.4934 m 0,0 c -30.9543,25.915 -76.0325,25.915 -106.9868,0" />
    </g>
    <rect
       style="display:inline;fill:none;stroke:#000000;stroke-width:2.5;stroke-miterlimit:4;stroke-dasharray:none"
       id="rect9958-3-3-5-2"
       width="660"
       height="160"
       x="749.5"
       y="640.00092"
       rx="10"
       ry="10" />
  </g>
  <g
     inkscape:groupmode="layer"
     id="layer3"
     inkscape:label="Silkscreen"
     style="display:inline">
    <path
       fill="#0099b0"
       d="m 848.03386,2187.3385 -22.3068,-4.1482 c -0.5428,-0.1018 -1.1372,-0.612 -1.3204,-1.1358 l -6.8376,-15.9523 c -0.2551,-0.4925 -0.2063,-1.266 0.1085,-1.7247 l 12.9969,-18.943 c 0.3107,-0.4559 0.2497,-1.1493 -0.1425,-1.5415 l -16.2332,-16.2331 c -0.3921,-0.3922 -1.0842,-0.456 -1.5401,-0.1425 l -19.2755,13.2275 c -0.4559,0.3135 -1.2375,0.3691 -1.7328,0.1249 l -15.4637,-6.3302 c -0.5252,-0.1737 -1.0367,-0.7612 -1.1399,-1.3054 l -4.2947,-23.0722 c -0.1004,-0.5441 -0.6364,-0.9892 -1.1901,-0.9892 h -22.95954 c -0.55225,0 -1.08824,0.4451 -1.18866,0.9892 l -4.29337,23.0722 c -0.10314,0.5442 -0.61339,1.1317 -1.13984,1.3054 l -15.46515,6.3302 c -0.49666,0.2442 -1.27826,0.1886 -1.73281,-0.1249 l -19.27411,-13.2275 c -0.45729,-0.3135 -1.15069,-0.2497 -1.54149,0.1425 l -16.23453,16.2331 c -0.3908,0.3922 -0.45593,1.0856 -0.14248,1.5415 l 12.99821,18.943 c 0.31209,0.4587 0.36094,1.2322 0.1072,1.7247 l -6.83902,15.9523 c -0.18183,0.5238 -0.77482,1.034 -1.32031,1.1358 l -22.30551,4.1482 c -0.5455,0.1031 -0.98922,0.6377 -0.98922,1.1913 l 0.002,22.9583 c 0,0.5536 0.44508,1.0923 0.98921,1.1914 l 21.75867,4.0491 c 0.54413,0.099 1.12626,0.6161 1.29182,1.1439 l 6.79288,16.9687 c 0.24289,0.4979 0.1859,1.2768 -0.12892,1.7328 l -12.35908,18.0108 c -0.3121,0.4559 -0.24832,1.1506 0.14248,1.5428 l 16.23589,16.2332 c 0.3908,0.3894 1.0842,0.4532 1.54149,0.1424 l 17.69192,-12.1433 c 0.45593,-0.3121 1.21989,-0.3365 1.69619,-0.058 l 7.80243,4.1659 c 0.49393,0.2524 1.07065,0.039 1.28231,-0.4722 l 16.08797,-38.8725 c 0.21305,-0.5116 0,-1.1643 -0.47219,-1.4533 l -1.95267,-1.1955 c -0.36095,-0.2198 -0.85079,-0.5984 -1.23482,-0.9458 -7.04391,-4.5105 -11.71726,-12.4011 -11.71726,-21.3868 0,-14.0227 11.36851,-25.3899 25.38991,-25.3899 14.0213,0 25.3885,11.3672 25.3885,25.3899 0,8.9857 -4.672,16.8763 -11.7172,21.3868 -0.3814,0.3474 -0.8726,0.726 -1.2321,0.9458 l -1.9527,1.1955 c -0.4695,0.289 -0.6839,0.9417 -0.4722,1.4533 l 16.0866,38.8739 c 0.2117,0.5115 0.787,0.7232 1.2823,0.4721 l 7.8025,-4.1658 c 0.4776,-0.2782 1.2402,-0.2551 1.6962,0.058 l 17.6932,12.1433 c 0.4559,0.3107 1.1507,0.247 1.5401,-0.1425 l 16.2359,-16.2332 c 0.3922,-0.3921 0.4559,-1.0869 0.1425,-1.5428 l -12.3605,-18.0108 c -0.312,-0.4559 -0.3704,-1.2348 -0.1275,-1.7328 l 6.7929,-16.9686 c 0.1669,-0.5279 0.7449,-1.0449 1.2905,-1.144 l 21.7586,-4.0491 c 0.5428,-0.099 0.9892,-0.6378 0.9892,-1.1914 l 0.01,-22.9582 c 0,-0.555 -0.4438,-1.0896 -0.9865,-1.1927"
       id="path11289"
       style="fill:#000000;stroke-width:2.64583" />
    <path
       d="m 911.97568,2164.2094 c 18.62665,0 33.72553,15.5222 33.72553,44.0267 0,25.2588 -12.13555,40.0755 -28.2222,40.0755 -17.21554,0 -33.4433,-15.3811 -33.4433,-42.4744 0,-29.6333 13.96998,-41.6278 27.93997,-41.6278 z m 47.27219,41.3456 c 0,-29.21 -20.17888,-46.4256 -45.43774,-46.4256 -27.37554,0 -43.32108,21.8722 -43.32108,49.1067 0,27.7988 20.17887,45.1555 44.16774,45.1555 15.52221,0 28.08109,-6.6322 35.84219,-17.78 5.64444,-7.9022 8.74889,-18.2033 8.74889,-30.0566 z"
       style="font-style:normal;font-variant:normal;font-weight:normal;font-stretch:normal;font-size:141.111px;line-height:125%;font-family:'Linux Libertine O';-inkscape-font-specification:'Linux Libertine O, Normal';font-variant-ligatures:normal;font-variant-caps:normal;font-variant-numeric:normal;font-variant-east-asian:normal;text-align:start;letter-spacing:0px;word-spacing:0px;text-anchor:start;fill:#000000;fill-opacity:1;stroke:none;stroke-width:2.64583px;stroke-linecap:butt;stroke-linejoin:miter;stroke-opacity:1"
       id="path6287" />
    <path
       d="m 989.02224,2205.2727 c 3.66888,-4.5155 10.01888,-8.7489 14.25216,-8.7489 9.0311,0 16.7923,10.16 16.7923,26.1056 0,11.5711 -4.0923,25.9644 -19.8967,25.9644 -2.53999,0 -7.47888,-0.7056 -10.01888,-2.9633 -2.96333,-2.54 -3.38666,-3.2456 -3.38666,-8.4667 v -25.6822 c 0,-2.9633 0.56444,-4.0922 2.25778,-6.2089 z m -2.68111,-5.2211 c -0.28222,-4.2333 -0.56445,-7.7611 -1.12889,-9.3133 -0.42333,-0.5644 -0.56444,-1.1289 -1.69333,-1.1289 -3.95111,1.5522 -7.62,2.8222 -17.35665,4.0922 -0.28223,0.8467 0,3.1045 0.28222,3.9511 7.61999,0.7056 9.17221,1.4111 9.17221,9.5956 v 60.2544 c 0,11.7122 -1.55222,12.4177 -10.15999,12.8411 -0.84667,0.8466 -0.84667,3.81 0,4.6566 4.93888,-0.1411 10.15999,-0.2822 15.80443,-0.2822 5.64444,0 12.41777,0.1411 17.07443,0.2822 0.84667,-0.8466 0.84667,-3.81 0,-4.6566 -10.01888,-0.5645 -11.5711,-1.1289 -11.5711,-12.8411 v -15.24 c 0,-1.8345 0.42333,-1.5522 1.97555,-0.9878 3.38667,1.4111 7.76111,2.1167 12.27669,2.1167 7.9022,0 14.9577,-2.3989 20.7433,-7.9022 6.6322,-6.4911 10.4422,-15.24 10.4422,-26.67 0,-14.9578 -10.5833,-28.7867 -24.9766,-28.7867 -6.6323,0 -13.82892,4.3745 -19.33225,10.5834 -0.84667,0.9877 -1.55222,0.8466 -1.55222,-0.5645 z"
       style="font-style:normal;font-variant:normal;font-weight:normal;font-stretch:normal;font-size:141.111px;line-height:125%;font-family:'Linux Libertine O';-inkscape-font-specification:'Linux Libertine O, Normal';font-variant-ligatures:normal;font-variant-caps:normal;font-variant-numeric:normal;font-variant-east-asian:normal;text-align:start;letter-spacing:0px;word-spacing:0px;text-anchor:start;fill:#000000;fill-opacity:1;stroke:none;stroke-width:2.64583px;stroke-linecap:butt;stroke-linejoin:miter;stroke-opacity:1"
       id="path6289" />
    <path
       d="m 1056.0498,2212.1872 c 2.6811,-15.9456 12.5589,-17.2156 15.9456,-17.2156 5.3622,0 11.7122,2.9634 11.7122,14.8167 0,1.27 -0.5645,1.9755 -2.1167,1.9755 z m 36.9711,26.6699 c -5.2211,5.3623 -9.3133,7.62 -17.4978,7.62 -5.08,0 -11.0066,-2.9633 -15.3811,-10.16 -2.8222,-4.6566 -4.5155,-11.1477 -4.5155,-19.3322 l 37.5355,0.2823 c 1.6933,0 2.6811,-0.8467 2.6811,-2.3989 0,-11.8533 -4.2333,-24.5533 -23.8477,-24.5533 -12.2767,0 -28.2222,11.7122 -28.2222,33.161 0,7.9023 1.9755,15.5223 6.6322,20.8845 4.7978,5.6444 11.43,9.0311 21.59,9.0311 10.7244,0 18.3444,-4.9389 23.9888,-12.2767 -0.4233,-1.4111 -1.27,-2.1166 -2.9633,-2.2578 z"
       style="font-style:normal;font-variant:normal;font-weight:normal;font-stretch:normal;font-size:141.111px;line-height:125%;font-family:'Linux Libertine O';-inkscape-font-specification:'Linux Libertine O, Normal';font-variant-ligatures:normal;font-variant-caps:normal;font-variant-numeric:normal;font-variant-east-asian:normal;text-align:start;letter-spacing:0px;word-spacing:0px;text-anchor:start;fill:#000000;fill-opacity:1;stroke:none;stroke-width:2.64583px;stroke-linecap:butt;stroke-linejoin:miter;stroke-opacity:1"
       id="path6291" />
    <path
       d="m 1127.5929,2201.4627 c -0.9878,0.9878 -1.6933,1.4111 -1.6933,0 -0.1411,-3.81 -0.5645,-9.1722 -1.1289,-10.7244 -0.4234,-0.5644 -0.5645,-1.1289 -1.6934,-1.1289 -3.9511,1.5522 -7.6199,2.8222 -17.3566,4.0922 -0.2822,0.8467 0,3.1045 0.2822,3.9511 7.62,0.7056 9.1722,1.4111 9.1722,9.5956 v 27.5166 c 0,11.5711 -1.4111,12.1356 -9.8777,12.8411 -0.8467,0.8467 -0.8467,3.81 0,4.6567 4.2333,-0.1411 9.8777,-0.2822 15.5222,-0.2822 5.6444,0 9.8777,0.1411 14.1111,0.2822 0.8466,-0.8467 0.8466,-3.81 0,-4.6567 -7.1967,-0.7055 -8.6078,-1.27 -8.6078,-12.8411 v -23.1422 c 0,-2.9633 1.27,-4.6566 2.3989,-5.9266 5.3622,-5.2211 11.7122,-8.3256 17.2155,-8.3256 2.8223,0 5.7856,1.8345 7.4789,5.08 1.4111,2.8222 1.6933,6.6322 1.6933,10.8656 v 21.4488 c 0,11.5711 -1.4111,12.1356 -8.7488,12.8411 -0.7056,0.8467 -0.7056,3.81 0,4.6567 4.2333,-0.1411 8.7488,-0.2822 14.3933,-0.2822 5.6444,0 10.7244,0.1411 14.9578,0.2822 0.7055,-0.8467 0.7055,-3.81 0,-4.6567 -7.9023,-0.7055 -9.4545,-1.27 -9.4545,-12.8411 v -21.0255 c 0,-7.7611 -0.5644,-14.5344 -3.81,-18.9089 -2.3989,-3.1044 -6.7733,-4.7978 -11.7122,-4.7978 -6.9144,0 -14.8166,1.8345 -23.1422,11.43 z"
       style="font-style:normal;font-variant:normal;font-weight:normal;font-stretch:normal;font-size:141.111px;line-height:125%;font-family:'Linux Libertine O';-inkscape-font-specification:'Linux Libertine O, Normal';font-variant-ligatures:normal;font-variant-caps:normal;font-variant-numeric:normal;font-variant-east-asian:normal;text-align:start;letter-spacing:0px;word-spacing:0px;text-anchor:start;fill:#000000;fill-opacity:1;stroke:none;stroke-width:2.64583px;stroke-linecap:butt;stroke-linejoin:miter;stroke-opacity:1"
       id="path6293" />
    <path
       d="m 1217.7628,2201.0394 h -12.8411 v -25.4 c 0,-6.2089 1.6933,-9.0311 9.3133,-9.0311 h 10.5833 c 10.5834,0 12.8411,5.6445 15.9456,15.3811 1.6933,0.2822 3.2455,0 4.6566,-0.7055 -0.7055,-5.7856 -2.8222,-19.3322 -3.1044,-20.4611 0,-0.2823 -0.1411,-0.4234 -0.5644,-0.4234 -2.3989,0.4234 -3.5278,0.5645 -6.9145,0.5645 h -35.9833 c -4.3744,0 -12.5589,-0.1411 -18.2033,-0.2822 -0.8467,0.8466 -0.8467,3.81 0,4.6566 9.8778,0.4234 12.2766,1.1289 12.2766,12.8411 v 56.5855 c 0,11.7122 -2.3988,12.4178 -12.2766,12.8411 -0.8467,0.8467 -0.8467,3.81 0,4.6567 5.2211,-0.1411 13.6878,-0.2822 18.3444,-0.2822 h 30.3389 c 6.7733,0 18.0622,0.2822 18.0622,0.2822 1.9755,-7.0556 4.0922,-16.3689 5.2211,-23.5655 -1.5522,-0.7056 -3.1044,-1.1289 -4.9389,-0.7056 -2.8222,10.16 -7.7611,18.4855 -18.4855,18.4855 h -16.3689 c -5.9267,0 -7.9022,-2.2577 -7.9022,-8.89 v -31.1855 h 12.8411 c 11.9944,0 12.4178,3.2456 12.8411,9.5956 0.8467,0.8466 3.81,0.8466 4.6566,0 -0.1411,-3.6689 -0.2822,-7.4789 -0.2822,-12.4178 0,-3.9511 0.1411,-8.7489 0.2822,-12.1355 -0.8466,-0.8467 -3.8099,-0.8467 -4.6566,0 -0.4233,7.7611 -0.8467,9.5955 -12.8411,9.5955 z"
       style="font-style:normal;font-variant:normal;font-weight:normal;font-stretch:normal;font-size:141.111px;line-height:125%;font-family:'Linux Libertine O';-inkscape-font-specification:'Linux Libertine O, Normal';font-variant-ligatures:normal;font-variant-caps:normal;font-variant-numeric:normal;font-variant-east-asian:normal;text-align:start;letter-spacing:0px;word-spacing:0px;text-anchor:start;fill:#000000;fill-opacity:1;stroke:none;stroke-width:2.64583px;stroke-linecap:butt;stroke-linejoin:miter;stroke-opacity:1"
       id="path6295" />
    <path
       d="m 1319.927,2165.3383 c 10.4423,0.7056 10.4423,4.5156 7.4789,12.1356 l -22.2955,56.5855 h -0.7056 l -22.4366,-57.4322 c -3.2456,-8.3255 -2.3989,-10.3011 7.1966,-11.2889 0.8467,-0.8466 0.8467,-3.81 0,-4.6566 -5.6444,0.1411 -11.9944,0.2822 -17.0744,0.2822 -5.2211,0 -10.0189,-0.1411 -14.6755,-0.2822 -0.8467,0.8466 -0.7056,3.81 0.1411,4.6566 7.7611,0.7056 8.7489,3.1045 12.5589,12.8411 l 27.9399,72.2488 c 0.8467,2.2578 1.8345,3.2456 3.2456,3.2456 1.5522,0 2.54,-1.1289 3.3867,-3.2456 l 29.0688,-71.9666 c 2.6811,-6.6322 5.08,-12.1355 13.97,-13.1233 0.8467,-0.8466 0.8467,-3.81 0,-4.6566 -4.2333,0.1411 -9.1722,0.2822 -12.4178,0.2822 -3.2455,0 -9.5955,-0.1411 -15.3811,-0.2822 -0.8466,0.8466 -0.8466,3.81 0,4.6566 z"
       style="font-style:normal;font-variant:normal;font-weight:normal;font-stretch:normal;font-size:141.111px;line-height:125%;font-family:'Linux Libertine O';-inkscape-font-specification:'Linux Libertine O, Normal';font-variant-ligatures:normal;font-variant-caps:normal;font-variant-numeric:normal;font-variant-east-asian:normal;text-align:start;letter-spacing:0px;word-spacing:0px;text-anchor:start;fill:#000000;fill-opacity:1;stroke:none;stroke-width:2.64583px;stroke-linecap:butt;stroke-linejoin:miter;stroke-opacity:1"
       id="path6297" />
    <path
       d="m 1404.3112,2162.9394 c -8.1844,-1.1289 -7.7611,-3.81 -21.59,-3.81 -14.2522,0 -26.8111,9.4545 -26.8111,24.4122 0,14.9578 12.1356,21.7311 24.5533,26.3878 8.6078,3.3867 19.05,7.3378 19.05,21.0255 0,11.43 -6.4911,17.3567 -17.6388,17.3567 -13.2645,0 -21.7311,-5.9267 -24.8356,-20.0378 -1.6933,-0.5644 -3.2455,-0.2822 -4.5155,0.4234 0.5644,10.8655 1.1289,14.5344 2.8222,21.4488 8.89,0 12.7,3.2456 25.2589,3.2456 6.4911,0 12.5588,-1.5522 17.4977,-4.5156 8.0433,-5.08 13.2645,-13.8289 13.2645,-22.86 0,-14.9577 -11.43,-21.5899 -23.0011,-25.8233 -8.3256,-3.2455 -22.4367,-8.4666 -22.4367,-20.4611 0,-7.9022 7.1967,-15.8044 15.3811,-15.8044 13.8289,0 18.2033,8.7489 21.0255,18.0622 1.4112,0.2822 3.2456,0.1411 4.5156,-0.8466 -0.4233,-6.7734 -0.9878,-10.7245 -2.54,-18.2034 z"
       style="font-style:normal;font-variant:normal;font-weight:normal;font-stretch:normal;font-size:141.111px;line-height:125%;font-family:'Linux Libertine O';-inkscape-font-specification:'Linux Libertine O, Normal';font-variant-ligatures:normal;font-variant-caps:normal;font-variant-numeric:normal;font-variant-east-asian:normal;text-align:start;letter-spacing:0px;word-spacing:0px;text-anchor:start;fill:#000000;fill-opacity:1;stroke:none;stroke-width:2.64583px;stroke-linecap:butt;stroke-linejoin:miter;stroke-opacity:1"
       id="path6299" />
    <path
       d="m 1456.8043,2201.0394 h -12.8411 v -25.4 c 0,-6.2089 1.6933,-9.0311 9.3133,-9.0311 h 10.5833 c 10.5834,0 12.8411,5.6445 15.9456,15.3811 1.6933,0.2822 3.2455,0 4.6566,-0.7055 -0.7055,-5.7856 -2.8222,-19.3322 -3.1044,-20.4611 0,-0.2823 -0.1411,-0.4234 -0.5644,-0.4234 -2.3989,0.4234 -3.5278,0.5645 -6.9145,0.5645 h -35.9833 c -4.3744,0 -12.5589,-0.1411 -18.2033,-0.2822 -0.8467,0.8466 -0.8467,3.81 0,4.6566 9.8778,0.4234 12.2767,1.1289 12.2767,12.8411 v 56.5855 c 0,11.7122 -2.3989,12.4178 -12.2767,12.8411 -0.8467,0.8467 -0.8467,3.81 0,4.6567 5.2211,-0.1411 13.6878,-0.2822 18.3444,-0.2822 h 30.3389 c 6.7733,0 18.0622,0.2822 18.0622,0.2822 1.9756,-7.0556 4.0922,-16.3689 5.2211,-23.5655 -1.5522,-0.7056 -3.1044,-1.1289 -4.9389,-0.7056 -2.8222,10.16 -7.7611,18.4855 -18.4855,18.4855 h -16.3689 c -5.9267,0 -7.9022,-2.2577 -7.9022,-8.89 v -31.1855 h 12.8411 c 11.9944,0 12.4178,3.2456 12.8411,9.5956 0.8467,0.8466 3.81,0.8466 4.6567,0 -0.1412,-3.6689 -0.2823,-7.4789 -0.2823,-12.4178 0,-3.9511 0.1411,-8.7489 0.2823,-12.1355 -0.8467,-0.8467 -3.81,-0.8467 -4.6567,0 -0.4233,7.7611 -0.8467,9.5955 -12.8411,9.5955 z"
       style="font-style:normal;font-variant:normal;font-weight:normal;font-stretch:normal;font-size:141.111px;line-height:125%;font-family:'Linux Libertine O';-inkscape-font-specification:'Linux Libertine O, Normal';font-variant-ligatures:normal;font-variant-caps:normal;font-variant-numeric:normal;font-variant-east-asian:normal;text-align:start;letter-spacing:0px;word-spacing:0px;text-anchor:start;fill:#000000;fill-opacity:1;stroke:none;stroke-width:2.64583px;stroke-linecap:butt;stroke-linejoin:miter;stroke-opacity:1"
       id="path6301" />
    <g
       id="g10094"
       transform="translate(2.4999999e-5,-100.47977)"
       style="display:inline">
      <rect
         style="fill:none;stroke:#000000;stroke-width:2.5;stroke-miterlimit:4;stroke-dasharray:none"
         id="rect10034"
         width="750"
         height="1000"
         x="704.5"
         y="1097.3174" />
      <rect
         style="fill:none;stroke:#000000;stroke-width:2.5;stroke-miterlimit:4;stroke-dasharray:none"
         id="rect10036"
         width="250"
         height="1000"
         x="954.5"
         y="1097.3174" />
      <path
         style="fill:none;stroke:#000000;stroke-width:2.5;stroke-miterlimit:4;stroke-dasharray:none"
         d="m 704.5,1347.3174 h 750"
         id="path10038"
         sodipodi:nodetypes="cc" />
      <path
         style="fill:none;stroke:#000000;stroke-width:2.5;stroke-miterlimit:4;stroke-dasharray:none"
         d="m 704.5,1847.3175 h 750"
         id="path10038-5"
         sodipodi:nodetypes="cc" />
      <path
         style="fill:none;stroke:#000000;stroke-width:2.5;stroke-miterlimit:4;stroke-dasharray:none"
         d="m 704.5,1597.3174 h 750"
         id="path10038-6"
         sodipodi:nodetypes="cc" />
      <path
         style="fill:none;stroke:#000000;stroke-width:2.5;stroke-miterlimit:4;stroke-dasharray:none"
         d="m 704.5,1097.3174 h 750"
         id="path10038-2"
         sodipodi:nodetypes="cc" />
      <path
         style="fill:none;stroke:#000000;stroke-width:2.5;stroke-miterlimit:4;stroke-dasharray:none"
         d="m 704.5,2097.3174 h 750"
         id="path10038-9"
         sodipodi:nodetypes="cc" />
    </g>
    <path
       d="m 772.1101,1959.3116 c 0,-1.4323 0.24695,-2.1238 3.45723,-2.1238 2.27189,0 5.03766,0.889 5.03766,5.7291 0,3.9512 -2.2225,5.581 -5.72911,5.581 h -2.76578 z m 0,11.2606 h 3.50661 c 5.08706,0 7.30956,3.0127 7.30956,7.2602 0,2.9633 -1.03716,7.2602 -7.5565,7.2602 -2.96333,0 -3.25967,-0.7409 -3.25967,-2.1732 z m -3.40783,-15.3599 c -1.97556,0 -7.60589,-0.099 -7.60589,-0.099 -0.49389,0.2963 -0.49389,1.3829 0,1.6792 2.71639,0.1482 4.09928,0.3457 4.09928,4.445 v 19.805 c 0,4.0992 -1.38289,4.2968 -4.09928,4.445 -0.49389,0.2963 -0.49389,1.3829 0,1.6792 0,0 5.63033,-0.099 7.60589,-0.099 1.97555,0 5.13644,0.099 8.09978,0.099 10.12472,0 13.38439,-4.2475 13.38439,-9.2851 0,-4.3462 -2.17311,-7.1614 -7.40833,-8.5443 v -0.099 c 2.667,-1.1853 4.74133,-3.9017 4.74133,-6.4205 0,-3.4079 -1.87678,-7.7047 -11.80395,-7.7047 -2.46944,0 -5.48217,0.099 -7.01322,0.099 z"
       id="path6323"
       style="font-style:normal;font-variant:normal;font-weight:bold;font-stretch:normal;font-size:49.3889px;line-height:125%;font-family:'Linux Libertine O';-inkscape-font-specification:'Linux Libertine O, Bold';font-variant-ligatures:normal;font-variant-caps:normal;font-variant-numeric:normal;font-variant-east-asian:normal;text-align:center;letter-spacing:0px;word-spacing:0px;text-anchor:middle;fill:#000000;fill-opacity:1;stroke:none;stroke-width:2.64583px;stroke-linecap:butt;stroke-linejoin:miter;stroke-opacity:1" />
    <path
       d="m 805.94147,1973.0911 c -1.08656,0 -1.43228,-0.1482 -1.28411,-0.6421 l 4.39561,-11.0631 h 0.34572 l 4.04989,11.7052 z m -5.334,10.0753 2.61761,-6.8651 c 0.24694,-0.642 0.54328,-0.8396 1.72861,-0.8396 h 9.38389 l 2.76578,8.0504 c 0.69144,2.025 -1.3335,1.8274 -3.65478,1.9756 -0.29633,0.2963 -0.29633,1.3829 0,1.6792 1.82739,-0.049 6.51933,-0.099 8.4455,-0.099 2.02495,0 4.79073,0.049 6.61811,0.099 0.29634,-0.2963 0.29634,-1.3829 0,-1.6792 -1.92616,-0.1482 -3.556,-0.1482 -4.445,-2.667 l -10.17411,-28.2505 c -0.74083,0.4445 -3.70417,2.1731 -5.48217,2.1731 l -10.668,25.2871 c -1.28411,3.0622 -2.81517,3.3091 -4.93889,3.4573 -0.29633,0.2963 -0.29633,1.3829 0,1.6792 1.82739,-0.049 2.71639,-0.099 4.64256,-0.099 2.02494,0 4.74133,0.049 6.56872,0.099 0.29633,-0.2963 0.29633,-1.3829 0,-1.6792 -1.87678,-0.099 -4.19806,-0.2964 -3.40783,-2.3213 z"
       id="path6325"
       style="font-style:normal;font-variant:normal;font-weight:bold;font-stretch:normal;font-size:49.3889px;line-height:125%;font-family:'Linux Libertine O';-inkscape-font-specification:'Linux Libertine O, Bold';font-variant-ligatures:normal;font-variant-caps:normal;font-variant-numeric:normal;font-variant-east-asian:normal;text-align:center;letter-spacing:0px;word-spacing:0px;text-anchor:middle;fill:#000000;fill-opacity:1;stroke:none;stroke-width:2.64583px;stroke-linecap:butt;stroke-linejoin:miter;stroke-opacity:1" />
    <path
       d="m 846.93422,1987.562 c 4.79072,0 9.18634,-2.2719 12.54478,-6.6675 -0.24694,-0.4445 -1.08655,-1.0372 -1.62983,-1.0372 -3.50661,3.8524 -7.50712,5.1365 -10.96434,5.1365 -5.72911,0 -10.27289,-6.7169 -10.27289,-14.4216 0,-7.6553 3.95111,-13.977 9.82839,-13.977 6.81567,0 9.03817,3.8523 10.32228,8.0997 0.59267,0.1976 1.53106,0.049 2.12372,-0.2469 -0.24694,-2.5682 -0.64205,-4.9389 -1.08655,-7.6553 -2.51883,-0.2469 -4.74134,-2.2225 -10.81617,-2.2225 -9.68022,0 -17.82939,6.0749 -17.82939,16.9404 0,4.6426 1.97555,10.1247 5.97605,12.9399 3.16089,2.2719 7.01323,3.1115 11.80395,3.1115 z"
       id="path6327"
       style="font-style:normal;font-variant:normal;font-weight:bold;font-stretch:normal;font-size:49.3889px;line-height:125%;font-family:'Linux Libertine O';-inkscape-font-specification:'Linux Libertine O, Bold';font-variant-ligatures:normal;font-variant-caps:normal;font-variant-numeric:normal;font-variant-east-asian:normal;text-align:center;letter-spacing:0px;word-spacing:0px;text-anchor:middle;fill:#000000;fill-opacity:1;stroke:none;stroke-width:2.64583px;stroke-linecap:butt;stroke-linejoin:miter;stroke-opacity:1" />
    <path
       d="m 867.52937,1961.2377 v 19.805 c 0,4.0992 -1.38289,4.2968 -4.09928,4.445 -0.49389,0.2963 -0.49389,1.3829 0,1.6792 1.97555,-0.049 5.63033,-0.099 7.60589,-0.099 1.97555,0 5.53156,0.049 7.50711,0.099 0.49389,-0.2963 0.49389,-1.3829 0,-1.6792 -2.71639,-0.1482 -4.09928,-0.3458 -4.09928,-4.445 v -9.6803 c 1.48167,0.3458 2.17311,1.0372 3.21028,2.3213 l 7.45773,9.7296 c 0.98777,1.2841 1.67922,2.667 1.778,3.4573 0,0.1481 0.0494,0.2963 0.24694,0.2963 0.98778,-0.049 3.60539,-0.099 5.08706,-0.099 1.92616,0 3.90172,0.049 5.82789,0.099 0.29633,-0.2963 0.29633,-1.3829 0,-1.6792 -1.48167,-0.1976 -2.61761,-0.5433 -3.85234,-2.0744 l -10.81617,-12.7917 c -0.889,-0.9878 -1.48166,-1.8274 -1.48166,-2.2225 0,-0.3457 0.0494,-0.9384 0.59266,-1.4323 l 5.38339,-4.7907 c 2.86456,-2.5682 5.63034,-4.9389 8.59367,-5.3834 0.29634,-0.2963 0.29634,-1.3829 0,-1.6792 -1.23472,0.049 -3.01272,0.099 -4.69194,0.099 -1.97556,0 -4.24745,-0.049 -6.07484,-0.099 -0.29633,0.2963 -0.29633,1.3829 0,1.6792 2.86456,0.2964 2.71639,1.8274 0.24695,4.3462 -1.58045,1.5805 -5.28462,4.692 -5.28462,4.692 -3.25966,2.8645 -4.59316,3.8523 -6.223,4.3956 v -8.9888 c 0,-4.0993 1.38289,-4.2968 4.09928,-4.445 0.49389,-0.2963 0.49389,-1.3829 0,-1.6792 -1.97555,0.049 -5.53156,0.099 -7.50711,0.099 -1.97556,0 -5.63034,-0.049 -7.60589,-0.099 -0.49389,0.2963 -0.49389,1.3829 0,1.6792 2.71639,0.1482 4.09928,0.3457 4.09928,4.445 z"
       id="path6329"
       style="font-style:normal;font-variant:normal;font-weight:bold;font-stretch:normal;font-size:49.3889px;line-height:125%;font-family:'Linux Libertine O';-inkscape-font-specification:'Linux Libertine O, Bold';font-variant-ligatures:normal;font-variant-caps:normal;font-variant-numeric:normal;font-variant-east-asian:normal;text-align:center;letter-spacing:0px;word-spacing:0px;text-anchor:middle;fill:#000000;fill-opacity:1;stroke:none;stroke-width:2.64583px;stroke-linecap:butt;stroke-linejoin:miter;stroke-opacity:1" />
    <path
       d="m 1270.3817,1955.9037 c -2.7164,-0.3951 -3.7536,-1.3335 -8.3468,-1.3335 -2.2719,0 -5.1858,0.7409 -7.2108,2.3707 -1.8767,1.4817 -3.2102,3.8029 -3.2102,6.1736 0,1.9262 0.4939,4.2474 1.6298,5.7291 2.2719,3.0621 6.3712,4.7907 8.4949,6.223 2.2719,1.5805 4.4944,3.556 4.4944,6.3218 0,2.4694 -2.1237,4.0993 -5.1365,4.0993 -3.309,0 -6.7169,-2.7164 -7.7046,-7.2108 -0.8396,-0.2963 -1.6793,-0.049 -2.4695,0.1482 0,3.7041 0.3951,6.3217 0.9384,8.1491 2.8152,0 2.914,0.9878 9.779,0.9878 3.0127,0 5.3834,-0.8396 7.4577,-2.667 1.7287,-1.5804 3.3585,-3.8523 3.3585,-6.9144 0,-2.5683 -1.136,-4.2969 -2.5682,-5.9267 -1.9262,-2.1237 -4.692,-3.6548 -6.6181,-4.6426 -1.9756,-0.9877 -5.4822,-3.556 -5.4822,-6.3711 0,-2.7658 1.6298,-4.445 4.198,-4.445 4.1981,0 5.581,3.8029 6.47,7.0626 0.6914,0.1975 1.9262,0.1975 2.4694,-0.247 0,-2.6176 -0.1975,-4.6425 -0.5432,-7.5071 z"
       id="path6312"
       style="font-style:normal;font-variant:normal;font-weight:bold;font-stretch:normal;font-size:49.3889px;line-height:125%;font-family:'Linux Libertine O';-inkscape-font-specification:'Linux Libertine O, Bold';font-variant-ligatures:normal;font-variant-caps:normal;font-variant-numeric:normal;font-variant-east-asian:normal;text-align:center;letter-spacing:0px;word-spacing:0px;text-anchor:middle;fill:#000000;fill-opacity:1;stroke:none;stroke-width:2.64583px;stroke-linecap:butt;stroke-linejoin:miter;stroke-opacity:1" />
    <path
       d="m 1294.4834,1980.9933 v -18.7678 c 0,-3.1609 0.4939,-4.9883 2.2719,-4.9883 h 1.0866 c 3.7041,0 5.7785,1.2347 6.6181,5.0377 0.5433,0 1.4816,-0.049 1.9261,-0.247 -0.3457,-2.2718 -0.5926,-4.8401 -0.642,-7.0626 0,-0.049 -0.099,-0.1481 -0.1482,-0.1481 -1.6792,0.1481 -7.1614,0.3951 -11.0631,0.3951 h -6.9638 c -3.803,0 -9.6309,-0.247 -11.5076,-0.3951 -0.099,0 -0.1976,0.099 -0.1976,0.1481 -0.1975,2.2225 -0.6914,4.8401 -1.2347,7.2108 0.4939,0.1976 1.3335,0.247 1.9262,0.247 0.9877,-3.9512 3.0127,-5.1859 6.2723,-5.1859 h 2.4201 c 1.8274,0 2.3213,1.8274 2.3213,4.8401 v 18.916 c 0,4.0993 -0.8396,4.3462 -4.7907,4.4944 -0.2964,0.2963 -0.2964,1.3829 0,1.6792 2.42,-0.049 4.9388,-0.099 8.1491,-0.099 3.2103,0 5.8773,0.049 8.3467,0.099 0.2964,-0.2963 0.2964,-1.3829 0,-1.6792 -3.9511,-0.1482 -4.7907,-0.3951 -4.7907,-4.4944 z"
       id="path6314"
       style="font-style:normal;font-variant:normal;font-weight:bold;font-stretch:normal;font-size:49.3889px;line-height:125%;font-family:'Linux Libertine O';-inkscape-font-specification:'Linux Libertine O, Bold';font-variant-ligatures:normal;font-variant-caps:normal;font-variant-numeric:normal;font-variant-east-asian:normal;text-align:center;letter-spacing:0px;word-spacing:0px;text-anchor:middle;fill:#000000;fill-opacity:1;stroke:none;stroke-width:2.64583px;stroke-linecap:butt;stroke-linejoin:miter;stroke-opacity:1" />
    <path
       d="m 1317.7454,1973.0911 c -1.0865,0 -1.4322,-0.1482 -1.2841,-0.6421 l 4.3956,-11.0631 h 0.3458 l 4.0499,11.7052 z m -5.334,10.0753 2.6176,-6.8651 c 0.247,-0.642 0.5433,-0.8396 1.7287,-0.8396 h 9.3839 l 2.7657,8.0504 c 0.6915,2.025 -1.3335,1.8274 -3.6547,1.9756 -0.2964,0.2963 -0.2964,1.3829 0,1.6792 1.8273,-0.049 6.5193,-0.099 8.4455,-0.099 2.0249,0 4.7907,0.049 6.6181,0.099 0.2963,-0.2963 0.2963,-1.3829 0,-1.6792 -1.9262,-0.1482 -3.556,-0.1482 -4.445,-2.667 l -10.1741,-28.2505 c -0.7409,0.4445 -3.7042,2.1731 -5.4822,2.1731 l -10.668,25.2871 c -1.2841,3.0622 -2.8152,3.3091 -4.9389,3.4573 -0.2963,0.2963 -0.2963,1.3829 0,1.6792 1.8274,-0.049 2.7164,-0.099 4.6425,-0.099 2.025,0 4.7414,0.049 6.5688,0.099 0.2963,-0.2963 0.2963,-1.3829 0,-1.6792 -1.8768,-0.099 -4.1981,-0.2964 -3.4079,-2.3213 z"
       id="path6316"
       style="font-style:normal;font-variant:normal;font-weight:bold;font-stretch:normal;font-size:49.3889px;line-height:125%;font-family:'Linux Libertine O';-inkscape-font-specification:'Linux Libertine O, Bold';font-variant-ligatures:normal;font-variant-caps:normal;font-variant-numeric:normal;font-variant-east-asian:normal;text-align:center;letter-spacing:0px;word-spacing:0px;text-anchor:middle;fill:#000000;fill-opacity:1;stroke:none;stroke-width:2.64583px;stroke-linecap:butt;stroke-linejoin:miter;stroke-opacity:1" />
    <path
       d="m 1363.282,1964.0035 c 0,6.0748 -3.6548,7.0132 -7.8035,7.0132 h -2.1237 v -9.8284 c 0,-3.3584 1.136,-4.3956 3.7536,-4.3956 2.8645,0 6.1736,1.1854 6.1736,7.2108 z m -4.5932,-9.2357 c -1.9755,0 -14.3721,0.3457 -16.3477,0.3457 -0.4939,0.2963 -0.4939,1.3829 0,1.6792 2.7164,0.1482 4.0993,0.3457 4.0993,4.445 v 19.805 c 0,4.0992 -1.3829,4.2968 -4.0993,4.445 -0.4939,0.2963 -0.4939,1.3829 0,1.6792 1.9756,-0.049 5.6303,-0.099 7.6059,-0.099 1.9755,0 5.5315,0.049 7.5071,0.099 0.4939,-0.2963 0.4939,-1.3829 0,-1.6792 -2.7164,-0.1482 -4.0993,-0.3458 -4.0993,-4.445 v -7.9516 c 3.9017,0.049 4.3462,0.3951 5.0377,1.4816 l 5.7785,8.5937 c 1.531,2.2225 3.556,4.3956 6.5193,4.3956 1.9756,0 4.5438,-0.1482 5.0377,-0.3951 0.1482,-0.2963 0.1482,-1.2841 -0.049,-1.6792 -2.2225,0 -3.3584,-1.1854 -4.7413,-3.2597 l -6.7169,-10.3717 c 2.667,-1.0865 6.5193,-3.6547 6.5193,-8.6924 0,-1.9756 -0.7408,-4.9389 -3.8029,-6.7663 -1.8274,-1.0372 -4.5438,-1.6298 -8.248,-1.6298 z"
       id="path6318"
       style="font-style:normal;font-variant:normal;font-weight:bold;font-stretch:normal;font-size:49.3889px;line-height:125%;font-family:'Linux Libertine O';-inkscape-font-specification:'Linux Libertine O, Bold';font-variant-ligatures:normal;font-variant-caps:normal;font-variant-numeric:normal;font-variant-east-asian:normal;text-align:center;letter-spacing:0px;word-spacing:0px;text-anchor:middle;fill:#000000;fill-opacity:1;stroke:none;stroke-width:2.64583px;stroke-linecap:butt;stroke-linejoin:miter;stroke-opacity:1" />
    <path
       d="m 1396.175,1980.9933 v -18.7678 c 0,-3.1609 0.4939,-4.9883 2.2719,-4.9883 h 1.0865 c 3.7042,0 5.7785,1.2347 6.6181,5.0377 0.5433,0 1.4817,-0.049 1.9262,-0.247 -0.3457,-2.2718 -0.5927,-4.8401 -0.642,-7.0626 0,-0.049 -0.099,-0.1481 -0.1482,-0.1481 -1.6792,0.1481 -7.1614,0.3951 -11.0631,0.3951 h -6.9639 c -3.8029,0 -9.6308,-0.247 -11.5076,-0.3951 -0.099,0 -0.1975,0.099 -0.1975,0.1481 -0.1976,2.2225 -0.6915,4.8401 -1.2348,7.2108 0.4939,0.1976 1.3335,0.247 1.9262,0.247 0.9878,-3.9512 3.0127,-5.1859 6.2724,-5.1859 h 2.4201 c 1.8274,0 2.3212,1.8274 2.3212,4.8401 v 18.916 c 0,4.0993 -0.8396,4.3462 -4.7907,4.4944 -0.2963,0.2963 -0.2963,1.3829 0,1.6792 2.4201,-0.049 4.9389,-0.099 8.1492,-0.099 3.2103,0 5.8773,0.049 8.3467,0.099 0.2963,-0.2963 0.2963,-1.3829 0,-1.6792 -3.9511,-0.1482 -4.7907,-0.3951 -4.7907,-4.4944 z"
       id="path6320"
       style="font-style:normal;font-variant:normal;font-weight:bold;font-stretch:normal;font-size:49.3889px;line-height:125%;font-family:'Linux Libertine O';-inkscape-font-specification:'Linux Libertine O, Bold';font-variant-ligatures:normal;font-variant-caps:normal;font-variant-numeric:normal;font-variant-east-asian:normal;text-align:center;letter-spacing:0px;word-spacing:0px;text-anchor:middle;fill:#000000;fill-opacity:1;stroke:none;stroke-width:2.64583px;stroke-linecap:butt;stroke-linejoin:miter;stroke-opacity:1" />
  </g>
</svg>
