<?xml version="1.0" encoding="UTF-8" standalone="no"?>
<svg
   xmlns:dc="http://purl.org/dc/elements/1.1/"
   xmlns:cc="http://creativecommons.org/ns#"
   xmlns:rdf="http://www.w3.org/1999/02/22-rdf-syntax-ns#"
   xmlns:svg="http://www.w3.org/2000/svg"
   xmlns="http://www.w3.org/2000/svg"
   xmlns:sodipodi="http://sodipodi.sourceforge.net/DTD/sodipodi-0.dtd"
   xmlns:inkscape="http://www.inkscape.org/namespaces/inkscape"
   viewBox="0 0 2159.0001 2794"
   width="8.5in"
   version="1.2"
   height="11in"
   id="svg8428"
   sodipodi:docname="soldermask.svg"
   inkscape:version="1.0.2 (e86c870879, 2021-01-15)">
  <metadata
     id="metadata8432">
    <rdf:RDF>
      <cc:Work
         rdf:about="">
        <dc:title>FreeCAD SVG Export</dc:title>
        <dc:format>image/svg+xml</dc:format>
        <dc:type
           rdf:resource="http://purl.org/dc/dcmitype/StillImage" />
      </cc:Work>
    </rdf:RDF>
  </metadata>
  <sodipodi:namedview
     pagecolor="#ffffff"
     bordercolor="#666666"
     borderopacity="1"
     objecttolerance="10"
     gridtolerance="10"
     guidetolerance="10"
     inkscape:pageopacity="0"
     inkscape:pageshadow="2"
     inkscape:window-width="1600"
     inkscape:window-height="825"
     id="namedview8430"
     showgrid="false"
     inkscape:zoom="0.70710678"
     inkscape:cx="407.99999"
     inkscape:cy="485.33332"
     inkscape:window-x="0"
     inkscape:window-y="0"
     inkscape:window-maximized="1"
     inkscape:current-layer="layer9"
     inkscape:document-rotation="0"
     units="in"
     inkscape:document-units="mm" />
  <title
     id="title2">FreeCAD SVG Export</title>
  <desc
     id="desc4">Drawing page: Page exported from FreeCAD document: Unnamed</desc>
  <defs
     id="defs6" />
  <g
     inkscape:groupmode="layer"
     id="layer2"
     inkscape:label="Cut lines"
     style="display:inline"
     sodipodi:insensitive="true">
    <g
       font-weight="400"
       fill="none"
       font-style="normal"
       stroke="#000000"
       font-size="28.2222px"
       font-family="Cantarell"
       stroke-width="2.5"
       stroke-linecap="round"
       transform="translate(1382.5068,1024.4724)"
       stroke-opacity="1"
       stroke-linejoin="bevel"
       id="g7724"
       style="display:inline;fill-rule:evenodd" />
    <g
       font-weight="400"
       fill="none"
       font-style="normal"
       stroke="#000000"
       font-size="28.2222px"
       font-family="Cantarell"
       stroke-width="2.5"
       stroke-linecap="round"
       transform="translate(1382.5068,1024.4724)"
       stroke-opacity="1"
       stroke-linejoin="bevel"
       id="g7732"
       style="display:inline;fill-rule:evenodd" />
    <g
       font-weight="400"
       fill="none"
       font-style="normal"
       stroke="#000000"
       font-size="28.2222px"
       font-family="Cantarell"
       stroke-width="2.5"
       stroke-linecap="round"
       transform="translate(1382.5068,1024.4724)"
       stroke-opacity="1"
       stroke-linejoin="bevel"
       id="g7736"
       style="display:inline;fill-rule:evenodd" />
    <g
       font-weight="400"
       fill="none"
       font-style="normal"
       stroke="#000000"
       font-size="28.2222px"
       font-family="Cantarell"
       stroke-width="2.5"
       stroke-linecap="round"
       transform="translate(1382.5068,1024.4724)"
       stroke-opacity="1"
       stroke-linejoin="bevel"
       id="g7740"
       style="display:inline;fill-rule:evenodd" />
    <g
       font-weight="400"
       fill="none"
       font-style="normal"
       stroke="#000000"
       font-size="28.2222px"
       font-family="Cantarell"
       stroke-width="2.5"
       stroke-linecap="round"
       transform="translate(1382.5068,1024.4724)"
       stroke-opacity="1"
       stroke-linejoin="bevel"
       id="g7712"
       style="display:inline;fill-rule:evenodd" />
    <g
       font-weight="400"
       fill="none"
       font-style="normal"
       stroke="#000000"
       font-size="28.2222px"
       font-family="Cantarell"
       stroke-width="2.5"
       stroke-linecap="round"
       transform="translate(1382.5068,1024.4724)"
       stroke-opacity="1"
       stroke-linejoin="bevel"
       id="g7744"
       style="display:inline;fill-rule:evenodd" />
    <g
       font-weight="400"
       fill="none"
       font-style="normal"
       stroke="#000000"
       font-size="28.2222px"
       font-family="Cantarell"
       stroke-width="2.5"
       stroke-linecap="round"
       transform="translate(1382.5068,1024.4724)"
       stroke-opacity="1"
       stroke-linejoin="bevel"
       id="g7748"
       style="display:inline;fill-rule:evenodd" />
    <g
       font-weight="400"
       fill="none"
       font-style="normal"
       stroke="#000000"
       font-size="28.2222px"
       font-family="Cantarell"
       stroke-width="2.5"
       stroke-linecap="round"
       transform="translate(1382.5068,1024.4724)"
       stroke-opacity="1"
       stroke-linejoin="bevel"
       id="g7752"
       style="display:inline;fill-rule:evenodd" />
    <g
       font-weight="400"
       fill="none"
       font-style="normal"
       stroke="#000000"
       font-size="28.2222px"
       font-family="Cantarell"
       stroke-width="2.5"
       stroke-linecap="round"
       transform="translate(1382.5068,1024.4724)"
       stroke-opacity="1"
       stroke-linejoin="bevel"
       id="g7756"
       style="display:inline;fill-rule:evenodd" />
    <g
       font-weight="400"
       fill="none"
       font-style="normal"
       stroke="#000000"
       font-size="28.2222px"
       font-family="Cantarell"
       stroke-width="2.5"
       stroke-linecap="round"
       transform="translate(1382.5068,1024.4724)"
       stroke-opacity="1"
       stroke-linejoin="bevel"
       id="g7760"
       style="display:inline;fill-rule:evenodd" />
    <g
       font-weight="400"
       fill="none"
       font-style="normal"
       stroke="#000000"
       font-size="28.2222px"
       font-family="Cantarell"
       stroke-width="2.5"
       stroke-linecap="round"
       transform="translate(1382.5068,1024.4724)"
       stroke-opacity="1"
       stroke-linejoin="bevel"
       id="g7764"
       style="display:inline;fill-rule:evenodd" />
    <g
       font-weight="400"
       fill="none"
       font-style="normal"
       stroke="#000000"
       font-size="28.2222px"
       font-family="Cantarell"
       stroke-width="2.5"
       stroke-linecap="round"
       transform="translate(1382.5068,1024.4724)"
       stroke-opacity="1"
       stroke-linejoin="bevel"
       id="g7768"
       style="display:inline;fill-rule:evenodd" />
    <g
       font-weight="400"
       fill="none"
       font-style="normal"
       stroke="#000000"
       font-size="28.2222px"
       font-family="Cantarell"
       stroke-width="2.5"
       stroke-linecap="round"
       transform="translate(1382.5068,1024.4724)"
       stroke-opacity="1"
       stroke-linejoin="bevel"
       id="g7772"
       style="display:inline;fill-rule:evenodd" />
    <g
       font-weight="400"
       fill="none"
       font-style="normal"
       stroke="#000000"
       font-size="28.2222px"
       font-family="Cantarell"
       stroke-width="2.5"
       stroke-linecap="round"
       transform="translate(1382.5068,1024.4724)"
       stroke-opacity="1"
       stroke-linejoin="bevel"
       id="g7716"
       style="display:inline;fill-rule:evenodd" />
    <g
       font-weight="400"
       fill="none"
       font-style="normal"
       stroke="#000000"
       font-size="28.2222px"
       font-family="Cantarell"
       stroke-width="2.5"
       stroke-linecap="round"
       transform="rotate(90,-158.75001,1238.25)"
       stroke-opacity="1"
       stroke-linejoin="bevel"
       id="g7720"
       style="display:inline;fill-rule:evenodd">
      <path
         id="path7718"
         d="m 958.025,-446.255 c -33.431,-1.966 -62.668,-23.188 -74.898,-54.364 m 77.232,72.629 c 0,-6.163 -0.784,-12.3 -2.334,-18.265 m 2.334,874.245 v -855.98 m -2.334,874.245 c 1.55,-5.965 2.334,-12.102 2.334,-18.265 m -77.232,72.629 c 12.23,-31.176 41.467,-52.398 74.898,-54.364 M 53.4934,500.619 H 883.127 m -936.6204,0 c 30.9543,-25.915 76.0325,-25.915 106.9868,0 m -936.6204,0 H -53.4934 M -958.025,446.255 c 33.431,1.966 62.668,23.188 74.898,54.364 m -77.232,-72.629 c 0,6.163 0.784,12.3 2.334,18.265 m 0,-892.51 c -1.55,5.965 -2.334,12.102 -2.334,18.265 m 0,0 v 855.98 m 77.232,-928.609 c -12.23,31.176 -41.467,52.398 -74.898,54.364 m 904.5316,-54.364 H -883.127 m 1766.254,0 H 53.4934 m 0,0 c -30.9543,25.915 -76.0325,25.915 -106.9868,0" />
    </g>
    <rect
       style="display:inline;fill:none;stroke:#000000;stroke-width:2.5;stroke-miterlimit:4;stroke-dasharray:none"
       id="rect9958-3-3-5-2"
       width="660"
       height="160"
       x="749.5"
       y="640.00092"
       rx="10"
       ry="10" />
  </g>
  <g
     inkscape:groupmode="layer"
     id="layer9"
     inkscape:label="Solder Mask"
     style="display:inline">
    <path
       d="m 843.42768,1152.6561 v -61.1292 c 0,-8.9747 1.35466,-18.6267 1.35466,-18.6267 0,-2.2013 -1.35466,-2.8786 -2.87866,-2.8786 -1.69333,0 -4.57199,0.6773 -8.46665,2.54 -10.32931,4.7413 -21.84395,8.8053 -36.57592,14.9013 0,2.8786 1.35466,5.588 3.72532,7.2813 9.14398,-3.8947 15.23997,-4.2333 17.61063,-4.2333 2.20133,0 3.21733,0.6773 3.21733,9.1439 v 53.0013 c 0,14.0546 -8.12798,14.7319 -17.4413,15.2399 -1.69333,1.016 -1.69333,4.7414 0,5.7574 0,0 21.84396,-0.3387 28.61728,-0.3387 6.77332,0 14.3933,0.1693 28.27861,0.3387 1.69333,-1.016 1.69333,-4.7414 0,-5.7574 -9.31332,-0.508 -17.4413,-1.1853 -17.4413,-15.2399 z"
       id="path7912"
       style="font-style:normal;font-variant:normal;font-weight:bold;font-stretch:normal;font-size:169.333px;line-height:125%;font-family:'Linux Libertine O';-inkscape-font-specification:'Linux Libertine O, Bold';font-variant-ligatures:normal;font-variant-caps:normal;font-variant-numeric:normal;font-variant-east-asian:normal;text-align:start;letter-spacing:0px;word-spacing:0px;text-anchor:start;fill:#800000;fill-opacity:1;stroke:none;stroke-width:2.64583px;stroke-linecap:butt;stroke-linejoin:miter;stroke-opacity:1" />
    <path
       d="m 1045.7181,1096.607 c 0,4.2333 3.8947,9.1439 9.9907,9.1439 4.9106,0 9.8213,-3.7253 9.8213,-8.9746 0,-0.8467 -0.3387,-2.032 -0.8467,-3.556 -0.508,-1.1853 -1.016,-2.54 -1.016,-4.4027 0,-3.8946 5.7573,-11.6839 14.0547,-11.6839 3.5559,0 6.9426,2.032 9.9906,5.9266 2.54,3.3867 4.572,8.9747 4.572,14.9013 0,11.3453 -0.8467,18.6266 -9.652,27.0933 l -14.3933,13.716 c -20.9973,20.1506 -23.8759,24.7226 -24.3839,29.2946 l 0.6773,5.4186 h 65.3625 c 2.032,-6.4346 4.064,-18.1186 5.2493,-27.7706 -2.2013,-1.016 -3.7253,-1.6933 -7.6199,-1.6933 -3.7254,11.5146 -8.636,16.0866 -16.256,16.0866 h -22.0133 c 0.508,-5.4186 2.2013,-9.8213 7.7893,-15.0706 l 9.9907,-9.144 c 20.1506,-18.4573 26.9239,-22.5213 26.9239,-38.4386 0,-7.2813 -2.54,-13.5466 -7.2813,-18.1186 -6.096,-5.7573 -15.0706,-9.144 -25.0613,-9.144 -24.2146,0 -35.8986,15.9173 -35.8986,26.416 z"
       id="path7909"
       style="font-style:normal;font-variant:normal;font-weight:bold;font-stretch:normal;font-size:169.333px;line-height:125%;font-family:'Linux Libertine O';-inkscape-font-specification:'Linux Libertine O, Bold';font-variant-ligatures:normal;font-variant-caps:normal;font-variant-numeric:normal;font-variant-east-asian:normal;text-align:start;letter-spacing:0px;word-spacing:0px;text-anchor:start;fill:#800000;fill-opacity:1;stroke:none;stroke-width:2.64583px;stroke-linecap:butt;stroke-linejoin:miter;stroke-opacity:1" />
    <path
       d="m 1328.0606,1076.4563 c 7.112,0 10.4987,4.2333 10.4987,12.0227 0,12.8693 -10.16,23.3679 -25.7386,26.7546 -0.1694,0.6773 -0.1694,1.1853 -0.1694,1.8626 0,1.6934 0.3387,3.7254 1.3547,4.9107 3.556,-1.016 5.588,-1.3547 8.128,-1.3547 8.8053,0 21.1666,2.54 21.1666,22.86 0,19.4733 -11.5147,23.7066 -17.78,23.7066 -6.604,0 -10.16,-4.2333 -12.3613,-7.112 -1.8626,-2.54 -4.7413,-6.2653 -11.0066,-6.2653 -5.2493,0 -8.2973,4.4026 -8.2973,7.2813 0,3.556 1.8626,6.096 5.5879,7.9587 6.096,3.048 15.0707,5.2493 23.368,5.2493 11.684,0 25.2306,-5.588 33.6973,-15.748 5.08,-6.096 8.6359,-13.8853 8.6359,-23.5373 0,-12.1919 -7.9586,-22.8599 -22.1826,-23.8759 2.54,-1.3547 5.9267,-3.7254 8.4667,-6.604 4.064,-4.572 7.2813,-9.8213 7.2813,-16.4253 0,-7.4507 -4.064,-18.796 -27.432,-18.796 -17.7799,0 -24.8919,5.9267 -30.1412,10.8373 -3.7253,3.3867 -4.7413,7.9587 -4.7413,10.16 0,2.3707 0.8466,6.2653 6.4346,6.2653 7.4507,0 9.4827,-3.8946 10.4987,-9.3133 1.8626,-10.16 8.9746,-10.8373 14.7319,-10.8373 z"
       id="path7906"
       style="font-style:normal;font-variant:normal;font-weight:bold;font-stretch:normal;font-size:169.333px;line-height:125%;font-family:'Linux Libertine O';-inkscape-font-specification:'Linux Libertine O, Bold';font-variant-ligatures:normal;font-variant-caps:normal;font-variant-numeric:normal;font-variant-east-asian:normal;text-align:start;letter-spacing:0px;word-spacing:0px;text-anchor:start;fill:#800000;fill-opacity:1;stroke:none;stroke-width:2.64583px;stroke-linecap:butt;stroke-linejoin:miter;stroke-opacity:1" />
    <path
       d="m 829.6693,1338.479 v 49.4452 h -31.15727 c 8.46665,-14.0546 22.18262,-37.2532 31.15727,-49.4452 z m 37.59192,49.4452 h -16.59463 v -67.9025 h -15.23997 c -13.03864,15.4093 -31.15727,44.7039 -45.04257,65.5319 -0.508,0.6773 -1.18534,1.6933 -1.18534,2.2013 0,0.6773 1.35467,2.032 2.37067,3.8946 l 2.53999,3.048 c 0.84667,0.8467 1.524,1.1854 5.58799,1.1854 h 29.97194 v 6.7733 c 0,14.0546 -6.43465,14.732 -15.74797,15.24 -1.69333,1.016 -1.69333,4.7413 0,5.7573 0,0 19.64263,-0.3387 26.41595,-0.3387 6.77332,0 12.19197,0.1694 26.07728,0.3387 1.69333,-1.016 1.69333,-4.7413 0,-5.7573 -9.31332,-0.508 -15.74797,-1.1854 -15.74797,-15.24 v -6.7733 h 14.22397 c 2.37066,0 4.91066,-3.2174 4.91066,-5.2493 0,-1.6934 -0.67733,-2.7094 -2.54,-2.7094 z"
       id="path7903"
       style="font-style:normal;font-variant:normal;font-weight:bold;font-stretch:normal;font-size:169.333px;line-height:125%;font-family:'Linux Libertine O';-inkscape-font-specification:'Linux Libertine O, Bold';font-variant-ligatures:normal;font-variant-caps:normal;font-variant-numeric:normal;font-variant-east-asian:normal;text-align:start;letter-spacing:0px;word-spacing:0px;text-anchor:start;fill:#800000;fill-opacity:1;stroke:none;stroke-width:2.64583px;stroke-linecap:butt;stroke-linejoin:miter;stroke-opacity:1" />
    <path
       d="m 1090.93,1391.057 c 0,16.5946 -5.9266,26.0773 -15.2399,26.0773 -3.3867,0 -6.604,-3.3867 -9.3134,-7.62 -2.2013,-3.3867 -6.4346,-6.604 -12.6999,-6.604 -6.096,0 -8.636,4.2333 -8.636,7.9587 0,3.048 2.3707,6.7733 6.7733,8.9746 6.4347,3.556 16.764,4.7413 24.892,4.7413 22.5212,0 37.2532,-18.4573 37.2532,-38.7772 0,-16.9333 -12.192,-29.6333 -32.1733,-29.6333 -5.2493,0 -15.9173,1.1853 -19.9812,2.2013 1.1853,-8.8053 2.2013,-16.9333 3.2173,-22.3519 5.4186,0.508 17.4413,0.8466 24.5533,0.8466 6.096,0 9.1439,-0.3386 19.4733,-1.016 l 3.2173,-14.5626 -3.8947,-2.2013 c -12.3613,1.1853 -18.6266,2.2013 -28.7866,2.2013 -6.9426,0 -12.3613,-1.016 -22.0133,-1.6933 l -6.7733,50.4612 2.2013,1.3547 c 12.3613,-4.572 15.4093,-5.7573 23.876,-5.7573 7.9586,0 14.0546,8.4666 14.0546,25.3999 z"
       id="path7900"
       style="font-style:normal;font-variant:normal;font-weight:bold;font-stretch:normal;font-size:169.333px;line-height:125%;font-family:'Linux Libertine O';-inkscape-font-specification:'Linux Libertine O, Bold';font-variant-ligatures:normal;font-variant-caps:normal;font-variant-numeric:normal;font-variant-east-asian:normal;text-align:start;letter-spacing:0px;word-spacing:0px;text-anchor:start;fill:#800000;fill-opacity:1;stroke:none;stroke-width:2.64583px;stroke-linecap:butt;stroke-linejoin:miter;stroke-opacity:1" />
    <path
       d="m 1314.3447,1373.7003 c 6.4347,-3.8946 9.4827,-4.4026 12.5307,-4.4026 9.8213,0 16.5946,11.8533 16.5946,21.8439 0,18.288 -5.4186,26.5853 -11.5146,26.5853 -8.4667,0 -17.78,-6.604 -17.78,-36.0679 0,-1.8627 0,-6.096 0.1693,-7.9587 z m 47.2439,-47.4132 c 0.508,-2.032 0.1694,-5.2493 -1.016,-6.9427 -23.8759,0.8467 -36.5759,5.4187 -49.4452,16.4253 -13.0386,11.176 -18.288,28.956 -18.288,45.212 0,36.2372 19.9813,43.3492 37.084,43.3492 26.4159,0 36.2372,-21.1666 36.2372,-36.2373 0,-8.2973 -5.9266,-26.5852 -33.5279,-27.2626 -4.064,0.508 -11.3453,2.7094 -17.4413,5.9267 1.3547,-12.192 6.9427,-23.7066 15.0706,-30.3106 9.9907,-8.128 21.6747,-9.652 31.3266,-10.16 z"
       id="path7897"
       style="font-style:normal;font-variant:normal;font-weight:bold;font-stretch:normal;font-size:169.333px;line-height:125%;font-family:'Linux Libertine O';-inkscape-font-specification:'Linux Libertine O, Bold';font-variant-ligatures:normal;font-variant-caps:normal;font-variant-numeric:normal;font-variant-east-asian:normal;text-align:start;letter-spacing:0px;word-spacing:0px;text-anchor:start;fill:#800000;fill-opacity:1;stroke:none;stroke-width:2.64583px;stroke-linecap:butt;stroke-linejoin:miter;stroke-opacity:1" />
    <path
       d="m 815.02208,1588.4791 h 32.8506 c -11.17598,23.1986 -30.31061,60.1132 -43.51858,84.3278 l 1.016,2.032 17.27196,-1.6933 c 11.34531,-28.956 20.48929,-54.3559 42.33325,-100.4145 l -1.016,-1.524 h -56.72655 c -5.75732,0 -6.09599,-1.6933 -9.14398,-2.3707 -0.508,0 -0.67733,0 -0.67733,0.508 -0.16934,8.128 -2.032,24.5533 -3.38666,33.3586 l 5.92665,0.508 c 3.72533,-13.5466 9.48265,-14.7319 15.07064,-14.7319 z"
       id="path7894"
       style="font-style:normal;font-variant:normal;font-weight:bold;font-stretch:normal;font-size:169.333px;line-height:125%;font-family:'Linux Libertine O';-inkscape-font-specification:'Linux Libertine O, Bold';font-variant-ligatures:normal;font-variant-caps:normal;font-variant-numeric:normal;font-variant-east-asian:normal;text-align:start;letter-spacing:0px;word-spacing:0px;text-anchor:start;fill:#800000;fill-opacity:1;stroke:none;stroke-width:2.64583px;stroke-linecap:butt;stroke-linejoin:miter;stroke-opacity:1" />
    <path
       d="m 1080.008,1575.271 c 11.8533,0 12.7,9.3133 12.7,16.2559 0,7.2814 -1.1853,14.9014 -6.604,18.288 l -8.4666,-4.4026 c -8.4667,-4.2334 -9.8214,-10.3294 -9.8214,-15.5787 0,-7.9586 1.3547,-14.5626 12.192,-14.5626 z m 32.3426,16.5946 c 0,-12.3613 -8.9746,-22.5213 -31.1572,-22.5213 -24.0453,0 -34.2053,12.192 -34.2053,25.4 0,9.652 3.7253,15.5786 16.256,22.0133 l 3.5559,1.8626 c -16.0866,7.9587 -25.0612,16.0867 -25.0612,29.1253 0,17.6106 15.0706,26.5853 36.5759,26.5853 26.4159,0 38.9466,-16.256 38.9466,-29.2946 0,-9.9907 -4.572,-19.6427 -14.3933,-25.5693 l -9.4827,-5.588 c 9.9907,-2.8787 18.9653,-11.176 18.9653,-22.0133 z m -33.6972,75.6919 c -8.9747,0 -16.0867,-4.7414 -16.0867,-19.812 0,-5.08 -0.508,-17.1026 11.176,-25.2306 l 9.144,4.9106 c 12.192,6.4347 13.3773,12.8693 13.3773,20.9973 0,16.256 -10.3293,19.1347 -17.6106,19.1347 z"
       id="path7891"
       style="font-style:normal;font-variant:normal;font-weight:bold;font-stretch:normal;font-size:169.333px;line-height:125%;font-family:'Linux Libertine O';-inkscape-font-specification:'Linux Libertine O, Bold';font-variant-ligatures:normal;font-variant-caps:normal;font-variant-numeric:normal;font-variant-east-asian:normal;text-align:start;letter-spacing:0px;word-spacing:0px;text-anchor:start;fill:#800000;fill-opacity:1;stroke:none;stroke-width:2.64583px;stroke-linecap:butt;stroke-linejoin:miter;stroke-opacity:1" />
    <path
       d="m 1344.6554,1619.9749 c -6.604,4.064 -9.4827,4.4026 -12.5307,4.4026 -9.8213,0 -16.5946,-11.6839 -16.5946,-21.8439 0,-18.288 5.4186,-26.5853 11.5146,-26.5853 8.4667,0 17.78,6.604 17.78,36.0679 0,1.8627 0,6.096 -0.1693,7.9587 z m -47.2439,47.4132 c -0.6774,2.2014 -0.3387,5.4187 1.016,6.9427 23.8759,-0.6774 36.5759,-5.2493 49.4452,-16.4253 12.8693,-11.0067 18.288,-28.956 18.288,-45.2119 0,-36.2373 -19.9813,-43.3493 -37.084,-43.3493 -26.4159,0 -36.2372,21.336 -36.2372,36.2373 0,8.2973 5.7573,26.7546 33.5279,27.2626 4.064,-0.508 11.176,-2.54 17.272,-5.7573 -1.1854,12.192 -6.9427,23.7066 -14.9013,30.1412 -9.9907,8.128 -21.6747,9.652 -31.3266,10.16 z"
       id="path7888"
       style="font-style:normal;font-variant:normal;font-weight:bold;font-stretch:normal;font-size:169.333px;line-height:125%;font-family:'Linux Libertine O';-inkscape-font-specification:'Linux Libertine O, Bold';font-variant-ligatures:normal;font-variant-caps:normal;font-variant-numeric:normal;font-variant-east-asian:normal;text-align:start;letter-spacing:0px;word-spacing:0px;text-anchor:start;fill:#800000;fill-opacity:1;stroke:none;stroke-width:2.64583px;stroke-linecap:butt;stroke-linejoin:miter;stroke-opacity:1" />
    <path
       d="m 1080.008,1826.4564 c 6.4347,0 13.8853,11.0067 13.8853,40.8093 0,40.8092 -7.7893,49.9532 -14.5626,49.9532 -14.0546,0 -14.0546,-28.7866 -14.0546,-43.1799 0,-41.1479 7.9586,-47.5826 14.7319,-47.5826 z m -0.8466,97.8745 c 16.7639,0 38.7772,-13.3773 38.7772,-53.6786 0,-39.7932 -20.9973,-51.3079 -37.9306,-51.3079 -21.8439,0 -38.9466,18.9653 -38.9466,52.8319 0,27.7707 13.3773,52.1546 38.1,52.1546 z"
       id="path7885"
       style="font-style:normal;font-variant:normal;font-weight:bold;font-stretch:normal;font-size:169.333px;line-height:125%;font-family:'Linux Libertine O';-inkscape-font-specification:'Linux Libertine O, Bold';font-variant-ligatures:normal;font-variant-caps:normal;font-variant-numeric:normal;font-variant-east-asian:normal;text-align:start;letter-spacing:0px;word-spacing:0px;text-anchor:start;fill:#800000;fill-opacity:1;stroke:none;stroke-width:2.64583px;stroke-linecap:butt;stroke-linejoin:miter;stroke-opacity:1" />
    <path
       d="m 1297.7502,1879.279 q 3.2246,0 4.8782,5.2917 3.3073,9.9219 4.7129,9.9219 1.0749,0 2.2324,-1.6537 23.2337,-37.2069 42.9947,-60.1926 5.1263,-5.9531 16.2884,-5.9531 2.6458,0 3.5553,0.4961 0.9095,0.4961 0.9095,1.2402 0,1.1576 -2.7285,4.5475 -31.9153,38.3646 -59.2004,81.0285 -1.9017,2.9766 -7.7721,2.9766 -5.9531,0 -7.028,-0.4961 -2.8112,-1.2402 -6.6146,-12.6504 -4.2994,-12.6503 -4.2994,-15.8749 0,-3.4727 5.7877,-6.6973 3.5554,-1.9844 6.2839,-1.9844 z"
       id="path7882"
       style="font-style:normal;font-variant:normal;font-weight:bold;font-stretch:normal;font-size:169.333px;line-height:125%;font-family:'Linux Libertine O';-inkscape-font-specification:'Linux Libertine O, Bold';font-variant-ligatures:normal;font-variant-caps:normal;font-variant-numeric:normal;font-variant-east-asian:normal;text-align:start;letter-spacing:0px;word-spacing:0px;text-anchor:start;fill:#800000;fill-opacity:1;stroke:none;stroke-width:2.64583px;stroke-linecap:butt;stroke-linejoin:miter;stroke-opacity:1" />
    <path
       d="m 801.22145,1835.4311 c -12.69997,13.5466 -25.06128,24.7226 -37.08393,33.1892 v 6.4347 c 10.66798,7.4506 24.04529,19.304 37.08393,33.1893 h 93.64114 v -72.8132 z m 15.23997,65.0238 h -9.99065 c -9.99064,-11.3453 -17.94929,-17.1026 -31.49593,-28.6172 13.8853,-11.8533 21.84395,-17.272 31.66527,-28.448 h 9.65198 l 24.04528,28.6173 z m 47.92124,-57.0652 -19.30397,22.86 -19.13462,-22.86 z m -38.09993,57.0652 18.79596,-22.5212 18.9653,22.5212 z m 47.75191,-57.0652 h 11.85331 v 57.0652 H 873.8653 l -23.87595,-28.4479 z"
       id="path7879"
       style="font-style:normal;font-variant:normal;font-weight:bold;font-stretch:normal;font-size:169.333px;line-height:125%;font-family:'Linux Libertine O';-inkscape-font-specification:'Linux Libertine O, Bold';font-variant-ligatures:normal;font-variant-caps:normal;font-variant-numeric:normal;font-variant-east-asian:normal;text-align:start;letter-spacing:0px;word-spacing:0px;text-anchor:start;fill:#800000;fill-opacity:1;stroke:none;stroke-width:2.64583px;stroke-linecap:butt;stroke-linejoin:miter;stroke-opacity:1" />
  </g>
</svg>
