<?xml version="1.0" encoding="UTF-8" standalone="no"?>
<svg
   viewBox="0 0 2159.0001 2794"
   width="8.5in"
   version="1.2"
   height="11in"
   id="svg8428"
   sodipodi:docname="Top Lid-Page-mod.svg"
   inkscape:version="1.2.2 (b0a8486541, 2022-12-01)"
   xml:space="preserve"
   inkscape:export-filename="lcdmount2.svg"
   inkscape:export-xdpi="96"
   inkscape:export-ydpi="96"
   xmlns:inkscape="http://www.inkscape.org/namespaces/inkscape"
   xmlns:sodipodi="http://sodipodi.sourceforge.net/DTD/sodipodi-0.dtd"
   xmlns:xlink="http://www.w3.org/1999/xlink"
   xmlns="http://www.w3.org/2000/svg"
   xmlns:svg="http://www.w3.org/2000/svg"
   xmlns:rdf="http://www.w3.org/1999/02/22-rdf-syntax-ns#"
   xmlns:cc="http://creativecommons.org/ns#"
   xmlns:dc="http://purl.org/dc/elements/1.1/"><metadata
     id="metadata8432"><rdf:RDF><cc:Work
         rdf:about=""><dc:title>FreeCAD SVG Export</dc:title><dc:format>image/svg+xml</dc:format><dc:type
           rdf:resource="http://purl.org/dc/dcmitype/StillImage" /></cc:Work></rdf:RDF></metadata><sodipodi:namedview
     pagecolor="#ffffff"
     bordercolor="#666666"
     borderopacity="1"
     objecttolerance="10"
     gridtolerance="10"
     guidetolerance="10"
     inkscape:pageopacity="0"
     inkscape:pageshadow="2"
     inkscape:window-width="1600"
     inkscape:window-height="825"
     id="namedview8430"
     showgrid="false"
     inkscape:zoom="0.6969697"
     inkscape:cx="342.19565"
     inkscape:cy="951.97826"
     inkscape:window-x="0"
     inkscape:window-y="0"
     inkscape:window-maximized="1"
     inkscape:current-layer="layer12"
     inkscape:document-rotation="0"
     units="in"
     inkscape:document-units="mm"
     inkscape:showpageshadow="2"
     inkscape:pagecheckerboard="0"
     inkscape:deskcolor="#d1d1d1"
     showguides="false" /><title
     id="title2">FreeCAD SVG Export</title><desc
     id="desc4">Drawing page: Page exported from FreeCAD document: Unnamed</desc><defs
     id="defs6"><marker
       id="DistanceX"
       orient="auto"
       refX="0.0"
       refY="0.0"
       style="overflow:visible"><path
         d="M 3,-3 L -3,3 M 0,-5 L  0,5"
         style="stroke:#000000; stroke-width:0.5"
         id="path445" /></marker><pattern
       id="Hatch"
       patternUnits="userSpaceOnUse"
       width="8"
       height="8"
       x="0"
       y="0"><path
         d="M8 4 l-4,4"
         stroke="#000000"
         stroke-width="0.25"
         linecap="square"
         id="path448" /><path
         d="M6 2 l-4,4"
         stroke="#000000"
         stroke-width="0.25"
         linecap="square"
         id="path450" /><path
         d="M4 0 l-4,4"
         stroke="#000000"
         stroke-width="0.25"
         linecap="square"
         id="path452" /></pattern><inkscape:perspective
       id="perspective2824"
       inkscape:persp3d-origin="0.5 : 0.33333333 : 1"
       sodipodi:type="inkscape:persp3d"
       inkscape:vp_z="1 : 0.5 : 1"
       inkscape:vp_y="0 : 1000 : 0"
       inkscape:vp_x="0 : 0.5 : 1">
		</inkscape:perspective></defs><g
     inkscape:groupmode="layer"
     id="layer2"
     inkscape:label="Cut lines"
     style="display:inline"
     sodipodi:insensitive="true"><g
       font-weight="400"
       fill="none"
       font-style="normal"
       stroke="#000000"
       font-size="28.2222px"
       font-family="Cantarell"
       stroke-width="2.5"
       stroke-linecap="round"
       transform="rotate(90,-158.75001,1238.25)"
       stroke-opacity="1"
       stroke-linejoin="bevel"
       id="g7720"
       style="display:inline;fill-rule:evenodd"
       inkscape:export-filename="g7720.svg"
       inkscape:export-xdpi="96"
       inkscape:export-ydpi="96"><path
         id="path7718"
         d="m 958.025,-446.255 c -33.431,-1.966 -62.668,-23.188 -74.898,-54.364 m 77.232,72.629 c 0,-6.163 -0.784,-12.3 -2.334,-18.265 m 2.334,874.245 v -855.98 m -2.334,874.245 c 1.55,-5.965 2.334,-12.102 2.334,-18.265 m -77.232,72.629 c 12.23,-31.176 41.467,-52.398 74.898,-54.364 M 53.4934,500.619 H 883.127 m -936.6204,0 c 30.9543,-25.915 76.0325,-25.915 106.9868,0 m -936.6204,0 H -53.4934 M -958.025,446.255 c 33.431,1.966 62.668,23.188 74.898,54.364 m -77.232,-72.629 c 0,6.163 0.784,12.3 2.334,18.265 m 0,-892.51 c -1.55,5.965 -2.334,12.102 -2.334,18.265 m 0,0 v 855.98 m 77.232,-928.609 c -12.23,31.176 -41.467,52.398 -74.898,54.364 m 904.5316,-54.364 H -883.127 m 1766.254,0 H 53.4934 m 0,0 c -30.9543,25.915 -76.0325,25.915 -106.9868,0" /></g><rect
       style="display:inline;fill:none;stroke:#000000;stroke-width:2.5;stroke-miterlimit:4;stroke-dasharray:none"
       id="rect9958-3-3-5-2"
       width="660"
       height="160"
       x="749.5"
       y="640.00092"
       rx="10"
       ry="10" /></g><g
     inkscape:groupmode="layer"
     id="layer8"
     inkscape:label="Guard"
     style="display:none;opacity:0.989333"
     sodipodi:insensitive="true"><path
       id="path10038-9-7"
       style="fill:none;stroke:#008000;stroke-width:30;stroke-miterlimit:4;stroke-dasharray:none"
       d="M 704.50002,1996.8376 H 1454.5 M 704.50002,996.83763 H 1454.5 M 704.50002,1496.8376 H 1454.5 M 704.50002,1746.8377 H 1454.5 M 704.50002,1246.8376 H 1454.5 m -500,-250.00001 h 250 V 1996.8376 h -250 z m -250,0 h 750 V 1996.8376 h -750 z" /></g><g
     inkscape:groupmode="layer"
     id="layer7"
     inkscape:label="Copper"
     style="display:none"><path
       id="use5408"
       style="fill:#ff0000;stroke:none;stroke-width:0.944882"
       d="m 285.16406,395.65234 v 56.69336 h 56.69141 v -56.69336 z m 94.49024,0 v 56.69336 h 56.6914 v -56.69336 z m 94.49023,0 v 56.69336 h 56.69141 v -56.69336 z m 29.01563,8.50977 c 8.83199,0 10.36718,4.28751 10.36718,7.10351 0,2.496 -1.21595,4.47904 -2.75195,6.20704 -0.96,1.08796 -2.23922,1.98408 -3.19922,2.49609 5.376,0.384 8.38477,4.41743 8.38477,9.02539 0,3.648 -1.34563,6.59053 -3.26563,8.89453 -3.20001,3.84 -8.31838,5.95313 -12.73437,5.95313 -3.13599,0 -6.52804,-0.83238 -8.83203,-1.98438 -1.40799,-0.70401 -2.11329,-1.66381 -2.11329,-3.00781 0,-1.08801 1.15274,-2.75195 3.13672,-2.75195 2.36799,0 3.45619,1.40718 4.16016,2.36718 0.83199,1.08802 2.17588,2.68946 4.67187,2.68946 2.36798,0 6.72071,-1.60096 6.72071,-8.96094 0,-7.67999 -4.67202,-8.64063 -8,-8.64063 -0.96,0 -1.72827,0.12968 -3.07227,0.51368 -0.384,-0.44799 -0.51172,-1.2174 -0.51172,-1.85743 0,-0.25598 -0.002,-0.44713 0.0625,-0.70312 5.88798,-1.28001 9.72852,-5.24734 9.72852,-10.11133 0,-2.94402 -1.28075,-4.54492 -3.96875,-4.54492 -2.17599,0 -4.86243,0.25571 -5.56641,4.0957 -0.384,2.04802 -1.15273,3.51953 -3.96875,3.51953 -2.112,0 -2.43164,-1.47118 -2.43164,-2.36718 0,-0.83199 0.38303,-2.55983 1.79102,-3.83985 1.98399,-1.85597 4.67261,-4.0957 11.39258,-4.0957 z m -184.96094,0.25586 c 0.576,0 1.08789,0.2559 1.08789,1.08789 0,0 -0.51172,3.64705 -0.51172,7.03906 v 23.10547 c 0,5.31197 3.0718,5.56777 6.5918,5.75977 0.64,0.38399 0.64,1.79178 0,2.17578 -5.24799,-0.064 -8.12752,-0.12891 -10.6875,-0.12891 -2.56,0 -10.81641,0.12891 -10.81641,0.12891 -0.64,-0.384 -0.64,-1.79179 0,-2.17578 3.52,-0.192 6.5918,-0.4478 6.5918,-5.75977 v -20.0332 c 0,-3.19998 -0.38285,-3.45508 -1.21485,-3.45508 -0.89599,0 -3.20025,0.1276 -6.65625,1.59961 -0.89599,-0.63999 -1.4082,-1.66399 -1.4082,-2.75196 5.56799,-2.30399 9.92023,-3.84082 13.82422,-5.63281 1.472,-0.70401 2.55922,-0.95898 3.19922,-0.95898 z m 90.60156,0.0644 c 3.77601,0 7.16671,1.27909 9.4707,3.45508 1.79199,1.728 2.75196,4.09567 2.75196,6.84766 0,6.01597 -2.55982,7.55332 -10.17578,14.52929 l -3.7754,3.45508 c -2.11199,1.98399 -2.75135,3.64734 -2.94335,5.69531 h 8.31835 c 2.88,0 4.73651,-1.72811 6.14454,-6.08008 1.47196,0 2.04887,0.25663 2.88086,0.64063 -0.44799,3.648 -1.21638,8.06413 -1.98438,10.49609 H 394.7832 l -0.25586,-2.04882 c 0.192,-1.728 1.28082,-3.45434 9.2168,-11.07032 l 5.43945,-5.18554 c 3.32799,-3.20002 3.64844,-5.95031 3.64844,-10.23829 0,-2.23997 -0.76852,-4.35279 -1.72852,-5.63281 -1.15199,-1.47197 -2.43142,-2.24023 -3.77539,-2.24023 -3.13601,0 -5.3125,2.94405 -5.3125,4.41601 10e-6,0.70402 0.19277,1.21608 0.38477,1.66407 0.192,0.576 0.32031,1.02373 0.32031,1.34375 0,1.98397 -1.85691,3.39257 -3.71289,3.39257 -2.304,0 -3.77539,-1.85704 -3.77539,-3.45703 0,-3.968 4.4164,-9.98242 13.56836,-9.98242 z m -123.63672,85.66016 v 56.69336 h 56.69141 v -56.69336 z m 94.49024,0 v 56.69336 h 56.6914 v -56.69336 z m 94.49023,0 v 56.69336 h 56.69141 v -56.69336 z m -55.23242,8.41211 1.47265,0.83203 -1.21679,5.5039 c -3.90403,0.25603 -5.05538,0.38282 -7.35938,0.38282 -2.68799,0 -7.23327,-0.12832 -9.28125,-0.32032 -0.384,2.04798 -0.76685,5.12125 -1.21484,8.44922 1.53596,-0.384 5.56679,-0.83203 7.55078,-0.83203 7.55198,0 12.16016,4.79924 12.16016,11.19922 0,7.67995 -5.56814,14.65625 -14.08008,14.65625 -3.072,0 -6.9762,-0.44702 -9.4082,-1.79102 -1.66398,-0.83198 -2.5586,-2.24057 -2.5586,-3.39257 0,-1.40803 0.95968,-3.00782 3.26367,-3.00782 2.36799,0 3.96685,1.21609 4.79883,2.4961 1.02403,1.59999 2.24147,2.8789 3.52149,2.8789 3.51997,0 5.75976,-3.5835 5.75976,-9.85546 0,-6.39999 -2.30452,-9.59961 -5.3125,-9.59961 -3.20001,0 -4.35146,0.44778 -9.02344,2.17578 l -0.83203,-0.51172 2.56055,-19.07227 c 3.648,0.25599 5.69439,0.64063 8.31836,0.64063 3.84,0 6.20887,-0.38405 10.88086,-0.83203 z m 95.32031,0.0957 c 0.44803,0.64003 0.57481,1.85505 0.38281,2.62305 -3.64795,0.192 -8.06383,0.76784 -11.83984,3.83984 -2.76331,2.24522 -4.67998,6.01327 -5.42383,10.09766 l -0.0293,-0.006 c -0.0183,0.10127 -0.0268,0.27176 -0.0469,0.38086 -0.0539,0.33186 -0.15807,0.6492 -0.19531,0.98437 0.0262,-0.0138 0.0557,-0.0195 0.082,-0.0332 -0.14975,0.85267 -0.26682,1.70006 -0.31641,2.61523 -0.036,0.0216 -0.0494,0.0189 -0.0859,0.041 -0.064,0.70401 -0.0645,2.3038 -0.0645,3.00781 0,10.68332 3.23926,13.38734 6.32813,13.5918 l -0.0391,2.50195 c -0.11951,0.002 -0.21457,0.0352 -0.33593,0.0352 -6.46401,0 -14.01563,-2.68883 -14.01563,-16.38477 0,-6.14399 1.98415,-12.86389 6.91211,-17.08789 4.86399,-4.15996 9.66355,-5.88702 18.6875,-6.20703 z m -198.48047,0.25586 h 5.75977 v 25.66406 h 6.27148 c 0.704,0 0.96094,0.38341 0.96094,1.02344 0,0.76796 -0.95947,1.98437 -1.85547,1.98437 h -5.37695 v 2.56055 c 0,5.31198 2.43118,5.56777 5.95117,5.75977 0.64,0.384 0.64,1.79178 0,2.17578 -5.24798,-0.064 -7.29547,-0.12891 -9.85547,-0.12891 -2.55999,0 -9.98437,0.12891 -9.98437,0.12891 -0.64,-0.384 -0.64,-1.79178 0,-2.17578 3.51998,-0.192 5.95312,-0.44779 5.95312,-5.75977 v -2.56055 h -0.0371 c 0.0438,-1.06959 0.0353,-2.04518 0.004,-3.00781 h 0.0332 v -18.68945 c -0.0132,0.0179 -0.0297,0.0464 -0.043,0.0645 0.0294,-1.48593 0.0396,-2.87454 0.0352,-4.18945 0.73504,-0.96874 1.5111,-2.05485 2.18359,-2.84961 z m -2.94726,3.84766 c 0.003,1.36265 0.0167,2.67613 -0.0352,4.30468 -3.36939,4.79492 -7.99759,12.57961 -10.96875,17.51172 h 10.98828 c 0.0319,0.96835 0.0412,1.93987 -0.004,3.00781 h -10.53711 c -1.536,10e-6 -1.79133,-0.12921 -2.11133,-0.44921 l -0.96094,-1.1504 c -0.384,-0.70397 -0.89648,-1.21666 -0.89648,-1.47265 0,-0.192 0.25722,-0.57604 0.44922,-0.83203 4.28112,-6.42171 9.57656,-14.82547 14.07617,-20.91992 z m 190.86718,11.57617 c 10.43197,0.25602 12.67188,7.1687 12.67188,10.30468 0,5.4706 -3.48566,12.98947 -12.60156,13.58204 l 0.0371,-2.44727 c 2.14963,-0.31994 3.98828,-3.44281 3.98828,-9.98437 0,-3.77598 -2.5595,-8.25586 -6.27149,-8.25586 -0.9726,0 -2.10662,0.30394 -3.84961,1.23242 0.0765,-0.88937 0.16746,-1.74243 0.31446,-2.56055 2.09541,-0.98047 4.36365,-1.70268 5.71093,-1.87109 z m -218.50781,70.30273 v 56.69336 h 56.69141 v -56.69336 z m 94.49024,0 v 56.69336 h 56.6914 v -56.69336 z m 94.49023,0 v 56.69336 h 56.69141 v -56.69336 z m -172.50391,8.3125 c 1.152,0.25603 1.27909,0.89649 3.45508,0.89649 h 21.43946 l 0.38476,0.57617 c -8.25597,17.40795 -11.71201,27.00718 -16,37.95117 l -6.52734,0.64062 -0.38477,-0.76757 c 4.99199,-9.15197 12.22328,-23.10508 16.44727,-31.87305 h -12.41602 c -2.11199,0 -4.28731,0.44839 -5.69531,5.56836 l -2.24023,-0.19141 c 0.51198,-3.32797 1.21724,-9.53542 1.28125,-12.60742 0,-0.192 0.0639,-0.19336 0.25585,-0.19336 z m 107,0.19336 c 8.38398,0 11.77539,3.83973 11.77539,8.51172 0,4.09599 -3.39196,7.2323 -7.16796,8.32031 l 3.58398,2.11133 c 3.71199,2.23998 5.43945,5.88806 5.43945,9.66406 0,4.8303 -4.58174,10.7934 -14.16406,11.0293 v -2.56836 c 2.71346,-0.1095 6.22852,-1.33605 6.22852,-7.18164 0,-3.072 -0.44865,-5.50353 -5.05664,-7.93555 l -3.45508,-1.85547 c -4.416,3.07199 -4.22461,7.61516 -4.22461,9.53516 0,5.50671 2.51999,7.34744 5.75195,7.46484 v 2.57227 c -8.01648,-0.0578 -13.62305,-3.43832 -13.62305,-10.03711 0,-4.92797 3.39073,-7.99981 9.47071,-11.00781 l -1.34375,-0.70313 c -4.73601,-2.43201 -6.14258,-4.67231 -6.14258,-8.32031 0,-4.80364 3.60676,-9.20831 11.97266,-9.53711 v 2.21875 c -3.59868,0.21526 -4.10157,2.59343 -4.10157,5.46289 0,1.98399 0.51288,4.2867 3.71289,5.88672 l 3.19922,1.66406 c 2.04802,-1.27997 2.4961,-4.16008 2.4961,-6.91211 0,-2.56903 -0.33346,-5.97483 -4.55078,-6.11718 v -2.25196 c 0.0709,-5.7e-4 0.12767,-0.0137 0.19921,-0.0137 z m 93.6875,0 c 6.46402,0 14.01563,2.68685 14.01563,16.38281 0,6.14397 -2.04813,12.92788 -6.91211,17.08789 -4.86399,4.22399 -9.66355,5.95296 -18.6875,6.20899 -0.51201,-0.576 -0.6408,-1.79298 -0.38477,-2.625 3.64796,-0.192 8.06579,-0.76785 11.8418,-3.83985 2.79818,-2.26235 4.81436,-6.20158 5.45117,-10.44726 l 0.0176,0.002 c 0.0163,-0.10811 0.0251,-0.21472 0.043,-0.32226 0.0279,-0.21105 0.0985,-0.41075 0.11914,-0.62305 -0.0121,0.006 -0.025,0.009 -0.0371,0.0156 0.15996,-0.88417 0.30824,-1.76792 0.35547,-2.66796 0.0251,-0.0154 0.041,-0.0215 0.0664,-0.0371 0.064,-0.70402 0.0625,-2.3038 0.0625,-3.00782 0,-10.78226 -3.29789,-13.4382 -6.41211,-13.59765 v -2.48242 c 0.16298,-0.004 0.29447,-0.0469 0.46093,-0.0469 z m -1.21679,0.125 v 2.44922 c -2.11235,0.39038 -3.90235,3.51454 -3.90235,9.96875 0,3.84 2.5595,8.25586 6.27149,8.25586 0.99579,0 2.0006,-0.15385 3.85156,-1.17188 -0.0827,0.82227 -0.19421,1.65546 -0.3457,2.54688 -2.091,0.97566 -4.32848,1.65702 -5.68164,1.82617 -10.49597,-0.192 -12.67188,-7.1687 -12.67188,-10.30469 0,-5.38406 3.45722,-12.91112 12.47852,-13.57031 z M 285.16406,679.123 v 56.69335 h 56.69141 V 679.123 Z m 94.49024,0 v 56.69335 h 56.6914 V 679.123 Z m 94.49023,0 v 56.69335 h 56.69141 V 679.123 Z m -65.76562,8.51953 c 6.36705,0.0829 14.14843,4.47869 14.14843,19.375 0,14.83722 -7.88323,19.97961 -14.14843,20.23828 v -2.72071 c 2.44488,-0.39828 5.06054,-4.25383 5.06054,-18.79687 0,-10.97813 -2.67326,-15.17521 -5.06054,-15.38281 z m -0.75586,0.0469 v 2.70313 c -2.41673,0.38138 -4.99805,3.48785 -4.99805,17.90625 0,5.32642 0.0123,15.83959 4.99805,16.27734 v 2.71484 c -9.18131,-0.16581 -14.15039,-9.29692 -14.15039,-19.69726 0,-12.49705 6.17521,-19.57396 14.15039,-19.9043 z m 109.74023,2.71485 c 0.66666,0 1.11459,0.0625 1.34375,0.1875 0.22917,0.125 0.34375,0.28126 0.34375,0.46875 0,0.29168 -0.34375,0.8646 -1.03125,1.71875 -8.04164,9.66666 -15.50002,19.87505 -22.375,30.625 -0.47917,0.75 -1.45834,1.125 -2.9375,1.125 -1.49999,0 -2.38541,-0.0625 -2.65625,-0.1875 -0.70833,-0.31249 -1.54166,-1.90625 -2.5,-4.78125 -1.08331,-3.18748 -1.625,-5.18752 -1.625,-6 0,-0.87501 0.72918,-1.71877 2.1875,-2.53125 0.89585,-0.50001 1.68751,-0.75 2.375,-0.75 0.8125,0 1.4271,0.66666 1.84375,2 0.83334,2.49999 1.42708,3.75 1.78125,3.75 0.27084,0 0.5521,-0.20832 0.84375,-0.625 5.85415,-9.37497 11.27086,-16.95834 16.25,-22.75 1.29167,-1.5 3.34375,-2.25 6.15625,-2.25 z m -214.53906,3.30273 h 16.16406 v 3.00781 h -6.82031 l 7.23242,8.63867 7.29492,-8.63867 h -6.95117 v -3.00781 h 18.4707 v 13.34961 h -3.39062 v -10.3418 h -4.48047 l -9.08789,10.81446 9.02344,10.75195 h 4.54492 V 707.8125 h 3.39062 v 13.41406 h -18.4707 v -2.94531 h 6.82422 l -7.16797,-8.51172 -7.10547,8.51172 h 6.69336 v 2.94531 h -16.16406 c -4.92799,-5.24797 -9.98363,-9.72894 -14.01563,-12.54492 v -0.86914 h 4.50586 c 4.83008,4.0838 7.83818,6.31706 11.49414,10.46875 h 3.77539 l 9.02344,-10.75195 -9.08789,-10.81446 h -3.64844 c -3.57278,4.06559 -6.58125,6.19916 -11.47461,10.3418 h -4.58789 V 706.25 c 4.544,-3.19997 9.21564,-7.423 14.01563,-12.54297 z"
       transform="scale(2.6458334)"
       inkscape:label="path5408"
       inkscape:export-filename="copper2.svg"
       inkscape:export-xdpi="96"
       inkscape:export-ydpi="96" /></g><g
     inkscape:groupmode="layer"
     id="layer9"
     inkscape:label="Solder Mask"
     style="display:none"><path
       id="path629"
       style="font-weight:bold;font-size:169.333px;line-height:125%;font-family:'Linux Libertine O';-inkscape-font-specification:'Linux Libertine O, Bold';letter-spacing:0px;word-spacing:0px;display:inline;fill:#800000;stroke-width:2.64583px"
       d="m 1331.2779,1069.3456 c -17.7798,0 -24.8935,5.926 -30.1428,10.8366 -3.7253,3.3867 -4.7387,7.9582 -4.7387,10.1595 0,2.3707 0.8457,6.2632 6.4337,6.2632 7.4507,0 9.4846,-3.8934 10.5006,-9.3121 1.8626,-10.16 8.9705,-10.8365 14.7278,-10.8365 7.112,0 10.5007,4.2357 10.5007,12.0251 0,12.8693 -10.1615,23.3662 -25.7401,26.7529 -0.1694,0.6773 -0.1653,1.183 -0.1653,1.8603 0,1.6934 0.3379,3.7292 1.3539,4.9145 3.556,-1.016 5.5887,-1.3591 8.1287,-1.3591 8.8053,0 21.1667,2.5416 21.1667,22.8616 0,19.4733 -11.5166,23.7092 -17.7819,23.7092 -6.604,0 -10.1597,-4.2372 -12.361,-7.1159 -1.8626,-2.54 -4.7418,-6.2632 -11.0071,-6.2632 -5.2493,0 -8.2992,4.4026 -8.2992,7.2813 0,3.5559 1.8661,6.0954 5.5914,7.9581 6.096,3.048 15.0708,5.2503 23.368,5.2503 11.684,0 25.2264,-5.5909 33.6931,-15.7509 5.08,-6.096 8.6403,-13.8815 8.6403,-23.5335 0,-12.1919 -7.9607,-22.8637 -22.1847,-23.8797 2.54,-1.3547 5.9246,-3.7256 8.4646,-6.6042 4.064,-4.572 7.2812,-9.8188 7.2812,-16.4228 0,-7.4507 -4.0619,-18.7947 -27.4299,-18.7947 z m -489.37578,0.677 c -1.69333,0 -4.56994,0.6746 -8.4646,2.5373 -10.3293,4.7413 -21.84463,8.8075 -36.57658,14.9035 0,2.8786 1.35521,5.5879 3.72587,7.2812 9.14397,-3.8947 15.24067,-4.2323 17.61133,-4.2323 2.20133,0 3.21427,0.6749 3.21427,9.1415 v 53.0046 c 0,14.0545 -8.12748,14.7313 -17.44079,15.2393 -1.69333,1.016 -1.69333,4.7408 0,5.7568 0,0 21.84509,-0.3411 28.61841,-0.3411 6.77331,0 14.39204,0.1717 28.27734,0.3411 1.69333,-1.016 1.69333,-4.7408 0,-5.7568 -9.31331,-0.508 -17.4408,-1.1848 -17.4408,-15.2393 v -61.1333 c 0,-8.9747 1.35393,-18.6242 1.35393,-18.6242 0,-2.2013 -1.35438,-2.8783 -2.87838,-2.8783 z m 239.71668,0.1705 c -24.2146,0 -35.8997,15.9131 -35.8997,26.4118 0,4.2333 3.8931,9.1468 9.9891,9.1468 4.9106,0 9.8237,-3.7269 9.8237,-8.9762 0,-0.8467 -0.3395,-2.0314 -0.8475,-3.5554 -0.508,-1.1853 -1.018,-2.5401 -1.018,-4.4028 0,-3.8946 5.7586,-11.6841 14.056,-11.6841 3.5559,0 6.941,2.0327 9.989,5.9273 2.54,3.3867 4.5734,8.9769 4.5734,14.9035 0,11.3453 -0.8479,18.6221 -9.6532,27.0888 l -14.3919,13.7201 c -20.9972,20.1506 -23.8781,24.7182 -24.3861,29.2902 l 0.677,5.4209 h 65.3655 c 2.032,-6.4346 4.065,-18.119 5.2503,-27.771 -2.2013,-1.016 -3.7276,-1.6949 -7.6222,-1.6949 -3.7254,11.5145 -8.6375,16.0868 -16.2575,16.0868 h -22.0089 c 0.508,-5.4186 2.1996,-9.8195 7.7876,-15.0688 l 9.989,-9.1416 c 20.1506,-18.4573 26.9235,-22.5248 26.9235,-38.4421 0,-7.2813 -2.5399,-13.5457 -7.2812,-18.1177 -6.096,-5.7573 -15.0673,-9.1416 -25.0579,-9.1416 z m 26.7528,248.8995 c -12.3612,1.1853 -18.6289,2.2015 -28.7889,2.2015 -6.9426,0 -12.357,-1.0177 -22.009,-1.695 l -6.7748,50.462 2.2014,1.3539 c 12.3613,-4.572 15.4079,-5.7567 23.8746,-5.7567 7.9586,0 14.056,8.4657 14.056,25.3989 0,16.5946 -5.9261,26.076 -15.2394,26.076 -3.3867,0 -6.6079,-3.3838 -9.3173,-7.6171 -2.2013,-3.3867 -6.4316,-6.6043 -12.6969,-6.6043 -6.096,0 -8.6351,4.2328 -8.6351,7.9582 0,3.048 2.367,6.7749 6.7696,8.9762 6.4347,3.556 16.7645,4.7387 24.8925,4.7387 22.5212,0 37.2536,-18.4581 37.2536,-38.778 0,-16.9333 -12.1925,-29.6313 -32.1738,-29.6313 -5.2493,0 -15.9142,1.1855 -19.9781,2.2015 1.1853,-8.8053 2.1983,-16.9367 3.2143,-22.3553 5.4186,0.508 17.4446,0.8475 24.5566,0.8475 6.096,0 9.1423,-0.3354 19.4717,-1.0128 l 3.2195,-14.5624 z m 252.2017,0.2533 c -23.8759,0.8467 -36.5747,5.4161 -49.444,16.4227 -13.0386,11.176 -18.2883,28.9558 -18.2883,45.2117 0,36.2372 19.9803,43.3514 37.083,43.3514 0.3211,0 0.5726,-0.087 0.8889,-0.093 l 0.1085,-6.7541 c -8.1722,-0.5413 -16.7484,-7.5621 -16.7484,-35.8273 0,-1.8627 0,-6.0955 0.1706,-7.9582 0.097,-0.059 0.1321,-0.051 0.2274,-0.1085 0.1312,-2.4214 0.4409,-4.6634 0.8371,-6.9195 -0.07,0.036 -0.1476,0.051 -0.217,0.088 0.099,-0.8868 0.3741,-1.7265 0.5167,-2.6045 0.053,-0.2887 0.076,-0.7397 0.1241,-1.0077 l 0.078,0.015 c 1.9684,-10.8061 7.0393,-20.7762 14.3505,-26.7167 9.9907,-8.128 21.6744,-9.6516 31.3263,-10.1596 0.508,-2.032 0.1725,-5.2467 -1.0129,-6.9401 z m -525.14624,0.6769 c -1.77863,2.102 -3.83338,4.9724 -5.77742,7.5344 0.0117,3.4823 -0.0149,7.1594 -0.093,11.095 0.0328,-0.045 0.081,-0.1313 0.11369,-0.1757 v 49.4492 h -0.0879 c 0.083,2.5469 0.10558,5.1282 -0.0103,7.9581 h 0.0982 v 6.7748 c 0,14.0546 -6.43767,14.7314 -15.75098,15.2394 -1.69333,1.016 -1.69333,4.7407 0,5.7567 0,0 19.64368,-0.341 26.41699,-0.341 6.77332,0 12.19064,0.1717 26.07593,0.341 1.69333,-1.016 1.69333,-4.7407 0,-5.7567 -9.31331,-0.508 -15.74581,-1.1848 -15.74581,-15.2394 v -6.7748 h 14.22652 c 2.37066,0 4.90927,-3.2184 4.90927,-5.2503 0,-1.6934 -0.67982,-2.7078 -2.54248,-2.7078 h -16.59331 v -67.9029 z m -7.79797,10.1699 c -11.90655,16.1256 -25.91455,38.368 -37.24321,55.361 -0.508,0.6773 -1.18856,1.6934 -1.18856,2.2014 0,0.6773 1.35595,2.0338 2.37195,3.8964 l 2.54248,3.0438 c 0.84667,0.8467 1.52224,1.1885 5.58623,1.1885 h 27.87943 c 0.1193,-2.8256 0.0947,-5.3961 0.0103,-7.9581 h -29.07316 c 7.89279,-13.1021 20.09359,-33.5234 29.01631,-46.1936 0.14215,-4.3806 0.10565,-7.8867 0.0982,-11.5394 z m 505.00281,30.639 c -3.5647,0.4456 -9.566,2.3565 -15.1102,4.9506 -0.3889,2.1646 -0.6296,4.4217 -0.832,6.7748 4.611,-2.4562 7.6122,-3.2608 10.1854,-3.2608 9.8213,0 16.5933,11.853 16.5933,21.8436 0,17.2768 -4.8727,25.3644 -10.5471,26.2362 l -0.1034,6.6559 c 24.1193,-1.568 33.3416,-21.4615 33.3416,-35.9358 0,-8.2973 -5.9264,-26.5871 -33.5276,-27.2645 z m -534.54106,208.0028 c -0.508,0 -0.67696,0 -0.67696,0.5116 -0.16934,8.128 -2.03532,24.5519 -3.38998,33.3571 l 5.92729,0.5065 c 3.72533,-13.5466 9.48086,-14.733 15.06885,-14.733 h 32.85071 c -11.17597,23.1986 -30.30877,60.1162 -43.51673,84.3308 l 1.01803,2.0309 17.27026,-1.695 c 11.3453,-28.956 20.4894,-54.3539 42.33334,-100.4125 l -1.01803,-1.5244 H 807.2324 c -5.75731,0 -6.09357,-1.6946 -9.14156,-2.372 z m 283.10416,0.5116 c -0.1892,0 -0.3396,0.035 -0.5271,0.036 v 6.041 c 11.0691,0.4243 12.0406,9.3242 12.0406,16.1023 0,7.2814 -1.1855,14.9017 -6.6042,18.2883 l -8.4646,-4.4028 c -8.4667,-4.2334 -9.8237,-10.326 -9.8237,-15.5753 0,-7.5473 1.4835,-13.6908 10.852,-14.3247 v -5.9996 c -22.1359,0.8695 -31.6776,12.5236 -31.6776,25.2336 0,9.652 3.7215,15.5794 16.2522,22.0141 l 3.5554,1.8604 c -16.0866,7.9587 -25.0579,16.0862 -25.0579,29.1248 0,17.4521 14.848,26.3655 36.0443,26.5255 v -6.8471 c -8.5356,-0.3218 -15.2187,-5.127 -15.2187,-19.6784 0,-5.08 -0.5064,-17.1004 11.1776,-25.2284 l 9.1415,4.9092 c 12.192,6.4347 13.3791,12.8682 13.3791,20.9962 0,15.4664 -9.3003,18.7118 -16.4797,19.0014 v 6.7955 c 25.3534,-0.6242 37.4758,-16.4016 37.4758,-29.1817 0,-9.9907 -4.5706,-19.6429 -14.3919,-25.5695 l -9.4826,-5.5862 c 9.9907,-2.8787 18.9652,-11.1769 18.9652,-22.0142 0,-12.3613 -8.9731,-22.5206 -31.1557,-22.5206 z m 247.8815,0 c -0.4404,0 -0.7883,0.1123 -1.2195,0.124 v 6.6715 c 8.2385,0.4245 16.9653,7.3511 16.9653,35.8737 0,1.8627 0,6.0955 -0.1653,7.9582 -0.077,0.047 -0.1001,0.042 -0.1757,0.088 -0.1242,2.3849 -0.5167,4.7266 -0.9405,7.0693 0.032,-0.017 0.066,-0.024 0.098,-0.041 -0.055,0.5617 -0.2414,1.09 -0.3152,1.6484 -0.047,0.2846 -0.07,0.5666 -0.1137,0.8527 l -0.046,-0.01 c -1.6852,11.2338 -7.0194,21.656 -14.4229,27.6417 -9.9907,8.128 -21.6795,9.6516 -31.3314,10.1596 -0.6774,2.2014 -0.3367,5.4213 1.018,6.9453 23.8759,-0.6774 36.5748,-5.2519 49.444,-16.4279 12.8693,-11.0067 18.2883,-28.9558 18.2883,-45.2117 0,-36.2373 -19.9803,-43.3462 -37.083,-43.3462 z m -3.2194,0.3307 c -23.869,1.7443 -33.0161,21.6595 -33.0161,35.9048 0,8.2973 5.7571,26.7565 33.5277,27.2645 3.5804,-0.4475 9.4997,-2.25 15.0327,-4.8317 0.4106,-2.4164 0.7238,-4.6776 0.9353,-6.904 -4.7095,2.5471 -7.6284,3.2659 -10.2113,3.2659 -9.8213,0 -16.5933,-11.6836 -16.5933,-21.8436 0,-17.0453 4.7494,-25.0952 10.325,-26.1534 z m -245.3546,249.7109 v 7.2915 c 6.3163,0.5499 13.3894,11.5411 13.3894,40.5867 0,38.4848 -6.9196,48.6874 -13.3894,49.7386 v 7.1933 c 16.5767,-0.6842 37.4345,-14.2902 37.4345,-53.5471 0,-39.4131 -20.5883,-51.0436 -37.4345,-51.263 z m -1.9998,0.124 c -21.1011,0.8742 -37.4396,19.5983 -37.4396,52.6635 0,27.5098 13.1604,51.6224 37.4396,52.0743 v -7.2605 c -13.1346,-1.235 -13.224,-28.8762 -13.224,-42.9483 0,-38.1484 6.8293,-46.094 13.224,-47.1031 z m 290.3543,7.183 c -7.4413,0 -12.8708,1.9844 -16.2884,5.9532 -13.174,15.3238 -27.5056,35.3881 -42.9948,60.1927 -0.7716,1.1024 -1.5158,1.6536 -2.2324,1.6536 -0.937,0 -2.508,-3.3073 -4.7129,-9.9219 -1.1024,-3.5277 -2.7285,-5.2916 -4.8782,-5.2916 -1.819,0 -3.9136,0.6614 -6.2839,1.9844 -3.8584,2.1497 -5.7877,4.3821 -5.7877,6.6972 0,2.1498 1.4332,7.4415 4.2994,15.875 2.5356,7.6068 4.7405,11.8236 6.6146,12.6504 0.7166,0.3307 3.0593,0.4961 7.028,0.4961 3.9136,0 6.5044,-0.9922 7.7722,-2.9766 18.19,-28.4425 37.9236,-55.4522 59.2005,-81.0286 1.819,-2.2599 2.7285,-3.7758 2.7285,-4.5475 0,-0.4961 -0.3032,-0.9095 -0.9095,-1.2403 -0.6063,-0.3307 -1.7915,-0.4961 -3.5554,-0.4961 z m -567.63457,8.7385 c -12.69996,13.5466 -25.06037,24.72 -37.08301,33.1866 v 2.1343 h 12.1388 c 12.94724,-10.9608 20.90691,-16.6058 30.3599,-27.3627 h 9.65316 l 24.04504,28.6132 -23.87451,28.4479 h -9.98905 c -9.67301,-10.9846 -17.63219,-16.8934 -30.41158,-27.6986 h -11.92176 v 2.2997 c 10.66797,7.4505 24.04438,19.3064 37.08301,33.1917 h 42.76742 v -7.7928 h -17.70952 l 18.79989,-22.5206 18.96525,22.5206 h -18.05575 v 7.7928 h 48.87041 v -35.4914 h -8.97103 v 27.6986 h -12.02511 l -23.87451,-28.4479 24.04505,-28.6132 h 11.85457 v 27.3627 h 8.97103 v -35.3209 h -48.87041 v 7.9582 h 18.39165 l -19.30115,22.8565 -19.13578,-22.8565 h 18.04541 v -7.9582 z" /></g><g
     inkscape:groupmode="layer"
     id="layer12"
     inkscape:label="Notes"><text
       xml:space="preserve"
       style="font-size:63.5px;line-height:125%;font-family:'Cooper Black';-inkscape-font-specification:'Cooper Black, ';letter-spacing:0px;word-spacing:0px;fill:#000000;stroke:none;stroke-width:2.64583px;stroke-linecap:butt;stroke-linejoin:miter;stroke-opacity:1"
       x="358.96466"
       y="2587.134"
       id="text8660"><tspan
         sodipodi:role="line"
         id="tspan8658"
         style="stroke-width:2.64583px;fill:#000000;stroke:none"
         x="358.96466"
         y="2587.134">Export full page then position at (0,-25mm)</tspan><tspan
         sodipodi:role="line"
         style="stroke-width:2.64583px;fill:#000000;stroke:none"
         x="358.96466"
         y="2666.509"
         id="tspan8712">when importing.  Change polygon line widths to 0.</tspan></text></g><g
     inkscape:groupmode="layer"
     id="layer3"
     inkscape:label="Silkscreen"
     style="display:inline"
     sodipodi:insensitive="true"><g
       id="g11920"
       transform="translate(-5.6032526)"><path
         fill="#0099b0"
         d="m 853.63711,2187.3385 -22.3068,-4.1482 c -0.5428,-0.1018 -1.1372,-0.612 -1.3204,-1.1358 l -6.8376,-15.9523 c -0.2551,-0.4925 -0.2063,-1.266 0.1085,-1.7247 l 12.9969,-18.943 c 0.3107,-0.4559 0.2497,-1.1493 -0.1425,-1.5415 l -16.2332,-16.2331 c -0.3921,-0.3922 -1.0842,-0.456 -1.5401,-0.1425 l -19.2755,13.2275 c -0.4559,0.3135 -1.2375,0.3691 -1.7328,0.1249 l -15.4637,-6.3302 c -0.5252,-0.1737 -1.0367,-0.7612 -1.1399,-1.3054 l -4.2947,-23.0722 c -0.1004,-0.5441 -0.6364,-0.9892 -1.1901,-0.9892 h -22.95954 c -0.55225,0 -1.08824,0.4451 -1.18866,0.9892 l -4.29337,23.0722 c -0.10314,0.5442 -0.61339,1.1317 -1.13984,1.3054 l -15.46515,6.3302 c -0.49666,0.2442 -1.27826,0.1886 -1.73281,-0.1249 l -19.27411,-13.2275 c -0.45729,-0.3135 -1.15069,-0.2497 -1.54149,0.1425 l -16.23453,16.2331 c -0.3908,0.3922 -0.45593,1.0856 -0.14248,1.5415 l 12.99821,18.943 c 0.31209,0.4587 0.36094,1.2322 0.1072,1.7247 l -6.83902,15.9523 c -0.18183,0.5238 -0.77482,1.034 -1.32031,1.1358 l -22.30551,4.1482 c -0.5455,0.1031 -0.98922,0.6377 -0.98922,1.1913 l 0.002,22.9583 c 0,0.5536 0.44508,1.0923 0.98921,1.1914 l 21.75867,4.0491 c 0.54413,0.099 1.12626,0.6161 1.29182,1.1439 l 6.79288,16.9687 c 0.24289,0.4979 0.1859,1.2768 -0.12892,1.7328 l -12.35908,18.0108 c -0.3121,0.4559 -0.24832,1.1506 0.14248,1.5428 l 16.23589,16.2332 c 0.3908,0.3894 1.0842,0.4532 1.54149,0.1424 l 17.69192,-12.1433 c 0.45593,-0.3121 1.21989,-0.3365 1.69619,-0.058 l 7.80243,4.1659 c 0.49393,0.2524 1.07065,0.039 1.28231,-0.4722 l 16.08797,-38.8725 c 0.21305,-0.5116 0,-1.1643 -0.47219,-1.4533 l -1.95267,-1.1955 c -0.36095,-0.2198 -0.85079,-0.5984 -1.23482,-0.9458 -7.04391,-4.5105 -11.71726,-12.4011 -11.71726,-21.3868 0,-14.0227 11.36851,-25.3899 25.38991,-25.3899 14.0213,0 25.3885,11.3672 25.3885,25.3899 0,8.9857 -4.672,16.8763 -11.7172,21.3868 -0.3814,0.3474 -0.8726,0.726 -1.2321,0.9458 l -1.9527,1.1955 c -0.4695,0.289 -0.6839,0.9417 -0.4722,1.4533 l 16.0866,38.8739 c 0.2117,0.5115 0.787,0.7232 1.2823,0.4721 l 7.8025,-4.1658 c 0.4776,-0.2782 1.2402,-0.2551 1.6962,0.058 l 17.6932,12.1433 c 0.4559,0.3107 1.1507,0.247 1.5401,-0.1425 l 16.2359,-16.2332 c 0.3922,-0.3921 0.4559,-1.0869 0.1425,-1.5428 l -12.3605,-18.0108 c -0.312,-0.4559 -0.3704,-1.2348 -0.1275,-1.7328 l 6.7929,-16.9686 c 0.1669,-0.5279 0.7449,-1.0449 1.2905,-1.144 l 21.7586,-4.0491 c 0.5428,-0.099 0.9892,-0.6378 0.9892,-1.1914 l 0.01,-22.9582 c 0,-0.555 -0.4438,-1.0896 -0.9865,-1.1927"
         id="path11289"
         style="fill:#000000;stroke-width:2.64583" /><g
         aria-label="OpenEVSE"
         id="text11915"
         style="font-size:141.111px;line-height:125%;font-family:'Linux Libertine O';-inkscape-font-specification:'Linux Libertine O, Normal';letter-spacing:0px;word-spacing:0px;stroke-width:2.64583px"><path
           d="m 917.57895,2164.2094 c 18.62666,0 33.72553,15.5222 33.72553,44.0267 0,25.2588 -12.13554,40.0755 -28.2222,40.0755 -17.21554,0 -33.4433,-15.3811 -33.4433,-42.4744 0,-29.6333 13.96999,-41.6278 27.93997,-41.6278 z m 47.27219,41.3456 c 0,-29.21 -20.17888,-46.4256 -45.43774,-46.4256 -27.37554,0 -43.32108,21.8722 -43.32108,49.1067 0,27.7988 20.17887,45.1555 44.16774,45.1555 15.52221,0 28.08109,-6.6322 35.8422,-17.78 5.64443,-7.9022 8.74888,-18.2033 8.74888,-30.0566 z"
           id="path3952" /><path
           d="m 994.62551,2205.2727 c 3.66888,-4.5155 10.01889,-8.7489 14.25219,-8.7489 9.0311,0 16.7922,10.16 16.7922,26.1056 0,11.5711 -4.0922,25.9644 -19.8966,25.9644 -2.54,0 -7.47891,-0.7056 -10.0189,-2.9633 -2.96334,-2.54 -3.38667,-3.2456 -3.38667,-8.4667 v -25.6822 c 0,-2.9633 0.56445,-4.0922 2.25778,-6.2089 z m -2.68111,-5.2211 c -0.28222,-4.2333 -0.56445,-7.7611 -1.12889,-9.3133 -0.42333,-0.5644 -0.56444,-1.1289 -1.69333,-1.1289 -3.95111,1.5522 -7.61999,2.8222 -17.35665,4.0922 -0.28223,0.8467 0,3.1045 0.28222,3.9511 7.61999,0.7056 9.17221,1.4111 9.17221,9.5956 v 60.2544 c 0,11.7122 -1.55222,12.4177 -10.15999,12.8411 -0.84666,0.8466 -0.84666,3.81 0,4.6566 4.93889,-0.1411 10.15999,-0.2822 15.80443,-0.2822 5.64444,0 12.41777,0.1411 17.0744,0.2822 0.8467,-0.8466 0.8467,-3.81 0,-4.6566 -10.01885,-0.5645 -11.57107,-1.1289 -11.57107,-12.8411 v -15.24 c 0,-1.8345 0.42333,-1.5522 1.97556,-0.9878 3.38666,1.4111 7.76111,2.1167 12.27661,2.1167 7.9023,0 14.9578,-2.3989 20.7434,-7.9022 6.6322,-6.4911 10.4422,-15.24 10.4422,-26.67 0,-14.9578 -10.5834,-28.7867 -24.9767,-28.7867 -6.6322,0 -13.82885,4.3745 -19.33218,10.5834 -0.84667,0.9877 -1.55222,0.8466 -1.55222,-0.5645 z"
           id="path3954" /><path
           d="m 1061.6531,2212.1872 c 2.6811,-15.9456 12.5589,-17.2156 15.9455,-17.2156 5.3623,0 11.7123,2.9634 11.7123,14.8167 0,1.27 -0.5645,1.9755 -2.1167,1.9755 z m 36.9711,26.6699 c -5.2211,5.3623 -9.3133,7.62 -17.4978,7.62 -5.08,0 -11.0066,-2.9633 -15.3811,-10.16 -2.8222,-4.6566 -4.5155,-11.1477 -4.5155,-19.3322 l 37.5355,0.2823 c 1.6933,0 2.6811,-0.8467 2.6811,-2.3989 0,-11.8533 -4.2333,-24.5533 -23.8478,-24.5533 -12.2766,0 -28.2222,11.7122 -28.2222,33.161 0,7.9023 1.9756,15.5223 6.6323,20.8845 4.7977,5.6444 11.4299,9.0311 21.5899,9.0311 10.7245,0 18.3445,-4.9389 23.9889,-12.2767 -0.4233,-1.4111 -1.27,-2.1166 -2.9633,-2.2578 z"
           id="path3956" /><path
           d="m 1133.1964,2201.4627 c -0.9877,0.9878 -1.6933,1.4111 -1.6933,0 -0.1411,-3.81 -0.5644,-9.1722 -1.1289,-10.7244 -0.4233,-0.5644 -0.5644,-1.1289 -1.6933,-1.1289 -3.9511,1.5522 -7.62,2.8222 -17.3567,4.0922 -0.2822,0.8467 0,3.1045 0.2823,3.9511 7.62,0.7056 9.1722,1.4111 9.1722,9.5956 v 27.5166 c 0,11.5711 -1.4111,12.1356 -9.8778,12.8411 -0.8467,0.8467 -0.8467,3.81 0,4.6567 4.2333,-0.1411 9.8778,-0.2822 15.5222,-0.2822 5.6445,0 9.8778,0.1411 14.1111,0.2822 0.8467,-0.8467 0.8467,-3.81 0,-4.6567 -7.1966,-0.7055 -8.6078,-1.27 -8.6078,-12.8411 v -23.1422 c 0,-2.9633 1.27,-4.6566 2.3989,-5.9266 5.3623,-5.2211 11.7122,-8.3256 17.2156,-8.3256 2.8222,0 5.7855,1.8345 7.4789,5.08 1.4111,2.8222 1.6933,6.6322 1.6933,10.8656 v 21.4488 c 0,11.5711 -1.4111,12.1356 -8.7489,12.8411 -0.7055,0.8467 -0.7055,3.81 0,4.6567 4.2333,-0.1411 8.7489,-0.2822 14.3933,-0.2822 5.6445,0 10.7245,0.1411 14.9578,0.2822 0.7056,-0.8467 0.7056,-3.81 0,-4.6567 -7.9022,-0.7055 -9.4544,-1.27 -9.4544,-12.8411 v -21.0255 c 0,-7.7611 -0.5645,-14.5344 -3.81,-18.9089 -2.3989,-3.1044 -6.7734,-4.7978 -11.7122,-4.7978 -6.9145,0 -14.8167,1.8345 -23.1423,11.43 z"
           id="path3958" /><path
           d="m 1223.3663,2201.0394 h -12.8411 v -25.4 c 0,-6.2089 1.6934,-9.0311 9.3134,-9.0311 h 10.5833 c 10.5833,0 12.8411,5.6445 15.9455,15.3811 1.6934,0.2822 3.2456,0 4.6567,-0.7055 -0.7056,-5.7856 -2.8222,-19.3322 -3.1045,-20.4611 0,-0.2823 -0.1411,-0.4234 -0.5644,-0.4234 -2.3989,0.4234 -3.5278,0.5645 -6.9144,0.5645 h -35.9833 c -4.3745,0 -12.5589,-0.1411 -18.2034,-0.2822 -0.8466,0.8466 -0.8466,3.81 0,4.6566 9.8778,0.4234 12.2767,1.1289 12.2767,12.8411 v 56.5855 c 0,11.7122 -2.3989,12.4178 -12.2767,12.8411 -0.8466,0.8467 -0.8466,3.81 0,4.6567 5.2211,-0.1411 13.6878,-0.2822 18.3445,-0.2822 h 30.3388 c 6.7734,0 18.0622,0.2822 18.0622,0.2822 1.9756,-7.0556 4.0923,-16.3689 5.2211,-23.5655 -1.5522,-0.7056 -3.1044,-1.1289 -4.9388,-0.7056 -2.8223,10.16 -7.7611,18.4855 -18.4856,18.4855 h -16.3689 c -5.9266,0 -7.9022,-2.2577 -7.9022,-8.89 v -31.1855 h 12.8411 c 11.9945,0 12.4178,3.2456 12.8411,9.5956 0.8467,0.8466 3.81,0.8466 4.6567,0 -0.1411,-3.6689 -0.2822,-7.4789 -0.2822,-12.4178 0,-3.9511 0.1411,-8.7489 0.2822,-12.1355 -0.8467,-0.8467 -3.81,-0.8467 -4.6567,0 -0.4233,7.7611 -0.8466,9.5955 -12.8411,9.5955 z"
           id="path3960" /><path
           d="m 1325.5306,2165.3383 c 10.4422,0.7056 10.4422,4.5156 7.4789,12.1356 l -22.2956,56.5855 h -0.7055 l -22.4367,-57.4322 c -3.2455,-8.3255 -2.3989,-10.3011 7.1967,-11.2889 0.8467,-0.8466 0.8467,-3.81 0,-4.6566 -5.6444,0.1411 -11.9944,0.2822 -17.0744,0.2822 -5.2211,0 -10.0189,-0.1411 -14.6756,-0.2822 -0.8466,0.8466 -0.7055,3.81 0.1411,4.6566 7.7611,0.7056 8.7489,3.1045 12.5589,12.8411 l 27.94,72.2488 c 0.8467,2.2578 1.8344,3.2456 3.2455,3.2456 1.5523,0 2.54,-1.1289 3.3867,-3.2456 l 29.0689,-71.9666 c 2.6811,-6.6322 5.08,-12.1355 13.97,-13.1233 0.8466,-0.8466 0.8466,-3.81 0,-4.6566 -4.2334,0.1411 -9.1723,0.2822 -12.4178,0.2822 -3.2456,0 -9.5956,-0.1411 -15.3811,-0.2822 -0.8467,0.8466 -0.8467,3.81 0,4.6566 z"
           id="path3962" /><path
           d="m 1409.915,2162.9394 c -8.1844,-1.1289 -7.7611,-3.81 -21.59,-3.81 -14.2522,0 -26.811,9.4545 -26.811,24.4122 0,14.9578 12.1355,21.7311 24.5533,26.3878 8.6077,3.3867 19.0499,7.3378 19.0499,21.0255 0,11.43 -6.4911,17.3567 -17.6388,17.3567 -13.2645,0 -21.7311,-5.9267 -24.8356,-20.0378 -1.6933,-0.5644 -3.2455,-0.2822 -4.5155,0.4234 0.5644,10.8655 1.1289,14.5344 2.8222,21.4488 8.89,0 12.7,3.2456 25.2589,3.2456 6.4911,0 12.5589,-1.5522 17.4977,-4.5156 8.0434,-5.08 13.2645,-13.8289 13.2645,-22.86 0,-14.9577 -11.43,-21.5899 -23.0011,-25.8233 -8.3256,-3.2455 -22.4367,-8.4666 -22.4367,-20.4611 0,-7.9022 7.1967,-15.8044 15.3811,-15.8044 13.8289,0 18.2033,8.7489 21.0256,18.0622 1.4111,0.2822 3.2455,0.1411 4.5155,-0.8466 -0.4233,-6.7734 -0.9878,-10.7245 -2.54,-18.2034 z"
           id="path3964" /><path
           d="m 1462.4084,2201.0394 h -12.8411 v -25.4 c 0,-6.2089 1.6933,-9.0311 9.3133,-9.0311 h 10.5834 c 10.5833,0 12.8411,5.6445 15.9455,15.3811 1.6933,0.2822 3.2456,0 4.6567,-0.7055 -0.7056,-5.7856 -2.8223,-19.3322 -3.1045,-20.4611 0,-0.2823 -0.1411,-0.4234 -0.5644,-0.4234 -2.3989,0.4234 -3.5278,0.5645 -6.9145,0.5645 h -35.9833 c -4.3744,0 -12.5588,-0.1411 -18.2033,-0.2822 -0.8466,0.8466 -0.8466,3.81 0,4.6566 9.8778,0.4234 12.2767,1.1289 12.2767,12.8411 v 56.5855 c 0,11.7122 -2.3989,12.4178 -12.2767,12.8411 -0.8466,0.8467 -0.8466,3.81 0,4.6567 5.2211,-0.1411 13.6878,-0.2822 18.3445,-0.2822 h 30.3388 c 6.7733,0 18.0622,0.2822 18.0622,0.2822 1.9756,-7.0556 4.0922,-16.3689 5.2211,-23.5655 -1.5522,-0.7056 -3.1044,-1.1289 -4.9389,-0.7056 -2.8222,10.16 -7.7611,18.4855 -18.4855,18.4855 h -16.3689 c -5.9266,0 -7.9022,-2.2577 -7.9022,-8.89 v -31.1855 h 12.8411 c 11.9944,0 12.4178,3.2456 12.8411,9.5956 0.8467,0.8466 3.81,0.8466 4.6567,0 -0.1411,-3.6689 -0.2822,-7.4789 -0.2822,-12.4178 0,-3.9511 0.1411,-8.7489 0.2822,-12.1355 -0.8467,-0.8467 -3.81,-0.8467 -4.6567,0 -0.4233,7.7611 -0.8467,9.5955 -12.8411,9.5955 z"
           id="path3966" /></g></g><g
       id="g10094"
       transform="translate(2.4999999e-5,-100.47977)"
       style="display:inline"><rect
         style="fill:none;stroke:#000000;stroke-width:2.5;stroke-miterlimit:4;stroke-dasharray:none"
         id="rect10034"
         width="750"
         height="1000"
         x="704.5"
         y="1097.3174" /><rect
         style="fill:none;stroke:#000000;stroke-width:2.5;stroke-miterlimit:4;stroke-dasharray:none"
         id="rect10036"
         width="250"
         height="1000"
         x="954.5"
         y="1097.3174" /><path
         style="fill:none;stroke:#000000;stroke-width:2.5;stroke-miterlimit:4;stroke-dasharray:none"
         d="m 704.5,1347.3174 h 750"
         id="path10038"
         sodipodi:nodetypes="cc" /><path
         style="fill:none;stroke:#000000;stroke-width:2.5;stroke-miterlimit:4;stroke-dasharray:none"
         d="m 704.5,1847.3175 h 750"
         id="path10038-5"
         sodipodi:nodetypes="cc" /><path
         style="fill:none;stroke:#000000;stroke-width:2.5;stroke-miterlimit:4;stroke-dasharray:none"
         d="m 704.5,1597.3174 h 750"
         id="path10038-6"
         sodipodi:nodetypes="cc" /><path
         style="fill:none;stroke:#000000;stroke-width:2.5;stroke-miterlimit:4;stroke-dasharray:none"
         d="m 704.5,1097.3174 h 750"
         id="path10038-2"
         sodipodi:nodetypes="cc" /><path
         style="fill:none;stroke:#000000;stroke-width:2.5;stroke-miterlimit:4;stroke-dasharray:none"
         d="m 704.5,2097.3174 h 750"
         id="path10038-9"
         sodipodi:nodetypes="cc" /></g><g
       aria-label="BACK"
       id="text5878-5"
       style="font-weight:bold;font-size:49.3889px;line-height:125%;font-family:'Linux Libertine O';-inkscape-font-specification:'Linux Libertine O, Bold';text-align:center;letter-spacing:0px;word-spacing:0px;text-anchor:middle;display:inline;stroke-width:2.64583px;stroke:none"><path
         d="m 772.11006,1959.3116 c 0,-1.4323 0.24694,-2.1238 3.45722,-2.1238 2.27189,0 5.03767,0.889 5.03767,5.7291 0,3.9512 -2.2225,5.581 -5.72912,5.581 h -2.76577 z m 0,11.2606 h 3.50661 c 5.08705,0 7.30955,3.0127 7.30955,7.2602 0,2.9633 -1.03716,7.2602 -7.5565,7.2602 -2.96333,0 -3.25966,-0.7409 -3.25966,-2.1732 z m -3.40784,-15.3599 c -1.97555,0 -7.60589,-0.099 -7.60589,-0.099 -0.49389,0.2963 -0.49389,1.3829 0,1.6792 2.71639,0.1482 4.09928,0.3457 4.09928,4.445 v 19.805 c 0,4.0992 -1.38289,4.2968 -4.09928,4.445 -0.49389,0.2963 -0.49389,1.3829 0,1.6792 0,0 5.63034,-0.099 7.60589,-0.099 1.97556,0 5.13645,0.099 8.09978,0.099 10.12473,0 13.38439,-4.2475 13.38439,-9.2851 0,-4.3462 -2.17311,-7.1614 -7.40833,-8.5443 v -0.099 c 2.667,-1.1853 4.74133,-3.9017 4.74133,-6.4205 0,-3.4079 -1.87678,-7.7047 -11.80394,-7.7047 -2.46945,0 -5.48217,0.099 -7.01323,0.099 z"
         id="path4866"
         style="stroke:none" /><path
         d="m 805.94142,1973.0911 c -1.08656,0 -1.43228,-0.1482 -1.28411,-0.6421 l 4.39561,-11.0631 h 0.34572 l 4.04989,11.7052 z m -5.334,10.0753 2.61761,-6.8651 c 0.24694,-0.642 0.54328,-0.8396 1.72861,-0.8396 h 9.38389 l 2.76578,8.0504 c 0.69145,2.025 -1.3335,1.8274 -3.65478,1.9756 -0.29633,0.2963 -0.29633,1.3829 0,1.6792 1.82739,-0.049 6.51934,-0.099 8.4455,-0.099 2.02495,0 4.79073,0.049 6.61812,0.099 0.29633,-0.2963 0.29633,-1.3829 0,-1.6792 -1.92617,-0.1482 -3.556,-0.1482 -4.445,-2.667 l -10.17412,-28.2505 c -0.74083,0.4445 -3.70416,2.1731 -5.48217,2.1731 l -10.668,25.2871 c -1.28411,3.0622 -2.81517,3.3091 -4.93889,3.4573 -0.29633,0.2963 -0.29633,1.3829 0,1.6792 1.82739,-0.049 2.71639,-0.099 4.64256,-0.099 2.02494,0 4.74133,0.049 6.56872,0.099 0.29634,-0.2963 0.29634,-1.3829 0,-1.6792 -1.87678,-0.099 -4.19805,-0.2964 -3.40783,-2.3213 z"
         id="path4868"
         style="stroke:none" /><path
         d="m 846.93417,1987.562 c 4.79073,0 9.18634,-2.2719 12.54478,-6.6675 -0.24694,-0.4445 -1.08655,-1.0372 -1.62983,-1.0372 -3.50661,3.8524 -7.50711,5.1365 -10.96434,5.1365 -5.72911,0 -10.27289,-6.7169 -10.27289,-14.4216 0,-7.6553 3.95112,-13.977 9.82839,-13.977 6.81567,0 9.03817,3.8523 10.32228,8.0997 0.59267,0.1976 1.53106,0.049 2.12373,-0.2469 -0.24695,-2.5682 -0.64206,-4.9389 -1.08656,-7.6553 -2.51883,-0.2469 -4.74133,-2.2225 -10.81617,-2.2225 -9.68022,0 -17.82939,6.0749 -17.82939,16.9404 0,4.6426 1.97556,10.1247 5.97606,12.9399 3.16089,2.2719 7.01322,3.1115 11.80394,3.1115 z"
         id="path4870"
         style="stroke:none" /><path
         d="m 867.52932,1961.2377 v 19.805 c 0,4.0992 -1.38289,4.2968 -4.09928,4.445 -0.49389,0.2963 -0.49389,1.3829 0,1.6792 1.97556,-0.049 5.63034,-0.099 7.60589,-0.099 1.97556,0 5.53156,0.049 7.50711,0.099 0.49389,-0.2963 0.49389,-1.3829 0,-1.6792 -2.71639,-0.1482 -4.09927,-0.3458 -4.09927,-4.445 v -9.6803 c 1.48166,0.3458 2.17311,1.0372 3.21027,2.3213 l 7.45773,9.7296 c 0.98778,1.2841 1.67922,2.667 1.778,3.4573 0,0.1481 0.0494,0.2963 0.24694,0.2963 0.98778,-0.049 3.60539,-0.099 5.08706,-0.099 1.92617,0 3.90172,0.049 5.82789,0.099 0.29633,-0.2963 0.29633,-1.3829 0,-1.6792 -1.48167,-0.1976 -2.61761,-0.5433 -3.85233,-2.0744 l -10.81617,-12.7917 c -0.889,-0.9878 -1.48167,-1.8274 -1.48167,-2.2225 0,-0.3457 0.0494,-0.9384 0.59267,-1.4323 l 5.38339,-4.7907 c 2.86455,-2.5682 5.63033,-4.9389 8.59367,-5.3834 0.29633,-0.2963 0.29633,-1.3829 0,-1.6792 -1.23473,0.049 -3.01273,0.099 -4.69195,0.099 -1.97556,0 -4.24745,-0.049 -6.07484,-0.099 -0.29633,0.2963 -0.29633,1.3829 0,1.6792 2.86456,0.2964 2.71639,1.8274 0.24695,4.3462 -1.58045,1.5805 -5.28461,4.692 -5.28461,4.692 -3.25967,2.8645 -4.59317,3.8523 -6.223,4.3956 v -8.9888 c 0,-4.0993 1.38288,-4.2968 4.09927,-4.445 0.49389,-0.2963 0.49389,-1.3829 0,-1.6792 -1.97555,0.049 -5.53155,0.099 -7.50711,0.099 -1.97555,0 -5.63033,-0.049 -7.60589,-0.099 -0.49389,0.2963 -0.49389,1.3829 0,1.6792 2.71639,0.1482 4.09928,0.3457 4.09928,4.445 z"
         id="path4872"
         style="stroke:none" /></g><g
       aria-label="START"
       id="text5882-7"
       style="font-weight:bold;font-size:49.3889px;line-height:125%;font-family:'Linux Libertine O';-inkscape-font-specification:'Linux Libertine O, Bold';text-align:center;letter-spacing:0px;word-spacing:0px;text-anchor:middle;display:inline;stroke-width:2.65000005;stroke-dasharray:none;stroke:none"><path
         d="m 1270.3815,1955.9037 c -2.7164,-0.3951 -3.7535,-1.3335 -8.3467,-1.3335 -2.2719,0 -5.1858,0.7409 -7.2108,2.3707 -1.8768,1.4817 -3.2103,3.8029 -3.2103,6.1736 0,1.9262 0.4939,4.2474 1.6299,5.7291 2.2719,3.0621 6.3711,4.7907 8.4949,6.223 2.2718,1.5805 4.4943,3.556 4.4943,6.3218 0,2.4694 -2.1237,4.0993 -5.1364,4.0993 -3.3091,0 -6.7169,-2.7164 -7.7047,-7.2108 -0.8396,-0.2963 -1.6792,-0.049 -2.4694,0.1482 0,3.7041 0.3951,6.3217 0.9384,8.1491 2.8151,0 2.9139,0.9878 9.779,0.9878 3.0127,0 5.3834,-0.8396 7.4577,-2.667 1.7286,-1.5804 3.3584,-3.8523 3.3584,-6.9144 0,-2.5683 -1.1359,-4.2969 -2.5682,-5.9267 -1.9261,-2.1237 -4.6919,-3.6548 -6.6181,-4.6426 -1.9755,-0.9877 -5.4822,-3.556 -5.4822,-6.3711 0,-2.7658 1.6299,-4.445 4.1981,-4.445 4.1981,0 5.5809,3.8029 6.4699,7.0626 0.6915,0.1975 1.9262,0.1975 2.4695,-0.247 0,-2.6176 -0.1976,-4.6425 -0.5433,-7.5071 z"
         id="path4875"
         style="stroke-width:2.65000005;stroke-dasharray:none;stroke:none" /><path
         d="m 1294.4833,1980.9933 v -18.7678 c 0,-3.1609 0.4939,-4.9883 2.2719,-4.9883 h 1.0865 c 3.7042,0 5.7785,1.2347 6.6181,5.0377 0.5433,0 1.4817,-0.049 1.9262,-0.247 -0.3457,-2.2718 -0.5927,-4.8401 -0.642,-7.0626 0,-0.049 -0.099,-0.1481 -0.1482,-0.1481 -1.6792,0.1481 -7.1614,0.3951 -11.0631,0.3951 h -6.9639 c -3.8029,0 -9.6308,-0.247 -11.5076,-0.3951 -0.099,0 -0.1975,0.099 -0.1975,0.1481 -0.1976,2.2225 -0.6915,4.8401 -1.2348,7.2108 0.4939,0.1976 1.3335,0.247 1.9262,0.247 0.9878,-3.9512 3.0127,-5.1859 6.2724,-5.1859 h 2.4201 c 1.8273,0 2.3212,1.8274 2.3212,4.8401 v 18.916 c 0,4.0993 -0.8396,4.3462 -4.7907,4.4944 -0.2963,0.2963 -0.2963,1.3829 0,1.6792 2.4201,-0.049 4.9389,-0.099 8.1492,-0.099 3.2103,0 5.8773,0.049 8.3467,0.099 0.2963,-0.2963 0.2963,-1.3829 0,-1.6792 -3.9511,-0.1482 -4.7907,-0.3951 -4.7907,-4.4944 z"
         id="path4877"
         style="stroke-width:2.65000005;stroke-dasharray:none;stroke:none" /><path
         d="m 1317.7455,1973.0911 c -1.0866,0 -1.4323,-0.1482 -1.2841,-0.6421 l 4.3956,-11.0631 h 0.3457 l 4.0499,11.7052 z m -5.334,10.0753 2.6176,-6.8651 c 0.2469,-0.642 0.5433,-0.8396 1.7286,-0.8396 h 9.3839 l 2.7658,8.0504 c 0.6914,2.025 -1.3335,1.8274 -3.6548,1.9756 -0.2963,0.2963 -0.2963,1.3829 0,1.6792 1.8274,-0.049 6.5193,-0.099 8.4455,-0.099 2.0249,0 4.7907,0.049 6.6181,0.099 0.2963,-0.2963 0.2963,-1.3829 0,-1.6792 -1.9262,-0.1482 -3.556,-0.1482 -4.445,-2.667 l -10.1741,-28.2505 c -0.7408,0.4445 -3.7042,2.1731 -5.4822,2.1731 l -10.668,25.2871 c -1.2841,3.0622 -2.8151,3.3091 -4.9389,3.4573 -0.2963,0.2963 -0.2963,1.3829 0,1.6792 1.8274,-0.049 2.7164,-0.099 4.6426,-0.099 2.0249,0 4.7413,0.049 6.5687,0.099 0.2964,-0.2963 0.2964,-1.3829 0,-1.6792 -1.8768,-0.099 -4.198,-0.2964 -3.4078,-2.3213 z"
         id="path4879"
         style="stroke-width:2.65000005;stroke-dasharray:none;stroke:none" /><path
         d="m 1363.282,1964.0035 c 0,6.0748 -3.6547,7.0132 -7.8034,7.0132 h -2.1237 v -9.8284 c 0,-3.3584 1.1359,-4.3956 3.7535,-4.3956 2.8646,0 6.1736,1.1854 6.1736,7.2108 z m -4.5931,-9.2357 c -1.9756,0 -14.3722,0.3457 -16.3478,0.3457 -0.4938,0.2963 -0.4938,1.3829 0,1.6792 2.7164,0.1482 4.0993,0.3457 4.0993,4.445 v 19.805 c 0,4.0992 -1.3829,4.2968 -4.0993,4.445 -0.4938,0.2963 -0.4938,1.3829 0,1.6792 1.9756,-0.049 5.6304,-0.099 7.6059,-0.099 1.9756,0 5.5316,0.049 7.5071,0.099 0.4939,-0.2963 0.4939,-1.3829 0,-1.6792 -2.7163,-0.1482 -4.0992,-0.3458 -4.0992,-4.445 v -7.9516 c 3.9017,0.049 4.3462,0.3951 5.0376,1.4816 l 5.7785,8.5937 c 1.5311,2.2225 3.556,4.3956 6.5194,4.3956 1.9755,0 4.5438,-0.1482 5.0376,-0.3951 0.1482,-0.2963 0.1482,-1.2841 -0.049,-1.6792 -2.2225,0 -3.3585,-1.1854 -4.7414,-3.2597 l -6.7169,-10.3717 c 2.667,-1.0865 6.5194,-3.6547 6.5194,-8.6924 0,-1.9756 -0.7409,-4.9389 -3.803,-6.7663 -1.8274,-1.0372 -4.5438,-1.6298 -8.2479,-1.6298 z"
         id="path4881"
         style="stroke-width:2.65000005;stroke-dasharray:none;stroke:none" /><path
         d="m 1396.175,1980.9933 v -18.7678 c 0,-3.1609 0.4939,-4.9883 2.2719,-4.9883 h 1.0866 c 3.7041,0 5.7785,1.2347 6.6181,5.0377 0.5433,0 1.4817,-0.049 1.9262,-0.247 -0.3458,-2.2718 -0.5927,-4.8401 -0.6421,-7.0626 0,-0.049 -0.099,-0.1481 -0.1482,-0.1481 -1.6792,0.1481 -7.1614,0.3951 -11.0631,0.3951 h -6.9638 c -3.803,0 -9.6309,-0.247 -11.5076,-0.3951 -0.099,0 -0.1976,0.099 -0.1976,0.1481 -0.1975,2.2225 -0.6914,4.8401 -1.2347,7.2108 0.4939,0.1976 1.3335,0.247 1.9262,0.247 0.9877,-3.9512 3.0127,-5.1859 6.2723,-5.1859 h 2.4201 c 1.8274,0 2.3213,1.8274 2.3213,4.8401 v 18.916 c 0,4.0993 -0.8396,4.3462 -4.7907,4.4944 -0.2964,0.2963 -0.2964,1.3829 0,1.6792 2.42,-0.049 4.9388,-0.099 8.1491,-0.099 3.2103,0 5.8773,0.049 8.3468,0.099 0.2963,-0.2963 0.2963,-1.3829 0,-1.6792 -3.9512,-0.1482 -4.7908,-0.3951 -4.7908,-4.4944 z"
         id="path4883"
         style="stroke-width:2.65000005;stroke-dasharray:none;stroke:none" /></g><path
       id="path2828"
       d="m 1052.9804,572.06961 c -24.2946,-2.12948 -45.7325,-11.14204 -59.69496,-25.09478 -7.95498,-7.94978 -12.78076,-16.57298 -14.96222,-26.73868 -0.99259,-4.62427 -0.98739,-12.29844 0.0118,-16.9617 3.02778,-14.1341 12.16125,-26.49818 26.54368,-35.92936 32.8015,-21.5099 83.0496,-21.40199 115.5416,0.24896 4.3162,2.8757 7.1028,5.15858 11.0068,9.01387 4.9266,4.86542 8.3906,9.69833 12.0457,16.80634 0.1351,0.26326 0.8053,0.59542 1.4891,0.73712 2.3044,0.47842 5.3757,2.27248 7.8523,4.58461 1.9182,1.79147 3.4061,3.74543 7.069,9.28427 3.6934,5.58435 20.4127,31.40196 21.4293,33.09071 0.3952,0.65653 -0.3861,1.71281 -1.2675,1.71281 -0.6253,0 -1.0699,-0.41666 -1.9924,-1.86881 -0.6532,-1.02768 -4.9174,-7.64622 -9.4766,-14.70677 -16.1323,-24.98687 -17.0099,-26.14651 -21.5028,-28.39364 l -2.3635,-1.1824 h -6.9377 c -6.9286,0 -6.9383,5.7e-4 -7.1067,0.73128 -0.921,3.99699 -1.0894,4.97593 -0.8893,5.16183 0.1281,0.11896 4.0654,2.36088 8.7488,4.98243 l 8.5165,4.76661 -0.5323,1.11674 c -0.2932,0.61428 -0.6293,1.11675 -0.7475,1.11675 -0.1183,0 -7.2849,-3.96775 -15.9256,-8.81822 -8.6408,-4.85046 -16.2155,-8.9573 -16.8324,-9.12762 -2.4577,-0.67862 -6.233,2.04433 -6.233,4.49557 0,2.48308 0.7371,3.20721 15.9184,15.63954 9.4728,7.75737 14.8907,12.41738 15.7182,13.51852 1.5055,2.00337 3.0271,4.95513 4.4312,8.59526 2.4682,6.39947 6.482,9.97004 13.0649,11.62111 l 2.1677,0.54341 -0.1826,1.18565 c -0.1008,0.65197 -0.2399,1.25194 -0.3101,1.33188 -0.2782,0.31982 -4.6438,-1.07318 -7.1704,-2.28677 -3.9502,-1.89807 -6.6627,-4.60216 -9.3304,-9.29793 -0.02,-0.0344 -1.5672,0.49598 -3.4399,1.17849 -3.3256,1.21295 -3.4776,1.31306 -6.6192,4.37856 -13.3892,13.0648 -32.5902,21.41305 -55.7746,24.25105 -3.7578,0.46021 -18.2604,0.66367 -22.2633,0.31331 z m 23.0758,-4.023 c 10.6377,-1.40339 18.8857,-3.51661 27.52,-7.05144 9.0626,-3.71032 17.6078,-9.04182 23.5874,-14.71717 l 2.3563,-2.23607 -5.9315,-2.83345 c -6.337,-3.02781 -6.961,-3.52962 -7.7729,-6.23632 -0.5122,-1.70956 0.067,-3.52508 1.6855,-5.28079 l 1.261,-1.36829 -2.7489,-2.08788 c -2.1763,-1.653 -2.8588,-2.37648 -3.2774,-3.47242 -0.6774,-1.77326 -0.4329,-3.69147 0.6669,-5.23723 l 0.836,-1.17524 -8.6915,-1.52951 c -4.7803,-0.84047 -9.2362,-1.6894 -9.9018,-1.88636 -1.3033,-0.38482 -2.6293,-1.86686 -2.9725,-3.32097 -0.1847,-0.78002 4.075,-21.5775 5.0265,-24.5442 0.4258,-1.32801 2.2465,-2.93291 3.6181,-3.18967 1.4366,-0.26911 27.0545,4.23425 28.3299,4.97983 2.019,1.17979 2.6573,3.07656 2.0171,5.99385 l -0.2679,1.2188 1.4177,-0.002 c 0.7794,-5.6e-4 2.6255,-0.0956 4.101,-0.2106 l 2.6833,-0.20931 -1.3306,-2.47009 c -4.0295,-7.48109 -11.3045,-15.00642 -20.2865,-20.98532 -4.1908,-2.7899 -13.139,-7.19705 -18.5257,-9.12632 -7.6592,-2.7418 -16.9292,-4.79587 -25.8384,-5.72475 -4.8856,-0.50897 -17.6826,-0.50181 -22.4258,0.0129 -11.3683,1.23309 -21.6945,3.80654 -30.7201,7.65402 -20.89504,8.90921 -34.94461,23.66733 -38.54119,40.48731 -0.93994,4.39611 -1.0134,12.09108 -0.15343,16.08807 1.90197,8.83771 6.05368,16.48783 12.81326,23.60882 13.76746,14.50461 34.79646,23.41448 60.01536,25.42954 3.3763,0.26976 18.0154,-0.12415 21.4508,-0.57787 z m -4.6048,-15.8287 c -1.3007,-0.37636 -2.619,-1.92406 -2.8958,-3.40157 -0.1808,-0.96203 0.04,-1.6296 1.4184,-4.29665 5.5713,-10.77737 7.9926,-20.69542 7.9926,-32.73384 0,-11.63411 -2.1438,-20.68633 -7.4694,-31.53586 -1.1434,-2.32903 -2.0788,-4.49166 -2.0788,-4.80431 0,-1.15444 0.9659,-2.82825 2.0119,-3.48477 1.4346,-0.90029 3.8383,-0.73193 4.9889,0.34841 0.442,0.41536 1.5912,2.30173 2.5532,4.19069 3.8104,7.48241 6.4216,15.69155 7.7107,24.2361 0.7975,5.28794 0.9561,15.30999 0.319,20.1507 -1.1758,8.93001 -3.5328,16.89799 -7.3068,24.70412 -2.281,4.71852 -3.713,6.65948 -4.9116,6.65948 -0.2398,0 -0.6312,0.0598 -0.8691,0.13326 -0.2392,0.0722 -0.897,-0.002 -1.4632,-0.16576 z m -15.5076,-8.11294 c -1.9949,-0.58046 -3.4334,-3.02779 -2.8569,-4.86152 0.1398,-0.44396 1.0791,-2.48893 2.0866,-4.5443 4.2675,-8.70251 6.0427,-18.03163 5.1729,-27.1911 -0.7149,-7.52597 -2.0638,-12.27244 -5.4615,-19.21727 -2.2797,-4.65937 -2.3855,-5.38154 -1.0602,-7.25751 1.2604,-1.78366 4.4059,-2.07292 6.0583,-0.55706 1.1454,1.05042 4.7074,8.48929 6.0822,12.70209 4.5502,13.94168 3.856,28.90781 -1.9754,42.60379 -2.9869,7.01569 -5.0839,9.18482 -8.046,8.32288 z m -15.9919,-8.22733 c -1.2324,-0.55577 -2.2932,-1.85907 -2.5818,-3.17276 -0.1762,-0.80018 0.1267,-1.68551 1.5892,-4.64701 5.3712,-10.87813 5.4291,-21.35585 0.1769,-31.98113 -2.3063,-4.66651 -2.357,-5.59539 -0.4063,-7.4356 0.9627,-0.90808 1.3715,-1.06864 2.7236,-1.06864 2.2679,0 3.4438,1.13949 5.4706,5.30223 3.1168,6.40274 4.3928,11.95718 4.3824,19.07362 -0.011,7.31471 -1.2038,12.33613 -4.5339,19.08793 -1.9071,3.86568 -2.8497,4.88621 -4.7588,5.14817 -0.5824,0.08 -1.51,-0.0585 -2.0619,-0.30681 z m -14.9225,-7.66376 c -0.9764,-0.40433 -2.0912,-1.73297 -2.4227,-2.88806 -0.3699,-1.29094 -0.067,-2.31538 1.3989,-4.72566 1.8851,-3.09996 2.3238,-4.76337 2.3238,-8.81496 0,-4.05094 -0.4387,-5.715 -2.3238,-8.81496 -0.639,-1.05108 -1.2805,-2.31019 -1.4262,-2.79835 -0.6071,-2.04302 1.0953,-4.54691 3.3821,-4.97593 1.9383,-0.36401 3.2697,0.50117 5.052,3.28327 5.1605,8.05508 5.1598,18.81556 0,26.80239 -1.8208,2.81785 -3.8514,3.81368 -5.9816,2.93226 z m 111.1792,12.51293 c 1.7265,-0.61687 3.219,-1.20124 3.3158,-1.29809 0.097,-0.0969 -0.236,-1.20059 -0.7404,-2.45254 -1.0348,-2.57084 -0.8671,-2.50454 -4.541,-1.80121 -3.9671,0.75922 -6.2701,0.0825 -10.6123,-3.11492 -1.1836,-0.87167 -2.4051,-1.5854 -2.7132,-1.5854 -0.3088,0 -0.9854,0.45437 -1.5042,1.00949 -1.1127,1.19149 -1.2805,3.0577 -0.3744,4.16145 0.7879,0.95943 11.692,6.14791 12.9869,6.17911 0.5739,0.0129 2.4558,-0.48036 4.1828,-1.09789 z m -1.716,-8.34564 c 1.6166,-0.32501 1.7941,-0.43617 1.5164,-0.95424 -0.31,-0.57982 -15.3918,-13.09665 -16.6996,-13.86108 -1.0797,-0.62987 -1.9559,-0.48361 -2.851,0.47582 -2.6196,2.80875 -2.3141,3.39702 4.4715,8.5998 8.1831,6.27467 9.0567,6.64518 13.5627,5.7397 z m -20.2476,-18.95142 c 0,-0.0787 -1.7108,-1.55224 -3.8013,-3.27351 -5.1657,-4.2531 -6.274,-5.84045 -6.274,-8.98592 0,-2.62609 1.7518,-5.16313 4.5723,-6.62178 1.4001,-0.72413 3.8962,-0.95293 5.3087,-0.48686 0.9991,0.32956 5.5031,2.76649 11.7485,6.35527 l 1.3157,0.75597 1.0842,-5.14232 c 1.1102,-5.26649 1.1304,-6.64713 0.1026,-6.9676 -0.3126,-0.0975 -6.3324,-1.19149 -13.378,-2.43108 -12.5104,-2.20097 -13.8754,-2.33229 -14.4579,-1.38975 -0.31,0.50116 -5.0694,22.55839 -5.0702,23.49637 0,0.46931 0.238,1.05239 0.5305,1.29485 0.2918,0.24245 4.3506,1.12454 9.0191,1.96047 9.0197,1.6153 9.2998,1.65886 9.2998,1.43589 z"
       style="stroke-width:2.64583"
       inkscape:label="RFID logo" /></g><g
     inkscape:groupmode="layer"
     id="g5902"
     inkscape:label="Keypad (as objects)"
     style="display:none"
     sodipodi:insensitive="true"><g
       id="g5834"
       transform="translate(-5.6032526)"><path
         fill="#0099b0"
         d="m 853.63711,2187.3385 -22.3068,-4.1482 c -0.5428,-0.1018 -1.1372,-0.612 -1.3204,-1.1358 l -6.8376,-15.9523 c -0.2551,-0.4925 -0.2063,-1.266 0.1085,-1.7247 l 12.9969,-18.943 c 0.3107,-0.4559 0.2497,-1.1493 -0.1425,-1.5415 l -16.2332,-16.2331 c -0.3921,-0.3922 -1.0842,-0.456 -1.5401,-0.1425 l -19.2755,13.2275 c -0.4559,0.3135 -1.2375,0.3691 -1.7328,0.1249 l -15.4637,-6.3302 c -0.5252,-0.1737 -1.0367,-0.7612 -1.1399,-1.3054 l -4.2947,-23.0722 c -0.1004,-0.5441 -0.6364,-0.9892 -1.1901,-0.9892 h -22.95954 c -0.55225,0 -1.08824,0.4451 -1.18866,0.9892 l -4.29337,23.0722 c -0.10314,0.5442 -0.61339,1.1317 -1.13984,1.3054 l -15.46515,6.3302 c -0.49666,0.2442 -1.27826,0.1886 -1.73281,-0.1249 l -19.27411,-13.2275 c -0.45729,-0.3135 -1.15069,-0.2497 -1.54149,0.1425 l -16.23453,16.2331 c -0.3908,0.3922 -0.45593,1.0856 -0.14248,1.5415 l 12.99821,18.943 c 0.31209,0.4587 0.36094,1.2322 0.1072,1.7247 l -6.83902,15.9523 c -0.18183,0.5238 -0.77482,1.034 -1.32031,1.1358 l -22.30551,4.1482 c -0.5455,0.1031 -0.98922,0.6377 -0.98922,1.1913 l 0.002,22.9583 c 0,0.5536 0.44508,1.0923 0.98921,1.1914 l 21.75867,4.0491 c 0.54413,0.099 1.12626,0.6161 1.29182,1.1439 l 6.79288,16.9687 c 0.24289,0.4979 0.1859,1.2768 -0.12892,1.7328 l -12.35908,18.0108 c -0.3121,0.4559 -0.24832,1.1506 0.14248,1.5428 l 16.23589,16.2332 c 0.3908,0.3894 1.0842,0.4532 1.54149,0.1424 l 17.69192,-12.1433 c 0.45593,-0.3121 1.21989,-0.3365 1.69619,-0.058 l 7.80243,4.1659 c 0.49393,0.2524 1.07065,0.039 1.28231,-0.4722 l 16.08797,-38.8725 c 0.21305,-0.5116 0,-1.1643 -0.47219,-1.4533 l -1.95267,-1.1955 c -0.36095,-0.2198 -0.85079,-0.5984 -1.23482,-0.9458 -7.04391,-4.5105 -11.71726,-12.4011 -11.71726,-21.3868 0,-14.0227 11.36851,-25.3899 25.38991,-25.3899 14.0213,0 25.3885,11.3672 25.3885,25.3899 0,8.9857 -4.672,16.8763 -11.7172,21.3868 -0.3814,0.3474 -0.8726,0.726 -1.2321,0.9458 l -1.9527,1.1955 c -0.4695,0.289 -0.6839,0.9417 -0.4722,1.4533 l 16.0866,38.8739 c 0.2117,0.5115 0.787,0.7232 1.2823,0.4721 l 7.8025,-4.1658 c 0.4776,-0.2782 1.2402,-0.2551 1.6962,0.058 l 17.6932,12.1433 c 0.4559,0.3107 1.1507,0.247 1.5401,-0.1425 l 16.2359,-16.2332 c 0.3922,-0.3921 0.4559,-1.0869 0.1425,-1.5428 l -12.3605,-18.0108 c -0.312,-0.4559 -0.3704,-1.2348 -0.1275,-1.7328 l 6.7929,-16.9686 c 0.1669,-0.5279 0.7449,-1.0449 1.2905,-1.144 l 21.7586,-4.0491 c 0.5428,-0.099 0.9892,-0.6378 0.9892,-1.1914 l 0.01,-22.9582 c 0,-0.555 -0.4438,-1.0896 -0.9865,-1.1927"
         id="path5828"
         style="fill:#000000;stroke-width:2.64583" /><text
         xml:space="preserve"
         style="font-style:normal;font-variant:normal;font-weight:normal;font-stretch:normal;font-size:141.111px;line-height:125%;font-family:'Linux Libertine O';-inkscape-font-specification:'Linux Libertine O, Normal';font-variant-ligatures:normal;font-variant-caps:normal;font-variant-numeric:normal;font-variant-east-asian:normal;text-align:start;letter-spacing:0px;word-spacing:0px;text-anchor:start;fill:#000000;fill-opacity:1;stroke:none;stroke-width:2.64583px;stroke-linecap:butt;stroke-linejoin:miter;stroke-opacity:1"
         x="870.87122"
         y="2251.9805"
         id="text5832"><tspan
           sodipodi:role="line"
           id="tspan5830"
           x="870.87122"
           y="2251.9805"
           style="font-style:normal;font-variant:normal;font-weight:normal;font-stretch:normal;font-size:141.111px;font-family:'Linux Libertine O';-inkscape-font-specification:'Linux Libertine O, Normal';font-variant-ligatures:normal;font-variant-caps:normal;font-variant-numeric:normal;font-variant-east-asian:normal;stroke-width:2.64583px">OpenEVSE</tspan></text></g><text
       xml:space="preserve"
       style="font-style:normal;font-variant:normal;font-weight:bold;font-stretch:normal;font-size:169.333px;line-height:125%;font-family:'Linux Libertine O';-inkscape-font-specification:'Linux Libertine O, Bold';font-variant-ligatures:normal;font-variant-caps:normal;font-variant-numeric:normal;font-variant-east-asian:normal;text-align:start;letter-spacing:0px;word-spacing:0px;text-anchor:start;display:inline;fill:#000000;fill-opacity:1;stroke:none;stroke-width:2.64583px;stroke-linecap:butt;stroke-linejoin:miter;stroke-opacity:1"
       x="781.28247"
       y="1173.3147"
       id="text5838"><tspan
         sodipodi:role="line"
         id="tspan5836"
         x="781.28247"
         y="1173.3147">1</tspan></text><text
       xml:space="preserve"
       style="font-style:normal;font-variant:normal;font-weight:bold;font-stretch:normal;font-size:169.333px;line-height:125%;font-family:'Linux Libertine O';-inkscape-font-specification:'Linux Libertine O, Bold';font-variant-ligatures:normal;font-variant-caps:normal;font-variant-numeric:normal;font-variant-east-asian:normal;text-align:start;letter-spacing:0px;word-spacing:0px;text-anchor:start;display:inline;fill:#000000;fill-opacity:1;stroke:none;stroke-width:2.64583px;stroke-linecap:butt;stroke-linejoin:miter;stroke-opacity:1"
       x="1037.2515"
       y="1173.4841"
       id="text5842"><tspan
         sodipodi:role="line"
         id="tspan5840"
         x="1037.2515"
         y="1173.4841">2</tspan></text><text
       xml:space="preserve"
       style="font-style:normal;font-variant:normal;font-weight:bold;font-stretch:normal;font-size:169.333px;line-height:125%;font-family:'Linux Libertine O';-inkscape-font-specification:'Linux Libertine O, Bold';font-variant-ligatures:normal;font-variant-caps:normal;font-variant-numeric:normal;font-variant-east-asian:normal;text-align:start;letter-spacing:0px;word-spacing:0px;text-anchor:start;display:inline;fill:#000000;fill-opacity:1;stroke:none;stroke-width:2.64583px;stroke-linecap:butt;stroke-linejoin:miter;stroke-opacity:1"
       x="1286.066"
       y="1172.6375"
       id="text5846"><tspan
         sodipodi:role="line"
         id="tspan5844"
         x="1286.066"
         y="1172.6375">3</tspan></text><text
       xml:space="preserve"
       style="font-style:normal;font-variant:normal;font-weight:bold;font-stretch:normal;font-size:169.333px;line-height:125%;font-family:'Linux Libertine O';-inkscape-font-specification:'Linux Libertine O, Bold';font-variant-ligatures:normal;font-variant-caps:normal;font-variant-numeric:normal;font-variant-east-asian:normal;text-align:start;letter-spacing:0px;word-spacing:0px;text-anchor:start;display:inline;fill:#000000;fill-opacity:1;stroke:none;stroke-width:2.64583px;stroke-linecap:butt;stroke-linejoin:miter;stroke-opacity:1"
       x="785.47339"
       y="1423.3148"
       id="text5850"><tspan
         sodipodi:role="line"
         id="tspan5848"
         x="785.47339"
         y="1423.3148">4</tspan></text><text
       xml:space="preserve"
       style="font-style:normal;font-variant:normal;font-weight:bold;font-stretch:normal;font-size:169.333px;line-height:125%;font-family:'Linux Libertine O';-inkscape-font-specification:'Linux Libertine O, Bold';font-variant-ligatures:normal;font-variant-caps:normal;font-variant-numeric:normal;font-variant-east-asian:normal;text-align:start;letter-spacing:0px;word-spacing:0px;text-anchor:start;display:inline;fill:#000000;fill-opacity:1;stroke:none;stroke-width:2.64583px;stroke-linecap:butt;stroke-linejoin:miter;stroke-opacity:1"
       x="1036.2355"
       y="1422.8916"
       id="text5854"><tspan
         sodipodi:role="line"
         id="tspan5852"
         x="1036.2355"
         y="1422.8916">5</tspan></text><text
       xml:space="preserve"
       style="font-style:normal;font-variant:normal;font-weight:bold;font-stretch:normal;font-size:169.333px;line-height:125%;font-family:'Linux Libertine O';-inkscape-font-specification:'Linux Libertine O, Bold';font-variant-ligatures:normal;font-variant-caps:normal;font-variant-numeric:normal;font-variant-east-asian:normal;text-align:start;letter-spacing:0px;word-spacing:0px;text-anchor:start;display:inline;fill:#000000;fill-opacity:1;stroke:none;stroke-width:2.64583px;stroke-linecap:butt;stroke-linejoin:miter;stroke-opacity:1"
       x="1285.3888"
       y="1422.6376"
       id="text5858"><tspan
         sodipodi:role="line"
         id="tspan5856"
         x="1285.3888"
         y="1422.6376">6</tspan></text><text
       xml:space="preserve"
       style="font-style:normal;font-variant:normal;font-weight:bold;font-stretch:normal;font-size:169.333px;line-height:125%;font-family:'Linux Libertine O';-inkscape-font-specification:'Linux Libertine O, Bold';font-variant-ligatures:normal;font-variant-caps:normal;font-variant-numeric:normal;font-variant-east-asian:normal;text-align:start;letter-spacing:0px;word-spacing:0px;text-anchor:start;display:inline;fill:#000000;fill-opacity:1;stroke:none;stroke-width:2.64583px;stroke-linecap:butt;stroke-linejoin:miter;stroke-opacity:1"
       x="783.86481"
       y="1672.8069"
       id="text5862"><tspan
         sodipodi:role="line"
         id="tspan5860"
         x="783.86481"
         y="1672.8069">7</tspan></text><text
       xml:space="preserve"
       style="font-style:normal;font-variant:normal;font-weight:bold;font-stretch:normal;font-size:169.333px;line-height:125%;font-family:'Linux Libertine O';-inkscape-font-specification:'Linux Libertine O, Bold';font-variant-ligatures:normal;font-variant-caps:normal;font-variant-numeric:normal;font-variant-east-asian:normal;text-align:start;letter-spacing:0px;word-spacing:0px;text-anchor:start;display:inline;fill:#000000;fill-opacity:1;stroke:none;stroke-width:2.64583px;stroke-linecap:butt;stroke-linejoin:miter;stroke-opacity:1"
       x="1035.9814"
       y="1672.6375"
       id="text5866"><tspan
         sodipodi:role="line"
         id="tspan5864"
         x="1035.9814"
         y="1672.6375">8</tspan></text><text
       xml:space="preserve"
       style="font-style:normal;font-variant:normal;font-weight:bold;font-stretch:normal;font-size:169.333px;line-height:125%;font-family:'Linux Libertine O';-inkscape-font-specification:'Linux Libertine O, Bold';font-variant-ligatures:normal;font-variant-caps:normal;font-variant-numeric:normal;font-variant-east-asian:normal;text-align:start;letter-spacing:0px;word-spacing:0px;text-anchor:start;display:inline;fill:#000000;fill-opacity:1;stroke:none;stroke-width:2.64583px;stroke-linecap:butt;stroke-linejoin:miter;stroke-opacity:1"
       x="1285.2195"
       y="1672.6375"
       id="text5870"><tspan
         sodipodi:role="line"
         id="tspan5868"
         x="1285.2195"
         y="1672.6375">9</tspan></text><text
       xml:space="preserve"
       style="font-style:normal;font-variant:normal;font-weight:bold;font-stretch:normal;font-size:169.333px;line-height:125%;font-family:'Linux Libertine O';-inkscape-font-specification:'Linux Libertine O, Bold';font-variant-ligatures:normal;font-variant-caps:normal;font-variant-numeric:normal;font-variant-east-asian:normal;text-align:start;letter-spacing:0px;word-spacing:0px;text-anchor:start;display:inline;fill:#000000;fill-opacity:1;stroke:none;stroke-width:2.64583px;stroke-linecap:butt;stroke-linejoin:miter;stroke-opacity:1"
       x="1035.9814"
       y="1922.6376"
       id="text5874"><tspan
         sodipodi:role="line"
         id="tspan5872"
         x="1035.9814"
         y="1922.6376">0</tspan></text><text
       xml:space="preserve"
       style="font-style:normal;font-variant:normal;font-weight:bold;font-stretch:normal;font-size:49.3889px;line-height:125%;font-family:'Linux Libertine O';-inkscape-font-specification:'Linux Libertine O, Bold';font-variant-ligatures:normal;font-variant-caps:normal;font-variant-numeric:normal;font-variant-east-asian:normal;text-align:center;letter-spacing:0px;word-spacing:0px;text-anchor:middle;display:inline;fill:#000000;fill-opacity:1;stroke:none;stroke-width:2.64583px;stroke-linecap:butt;stroke-linejoin:miter;stroke-opacity:1"
       x="829.35175"
       y="1987.0681"
       id="text5878"><tspan
         sodipodi:role="line"
         id="tspan5876"
         x="829.35175"
         y="1987.0681">BACK</tspan></text><text
       xml:space="preserve"
       style="font-style:normal;font-variant:normal;font-weight:bold;font-stretch:normal;font-size:49.3889px;line-height:125%;font-family:'Linux Libertine O';-inkscape-font-specification:'Linux Libertine O, Bold';font-variant-ligatures:normal;font-variant-caps:normal;font-variant-numeric:normal;font-variant-east-asian:normal;text-align:center;letter-spacing:0px;word-spacing:0px;text-anchor:middle;display:inline;fill:#000000;fill-opacity:1;stroke:none;stroke-width:2.64583px;stroke-linecap:butt;stroke-linejoin:miter;stroke-opacity:1"
       x="1328.9814"
       y="1987.0681"
       id="text5882"><tspan
         sodipodi:role="line"
         id="tspan5880"
         x="1328.9814"
         y="1987.0681">START</tspan></text><g
       id="g5898"
       transform="translate(2.4999999e-5,-100.47977)"
       style="display:inline"><rect
         style="fill:none;stroke:#000000;stroke-width:2.5;stroke-miterlimit:4;stroke-dasharray:none"
         id="rect5884"
         width="750"
         height="1000"
         x="704.5"
         y="1097.3174" /><rect
         style="fill:none;stroke:#000000;stroke-width:2.5;stroke-miterlimit:4;stroke-dasharray:none"
         id="rect5886"
         width="250"
         height="1000"
         x="954.5"
         y="1097.3174" /><path
         style="fill:none;stroke:#000000;stroke-width:2.5;stroke-miterlimit:4;stroke-dasharray:none"
         d="m 704.5,1347.3174 h 750"
         id="path5888"
         sodipodi:nodetypes="cc" /><path
         style="fill:none;stroke:#000000;stroke-width:2.5;stroke-miterlimit:4;stroke-dasharray:none"
         d="m 704.5,1847.3175 h 750"
         id="path5890"
         sodipodi:nodetypes="cc" /><path
         style="fill:none;stroke:#000000;stroke-width:2.5;stroke-miterlimit:4;stroke-dasharray:none"
         d="m 704.5,1597.3174 h 750"
         id="path5892"
         sodipodi:nodetypes="cc" /><path
         style="fill:none;stroke:#000000;stroke-width:2.5;stroke-miterlimit:4;stroke-dasharray:none"
         d="m 704.5,1097.3174 h 750"
         id="path5894"
         sodipodi:nodetypes="cc" /><path
         style="fill:none;stroke:#000000;stroke-width:2.5;stroke-miterlimit:4;stroke-dasharray:none"
         d="m 704.5,2097.3174 h 750"
         id="path5896"
         sodipodi:nodetypes="cc" /></g><text
       xml:space="preserve"
       style="font-style:normal;font-variant:normal;font-weight:bold;font-stretch:normal;font-size:169.333px;line-height:125%;font-family:'Linux Libertine O';-inkscape-font-specification:'Linux Libertine O, Bold';font-variant-ligatures:normal;font-variant-caps:normal;font-variant-numeric:normal;font-variant-east-asian:normal;text-align:start;letter-spacing:0px;word-spacing:0px;text-anchor:start;display:inline;fill:#000000;fill-opacity:1;stroke:none;stroke-width:2.64583px;stroke-linecap:butt;stroke-linejoin:miter;stroke-opacity:1"
       x="1260.2952"
       y="1933.3531"
       id="text5870-2"><tspan
         sodipodi:role="line"
         id="tspan5868-0"
         x="1260.2952"
         y="1933.3531"></tspan></text><text
       xml:space="preserve"
       style="font-style:normal;font-variant:normal;font-weight:bold;font-stretch:normal;font-size:169.333px;line-height:125%;font-family:'Linux Libertine O';-inkscape-font-specification:'Linux Libertine O, Bold';font-variant-ligatures:normal;font-variant-caps:normal;font-variant-numeric:normal;font-variant-east-asian:normal;text-align:start;letter-spacing:0px;word-spacing:0px;text-anchor:start;display:inline;fill:#000000;fill-opacity:1;stroke:none;stroke-width:2.64583px;stroke-linecap:butt;stroke-linejoin:miter;stroke-opacity:1"
       x="759.22687"
       y="1908.2443"
       id="text5870-6"><tspan
         sodipodi:role="line"
         id="tspan5868-1"
         x="759.22687"
         y="1908.2443"></tspan></text></g><g
     inkscape:groupmode="layer"
     id="layer6"
     inkscape:label="Narrow window"
     style="display:none"
     sodipodi:insensitive="true"><rect
       style="display:inline;fill:none;stroke:#000000;stroke-width:2.5;stroke-miterlimit:4;stroke-dasharray:none"
       id="rect9958-3-3-5"
       width="660"
       height="160"
       x="749.5"
       y="640.00092"
       rx="10"
       ry="10" /></g><g
     inkscape:groupmode="layer"
     id="layer11"
     inkscape:label="Letter bridges"
     style="display:none"
     sodipodi:insensitive="true"><path
       id="path4623"
       style="display:inline;opacity:0.25;fill:none;stroke:#000000;stroke-width:2;stroke-dasharray:none"
       d="m 828.57531,1397.6426 c 0.28969,-4.6684 0.1779,-8.1636 0.0103,-12.3012 m -0.0626,-42.6965 c 0.29001,-8.0121 0.14939,-13.9023 0.17257,-20.5996 m 250.97022,235.0867 v 27.9197 m -0.164,221.5659 v 122.7069 m -234.5094,-11.1599 v -23.7854 m 0,-47.5709 v -23.7854 m 54.57121,48.7335 H 864.3346 m -70.45803,0 H 758.64756 M 1316.819,1363.3211 c -0.6095,3.3808 -1.6243,8.4445 -1.5162,12.4426 m 16.6311,40.9444 -0.1347,8.5786 m -4.9431,141.8681 v 11.0445 m 16.8038,40.5145 c 0.023,3.5431 -0.8778,7.0107 -1.4398,10.727 m -263.4357,55.3259 v -31.019"
       sodipodi:nodetypes="cccccccccccccccccccccccccc" /></g><g
     inkscape:groupmode="layer"
     id="layer10"
     inkscape:label="LCD mount"
     style="display:inline"
     inkscape:export-filename="layer10.svg"
     inkscape:export-xdpi="96"
     inkscape:export-ydpi="96"><g
       id="g1578"
       style="display:inline;fill:none;stroke:#000000;stroke-opacity:1;stroke-width:2.00000004;stroke-dasharray:none"
       inkscape:label="LCD mount group"
       transform="matrix(-1,0,0,1,2142.5,-2.9999926)"><path
         d="m 1439,595.00091 v 250.02001 l -0.18,2.68 -0.54,2.64 -0.88,2.52 -4.197,2.77801 v 0 l -10e-4,0.001 -3.559,3.559 -2.78,4.2 -2.52,0.88 -2.64,0.54 -2.68,0.18 H 728.99999 l -2.68,-0.18 -2.64,-0.54 -2.52,-0.88 -2.78,-4.2 -3.559,-3.559 -0.001,-0.001 h -0.003 l -4.197,-2.77801 -0.88,-2.52 -0.54,-2.64 -0.18,-2.68 V 595.00091 l 0.31255,-100 h -30.31255 l -11.14,1.26 -10.56,3.7 -9.48,5.96 -7.92,7.92 -5.96001,9.48 -3.7,10.56 -1.24,11.14 v 9.98 l -0.02,20.02 0.02,289.98002 v 30 l 1.24,11.14 3.7,10.56 5.96001,9.48 7.92,7.92 9.48,5.96 10.56,3.7 11.14,1.24 H 1469 l 11.14,-1.24 10.56,-3.7 9.48,-5.96 7.92,-7.92 5.96,-9.48 3.7,-10.56 1.24,-11.14 V 545.02091 l -1.24,-11.14 -3.7,-10.56 -5.96,-9.48 -7.92,-7.92 -9.48,-5.96 -10.56,-3.7 -11.14,-1.26 -30.3167,0 z"
         stroke="#000000"
         fill="#d3d3d3"
         stroke-width="0.5"
         id="path413"
         inkscape:export-filename="layer10.svg"
         inkscape:export-xdpi="96"
         inkscape:export-ydpi="96"
         inkscape:label="mount outline"
         sodipodi:nodetypes="cccccccccccccccccccccccccccccccccccccccccccccccccccccccccccccccc"
         style="fill:none;stroke:#000000;stroke-opacity:1;stroke-width:2.00000004;stroke-dasharray:none" /><g
         inkscape:label="ribs and holes"
         id="g1007"
         transform="matrix(2.6458334,0,0,2.6458334,1074.0106,-2250)"
         style="fill:none;stroke:#000000;stroke-opacity:1;stroke-width:0.75590551;stroke-dasharray:none"><path
           id="path1005"
           style="fill:none;stroke:#000000;stroke-linecap:round;stroke-linejoin:round;stroke-opacity:1;stroke-width:0.75590551;stroke-dasharray:none"
           d="m 138.059,1064.84 -0.114,-0.9 m 0.439,1.76 -0.325,-0.86 m 0.839,1.61 -0.514,-0.75 m 1.194,1.35 -0.68,-0.6 m 1.489,1.02 -0.809,-0.42 m 1.693,0.64 -0.884,-0.22 m 1.799,0.22 h -0.75654 -0.15846 m 1.799,-0.22 -0.884,0.22 m 1.693,-0.64 -0.809,0.42 m 1.489,-1.02 -0.68,0.6 m 1.194,-1.35 -0.514,0.75 m 0.839,-1.61 -0.325,0.86 m 0.439,-1.76 -0.114,0.9 m 0,-1.8 0.114,0.9 m -0.439,-1.76 0.325,0.86 m -0.839,-1.61 0.514,0.75 m -1.194,-1.35 0.68,0.6 m -1.489,-1.02 0.809,0.42 m -1.693,-0.64 0.884,0.22 m -1.799,-0.22 h 0.75654 0.15846 m -1.799,0.22 0.884,-0.22 m -1.693,0.64 0.809,-0.42 m -1.489,1.02 0.68,-0.6 m -1.194,1.35 0.514,-0.75 m -0.839,1.61 0.325,-0.86 m -0.439,1.76 0.114,-0.9 m 0,118.97 -0.114,-0.91 m 0.439,1.76 -0.325,-0.85 m 0.839,1.6 -0.514,-0.75 m 1.194,1.36 -0.68,-0.61 m 1.489,1.03 -0.809,-0.42 m 1.693,0.64 -0.884,-0.22 m 1.799,0.22 h -0.75654 -0.15846 m 1.799,-0.22 -0.884,0.22 m 1.693,-0.64 -0.809,0.42 m 1.489,-1.03 -0.68,0.61 m 1.194,-1.36 -0.514,0.75 m 0.839,-1.6 -0.325,0.85 m 0.439,-1.76 -0.114,0.91 m 0,-1.81 0.114,0.9 m -0.439,-1.75 0.325,0.85 m -0.839,-1.6 0.514,0.75 m -1.194,-1.35 0.68,0.6 m -1.489,-1.03 0.809,0.43 m -1.693,-0.65 0.884,0.22 m -1.799,-0.22 h 0.75654 0.15846 m -1.799,0.22 0.884,-0.22 m -1.693,0.65 0.809,-0.43 m -1.489,1.03 0.68,-0.6 m -1.194,1.35 0.514,-0.75 m -0.839,1.6 0.325,-0.85 m -0.439,1.75 0.114,-0.9 m -275.808,-7.66 -0.204,-0.09 m 0.4,0.19 -0.196,-0.1 m 0.4,0.19 -0.204,-0.09 m 0.205,0.09 h -10e-4 m 1.407,0.92 -1.406,-0.92 m 1.917,1.37 -0.511,-0.45 m 1.452,1.39 -0.941,-0.94 m 2.066,2.62 -1.125,-1.68 m 1.126,1.68 h -0.001 m 0.099,0.2 -0.098,-0.2 m 0.196,0.4 -0.098,-0.2 m 0.189,0.4 -0.091,-0.2 m 266.238,0.2 h -266.147 m 266.237,-0.2 -0.09,0.2 m 0.189,-0.4 -0.099,0.2 m 0.196,-0.4 -0.097,0.2 m 0.098,-0.2 h -0.001 m 1.126,-1.68 -1.125,1.68 m 2.067,-2.62 -0.942,0.94 m 1.452,-1.39 -0.51,0.45 m 1.916,-1.37 -1.406,0.92 m 1.407,-0.92 h -0.001 m 0.205,-0.09 -0.204,0.09 m 0.4,-0.19 -0.196,0.1 m 0.4,-0.19 -0.204,0.09 m 0.204,-99.94 v 99.85 m -0.204,-99.94 0.204,0.09 m -0.4,-0.19 0.196,0.1 m -0.4,-0.2 0.204,0.1 m -0.205,-0.11 0.001,0.01 m -1.407,-0.91 c 0.46867,0.3 0.93733,0.6 1.406,0.9 m -1.916,-1.36 0.51,0.46 m -1.452,-1.4 0.53552,0.5344 0.40648,0.4056 m -2.067,-2.61 c 0.375,0.5567 0.75,1.1133 1.125,1.67 m -1.126,-1.67 h 0.001 m -0.098,-0.21 0.097,0.21 m -0.196,-0.4 0.099,0.19 m -266.427,-0.19 0.091,-0.21 c 0,0 1.10711,-2.8217 0.0812,-6.7417 -1.0259,-3.92 -3.06721,-4.5883 -3.06721,-4.5883 m 2.797,11.73 0.098,-0.19 m -0.196,0.4 0.098,-0.21 m -0.099,0.21 h 0.001 m -1.126,1.67 1.125,-1.67 m -2.067,2.61 0.942,-0.94 m -1.452,1.4 0.51,-0.46 m -1.916,1.36 1.406,-0.9 m -1.407,0.91 10e-4,-0.01 m -0.205,0.11 0.204,-0.1 m -0.4,0.2 0.196,-0.1 m -0.4,0.19 0.204,-0.09 m -0.204,99.94 v -99.85 m -7.453,-7.76 -0.113,-0.9 m 0.438,1.76 -0.325,-0.86 m 0.839,1.61 -0.514,-0.75 m 1.194,1.35 -0.68,-0.6 m 1.489,1.02 -0.809,-0.42 m 1.694,0.64 -0.885,-0.22 m 1.799,0.22 h -0.75654 -0.15746 m 1.799,-0.22 -0.885,0.22 m 1.693,-0.64 -0.808,0.42 m 1.489,-1.02 -0.681,0.6 m 1.195,-1.35 -0.514,0.75 m 0.839,-1.61 -0.325,0.86 m 0.438,-1.76 -0.113,0.9 m 0,-1.8 0.113,0.9 m -0.438,-1.76 0.325,0.86 m -0.839,-1.61 0.514,0.75 m -1.195,-1.35 0.681,0.6 m -1.489,-1.02 0.808,0.42 m -1.693,-0.64 0.885,0.22 m -1.799,-0.22 h 0.75654 0.15746 m -1.799,0.22 0.885,-0.22 m -1.694,0.64 0.809,-0.42 m -1.489,1.02 0.68,-0.6 m -1.194,1.35 0.514,-0.75 m -0.839,1.61 0.325,-0.86 m -0.438,1.76 0.113,-0.9 m 0,118.97 -0.113,-0.91 m 0.438,1.76 -0.325,-0.85 m 0.839,1.6 -0.514,-0.75 m 1.194,1.36 -0.68,-0.61 m 1.489,1.03 -0.809,-0.42 m 1.694,0.64 -0.885,-0.22 m 1.799,0.22 h -0.75654 -0.15746 m 1.799,-0.22 -0.885,0.22 m 1.693,-0.64 -0.808,0.42 m 1.489,-1.03 -0.681,0.61 m 1.195,-1.36 -0.514,0.75 m 0.839,-1.6 -0.325,0.85 m 0.438,-1.76 -0.113,0.91 m 0,-1.81 0.113,0.9 m -0.438,-1.75 0.325,0.85 m -0.839,-1.6 0.514,0.75 m -1.195,-1.35 0.681,0.6 m -1.489,-1.03 0.808,0.43 m -1.693,-0.65 0.885,0.22 m -1.799,-0.22 h 0.75654 0.15746 m -1.799,0.22 0.885,-0.22 m -1.694,0.65 0.809,-0.43 m -1.489,1.03 0.68,-0.6 m -1.194,1.35 0.514,-0.75 m -0.839,1.6 0.325,-0.85 m -0.438,1.75 0.113,-0.9 m -22.783,-2.88 v 7.57 m 17.794,-7.57 h -17.794 m 18.111,-0.65 -0.317,0.65 m 0.687,-1.28 -0.37,0.63 m 0.371,-0.63 h -0.001 m 0.417,-0.61 -0.416,0.61 m 0.518,-0.73 -0.102,0.12 m 0.102,-105.69 v 105.57 m -0.102,-105.7 0.102,0.13 m -0.518,-0.73 0.416,0.6 m -0.417,-0.6 h 0.001 m -0.371,-0.64 0.37,0.64 m -0.687,-1.29 0.317,0.65 m -18.111,-0.65 h 17.794 m -17.794,-7.56 v 7.56 m 17.794,-7.56 h -17.794 m 18.995,-2.02 -1.201,2.02 m 1.202,-2.02 h -10e-4 m 1.656,-1.66 -1.655,1.66 m 1.657,-1.66 h -0.002 m 2.019,-1.2 -2.017,1.2 m 2.017,-19 v 17.8 m 7.566,-17.8 h -7.566 m 7.566,17.8 v -17.8 m 0.65,18.12 -0.65,-0.32 m 1.284,0.69 -0.634,-0.37 m 0.635,0.37 h -0.001 m 0.606,0.42 -0.605,-0.42 m 272.723,0.42 c 0,0 -1.68127,1.0263 -2.92835,4.2052 -1.24709,3.1788 -0.0567,7.1248 -0.0567,7.1248 l 0.09,0.21 m 3.5,-11.96 -0.605,0.42 m 0.606,-0.42 h -0.001 m 0.636,-0.37 -0.635,0.37 m 1.284,-0.69 -0.649,0.32 m 0.649,-18.12 v 17.8 m 7.567,-17.8 h -7.567 m 7.567,17.8 v -17.8 m 2.016,19 -2.016,-1.2 m 2.018,1.2 h -0.002 m 1.658,1.66 -1.656,-1.66 m 1.657,1.66 h -0.001 m 1.201,2.02 -1.2,-2.02 m 18.994,2.02 h -17.794 m 17.794,7.56 v -7.56 m -17.794,7.56 h 17.794 m -18.111,0.65 0.317,-0.65 m -0.687,1.29 0.37,-0.64 m -0.371,0.64 h 10e-4 m -0.416,0.6 0.415,-0.6 m -0.481,0.68 0.066,-0.08 m -0.066,105.74 v -105.66 m 0.066,105.74 -0.066,-0.08 m 0.481,0.69 -0.415,-0.61 m 0.416,0.61 h -10e-4 m 0.371,0.63 -0.37,-0.63 m 0.687,1.28 -0.317,-0.65 m 18.111,0.65 h -17.794 m 17.794,7.57 v -7.57 m -17.794,7.57 h 17.794 m -18.994,2.02 1.2,-2.02 m -1.201,2.02 h 0.001 m -1.657,1.65 1.656,-1.65 m -1.658,1.65 h 0.002 m -2.018,1.21 2.016,-1.21 m -2.016,19 v -17.79 m -7.567,17.79 h 7.567 m -7.567,-17.79 v 17.79 m -0.649,-18.11 0.649,0.32 m -1.284,-0.69 0.635,0.37 m -0.636,-0.37 h 0.001 m -0.606,-0.42 0.605,0.42 m -0.683,-0.48 0.078,0.06 m -22.598,-0.06 h 22.52 m -67.8699,0 h 45.3499 m -56.6851,0 h 11.3352 m -68.035292,0 H 56.7719 m -64.25918,-0.01 c 2.5197004,0 5.0393876,0.01 7.559088,0.01 m -11.337708,0 h 1.88931 l 1.88931,-0.01 m -60.47242,0.01 h 56.6938 m -62.3635,0 h 5.6697 m -68.0253,0 h 62.3556 m -62.4336,0.06 0.078,-0.06 m -0.683,0.48 0.605,-0.42 m -0.606,0.42 h 0.001 m -0.635,0.37 0.634,-0.37 m -1.284,0.69 0.65,-0.32 m -0.65,18.11 v -17.79 m -7.566,17.79 h 7.566 m -7.566,-17.79 v 17.79 m -2.017,-19 2.017,1.21 m -2.019,-1.21 h 0.002 m -1.657,-1.65 1.655,1.65 m -1.656,-1.65 h 10e-4 m -1.202,-2.02 1.201,2.02 m -18.995,-2.02 h 17.794"
           sodipodi:nodetypes="ccccccccccccccccccccccccccccccccccccccccccccccccccccccccccccccccccccccccccccccccccccccccccccccccccccccccccccccccccccccccccccccccccccccccccccccccccccccccccccccccccccccccccccccccccccccccczcccccccccccccccccccccccccccccccccccccccccccccccccccccccccccccccccccccccccccccccccccccccccccccccccccccccccccccccccccccccccccccccccccccccccccccccccccccccccccccccccccccccccccccccccccccccccccccczccccccccccccccccccccccccccccccccccccccccccccccccccccccccccccccccccccccccccccccccccccccccccccccccccccccccccccccccccccccccccccccccccccc" /></g></g></g><g
     inkscape:groupmode="layer"
     id="layer5"
     inkscape:label="Extra Silkscreen (back)"
     style="display:none"
     sodipodi:insensitive="true"><rect
       style="display:none;fill:none;stroke:#000000;stroke-width:2.5;stroke-miterlimit:4;stroke-dasharray:none"
       id="rect9962-6"
       width="800"
       height="360"
       x="668.5"
       y="537.00092" /><rect
       style="display:none;fill:none;stroke:#000000;stroke-width:2.5;stroke-miterlimit:4;stroke-dasharray:none"
       id="rect9960-7"
       width="750"
       height="310"
       x="693.5"
       y="562.00092"
       inkscape:label="Mounting Screw locations (vertexes)" /><rect
       style="display:inline;fill:none;stroke:#000000;stroke-width:2.5;stroke-miterlimit:4;stroke-dasharray:none"
       id="rect9958-3"
       width="720"
       height="260"
       x="714"
       y="590.00092"
       rx="10"
       ry="10"
       inkscape:label="Lower LCD frame" /></g><g
     inkscape:groupmode="layer"
     id="layer1"
     inkscape:label="LCD cutout template"
     style="display:none"
     sodipodi:insensitive="true"><rect
       style="fill:#000080;stroke:none;stroke-width:2.5;stroke-miterlimit:4;stroke-dasharray:none"
       id="rect9962"
       width="800"
       height="360"
       x="-169.49408"
       y="-603.2168" /><rect
       style="fill:#00ff00;stroke:none;stroke-width:2.5;stroke-miterlimit:4;stroke-dasharray:none"
       id="rect9960"
       width="750"
       height="310"
       x="-144.49408"
       y="-578.2168" /><rect
       style="fill:#ffff00;stroke:none;stroke-width:2.49999;stroke-miterlimit:4;stroke-dasharray:none"
       id="rect9964"
       width="45.5"
       height="53"
       x="-169.49408"
       y="-603.2168" /><rect
       style="fill:#ff0000;stroke:none;stroke-width:2.5;stroke-miterlimit:4;stroke-dasharray:none"
       id="rect9958"
       width="720"
       height="260"
       x="-123.99408"
       y="-550.2168"
       rx="10"
       ry="10" /><rect
       style="display:inline;fill:#ffff00;stroke:none;stroke-width:2.49999;stroke-miterlimit:4;stroke-dasharray:none"
       id="rect9964-6"
       width="34.5"
       height="50"
       x="-123.99408"
       y="-550.2168" /><rect
       style="display:inline;fill:#ff00ff;stroke:none;stroke-width:2.5;stroke-miterlimit:4;stroke-dasharray:none"
       id="rect9958-3-3"
       width="660"
       height="160"
       x="-89.49408"
       y="-500.2168"
       rx="10"
       ry="10" /></g><g
     inkscape:groupmode="layer"
     id="layer4"
     inkscape:label="Interboard connector"
     sodipodi:insensitive="true"
     style="display:none"><rect
       style="opacity:0.25;fill:#000000;stroke-width:20"
       id="rect475"
       width="50"
       height="50"
       x="629.5"
       y="1096.8308" /><use
       x="0"
       y="0"
       xlink:href="#rect475"
       id="use647"
       transform="translate(850.00002,750.00002)" /><use
       x="0"
       y="0"
       xlink:href="#rect475"
       id="use649"
       transform="translate(850.00002)" /><use
       x="0"
       y="0"
       xlink:href="#use649"
       id="use651"
       transform="translate(-850.00002,750.00002)" /></g></svg>
